<svg width="2861" height="2462" viewBox="0 0 2861 2462" fill="none" xmlns="http://www.w3.org/2000/svg">
<path d="M148 2084.7C179.7 2195.7 337.1 2260.3 592.9 2288.7C636 2466.9 1020.8 2467.9 1192.6 2398.2C1386.6 2484 1730 2437.8 1819.7 2353.1C1906 2372.6 1979.8 2382.5 2042.6 2384.2C2085.9 2385.3 2123.9 2382.5 2157.5 2376.4C2217.7 2365.2 2263.4 2343 2297.7 2312.3C2388.8 2324.4 2458.4 2323.2 2509.5 2310.5C2558.6 2298.2 2589.4 2260.9 2609.5 2239.3C2622.2 2241.6 2655.9 2245.7 2689.5 2225C2729.7 2200.3 2753.6 2150 2752.6 2094.8C2752 1954.27 2751.4 1813.73 2750.8 1673.2C2750.67 1635.8 2750.5 1598.4 2750.3 1561C1887.4 1591.8 1024.5 1622.5 161.5 1653.2L156.8 1803.6L148 2084.7Z" fill="url(#paint0_linear_5_6)"/>
<g opacity="0.2">
<path d="M156.8 1803.6C229.1 1842.3 352.4 1874.6 532.6 1889.9C551.2 1891.5 568.5 1901.7 580.7 1918.3C590.4 1931.6 601.3 1943.9 613.6 1955.3C651.2 1990.1 697.4 2009.4 745 2013.3C1455.3 2070.5 1889.9 2049.9 1851.1 1895.6C2131.4 1940.6 2351.7 1957.6 2332 1863C2472 1864.4 2598.7 1849.3 2698.2 1799.9C2709.4 1794.3 2718.9 1784.1 2723.7 1770.8C2734.9 1739.9 2716.6 1714.4 2676.8 1693.1C2699.8 1687.6 2720.2 1681 2738 1673.2C2737.8 1635.8 2737.63 1598.4 2737.5 1561C1878.8 1591.8 1020.2 1622.5 161.5 1653.2L156.8 1803.6Z" fill="#3A98B9"/>
</g>
<path opacity="0.5" d="M1120.7 2418.2L937.6 1935.9L828.1 1928.5L1032.2 2435.6L1120.7 2418.2Z" fill="url(#paint1_linear_5_6)"/>
<path opacity="0.5" d="M1726.1 2403L1561 1945.6L1388.5 1951.5L1557.3 2440.8L1726.1 2403Z" fill="url(#paint2_linear_5_6)"/>
<path opacity="0.5" d="M994.6 2435.6L793.4 1925.9C779.067 1923.43 764.733 1920.93 750.4 1918.4C819.4 2092.53 888.4 2266.67 957.4 2440.8L994.6 2435.6Z" fill="url(#paint3_linear_5_6)"/>
<path fill-rule="evenodd" clip-rule="evenodd" d="M1452.1 2460.7C1352.7 2460.7 1261.4 2445.4 1192.3 2416.3C1056.3 2468.7 814.8 2478.4 677.7 2408.1C626.7 2382 593.9 2347 579.8 2304C310.8 2272.8 164.2 2202.5 131.9 2089.3C131.433 2087.63 131.233 2085.93 131.3 2084.2L144.8 1652.7C145.1 1643.9 152.1 1636.8 160.9 1636.5L2749.7 1544.3C2754.2 1544.2 2758.7 1545.8 2761.9 1549C2765.2 1552.1 2767 1556.5 2767.1 1561L2769.3 2094.7C2770.5 2156.1 2743.2 2211.6 2698.3 2239.3C2667.4 2258.2 2636.1 2259.3 2615.9 2257.1C2594.7 2280.3 2562.9 2314.4 2513.5 2326.7C2461 2339.8 2390.2 2340.9 2303 2329.9C2209.6 2408.2 2052.9 2421.8 1824.4 2371.3C1774.5 2412.4 1669.7 2444.7 1546.8 2456.2C1514.8 2459.3 1483.1 2460.7 1452.1 2460.7ZM1192.6 2381.4C1194.9 2381.4 1197.2 2381.9 1199.3 2382.9C1285.1 2420.8 1410.7 2435.4 1543.7 2422.9C1663.6 2411.6 1767.4 2379.4 1808.2 2340.9C1812.3 2337.1 1818 2335.5 1823.4 2336.8C2050 2388 2201.5 2375.9 2286.6 2299.8C2290.2 2296.6 2295.1 2295.1 2299.9 2295.7C2386.4 2307.2 2455.5 2306.7 2505.4 2294.2C2545.7 2284.2 2572.5 2254.9 2592.1 2233.5C2593.9 2231.57 2595.6 2229.7 2597.2 2227.9C2601.1 2223.7 2606.8 2221.8 2612.5 2222.8C2626.5 2225.4 2654.1 2227.2 2680.7 2210.7C2715.7 2189.3 2736.8 2144.9 2735.8 2095.1L2733.7 1578.4L2706.4 1579.4L177.8 1669.4L164.8 2082.6C194.7 2180 339.3 2243.7 594.7 2272C601.7 2272.8 607.5 2277.9 609.1 2284.7C618.4 2323.1 646.6 2354.6 692.9 2378.3C820.5 2443.7 1058.6 2434.5 1186.3 2382.7C1188.3 2381.8 1190.4 2381.4 1192.6 2381.4Z" fill="#3A98B9"/>
<path d="M2474.3 1495.1C2583.9 1477.4 2676.7 1484.7 2738.7 1537.8C2751.7 1548.9 2754.4 1569.2 2744.6 1583.7C2725 1612.4 2683.4 1632.3 2624.5 1645.4C2662.3 1664.1 2679.6 1686.4 2669 1713.5C2664.5 1725.1 2655.5 1734 2644.8 1738.9C2550.5 1782.2 2430.4 1795.5 2297.7 1794.2C2316.3 1877.2 2107.6 1862.2 1841.9 1822.9C1878.7 1958 1466.7 1976.1 793.4 1925.9C748.3 1922.6 704.5 1905.6 668.8 1875.1C657.2 1865.2 646.9 1854.3 637.7 1842.7C626.1 1828.1 609.7 1819.2 592 1817.8C122.5 1780.9 60.5999 1632.2 290.1 1559.5L2474.3 1495.1Z" fill="white"/>
<path fill-rule="evenodd" clip-rule="evenodd" d="M1367.2 1968.2C1223.6 1968.2 1036.5 1960.8 792.2 1942.6C741.9 1938.9 695.5 1919.9 657.9 1887.8C645.8 1877.5 634.6 1865.8 624.6 1853.2C615.9 1842.2 603.8 1835.6 590.7 1834.5C316.8 1813 154.2 1752.4 144.6 1668.4C138.8 1618.4 188.7 1574.1 285 1543.6C286.467 1543.07 288 1542.8 289.6 1542.8L2472.7 1478.4C2598.7 1458.2 2689.3 1473.5 2749.6 1525.1C2769.1 1541.8 2773 1571.7 2758.4 1593.1C2741.3 1618.3 2710.7 1637.7 2665.2 1651.9C2692.6 1676.1 2691.8 1701 2684.6 1719.5C2678.6 1734.9 2667 1747.2 2651.8 1754.2C2567.5 1792.9 2460.2 1811 2315.1 1811.1C2313.8 1821.2 2309.4 1830.4 2302.2 1838.2C2262.7 1880.7 2134.3 1882.1 1860.8 1842.5C1860 1857.4 1854.5 1871.3 1844.4 1883.5C1811.7 1923.1 1721.8 1968.2 1367.2 1968.2ZM292.9 1576.2C218.4 1600.2 174.3 1634 177.8 1664.6C183.8 1716.7 314.6 1779.2 593.4 1801.2C615.5 1802.9 636.4 1814.3 650.8 1832.3C659.5 1843.3 669.2 1853.4 679.7 1862.4C711.8 1889.8 751.5 1906 794.6 1909.3C1095 1931.6 1332.7 1939.3 1501.4 1932.2C1723.6 1922.8 1796.5 1888.9 1818.6 1862.2C1827.1 1851.8 1829.4 1840.7 1825.8 1827.2C1824.3 1821.8 1825.6 1816 1829.4 1811.7C1833.1 1807.5 1838.8 1805.5 1844.4 1806.3C1940.4 1820.5 2232.6 1863.9 2277.6 1815.4C2280.7 1812.1 2283.5 1807.5 2281.4 1797.9C2280.3 1792.9 2281.5 1787.7 2284.7 1783.7C2287.9 1779.7 2292.8 1777.7 2297.9 1777.5C2444.8 1778.9 2555.9 1761.3 2637.8 1723.7C2645.1 1720.4 2650.6 1714.6 2653.4 1707.4C2656 1700.7 2662.9 1683.1 2617.1 1660.4C2610.7 1657.2 2607.1 1650.4 2607.9 1643.4C2608.8 1636.3 2614 1630.6 2620.9 1629C2677.6 1616.5 2714.6 1598 2730.7 1574.3C2735.7 1567 2734.4 1556.1 2727.8 1550.6C2675.3 1505.6 2593.2 1492.8 2476.9 1511.6C2476.23 1511.73 2475.53 1511.83 2474.8 1511.9L292.9 1576.2Z" fill="#3A98B9"/>
<path d="M2593.1 2235.9C2628.8 2082.2 2640.4 1923.3 2645.1 1765.6C2645.3 1758.7 2655.9 1758.2 2656.2 1765.6C2658.9 1925.1 2654.7 2085.1 2625.9 2242.8C2621 2264.8 2588.7 2258.2 2593.1 2235.9Z" fill="#3A98B9"/>
<path d="M2314.4 1793.7C2314.4 1883 2310.1 1972.5 2297.6 2061C2296.9 2065.7 2292.6 2069 2287.9 2068.3C2283.4 2067.6 2280.2 2063.6 2280.6 2059.1C2287.6 1971.1 2286.4 1882.8 2281 1794.7C2280.3 1772 2313.6 1770.9 2314.4 1793.7Z" fill="#3A98B9"/>
<path d="M1858.3 1819.7C1866.9 1880.8 1856.3 1939.4 1847.9 1998.8C1839.1 2056.6 1830.2 2114 1828.2 2172C1828.1 2175.3 1825.4 2177.9 1822.1 2177.8C1819 2177.7 1816.5 2175.1 1816.4 2172C1814.7 2113.1 1820.2 2054.2 1825.4 1996.1C1829.9 1939.9 1836.7 1880.7 1825.5 1826C1821 1803.5 1854.1 1797 1858.3 1819.7Z" fill="#3A98B9"/>
<path d="M1140.6 2398.1C1189.9 2387.2 1190.9 2305.5 1194.9 2263.4C1198.2 2205.5 1198.5 2146.9 1201.8 2088.8C1202.5 2079 1217.1 2079.1 1217.3 2089.3C1217.2 2118.3 1217.7 2147.4 1218.3 2176.5C1218.8 2235.6 1223.4 2295.4 1211.4 2354C1206.3 2377.3 1195.1 2404.1 1173.6 2418.9C1160.4 2427.7 1135.4 2440.7 1128 2419.1C1125.3 2409.8 1131.1 2400.1 1140.6 2398.1Z" fill="#3A98B9"/>
<path d="M731.6 1909.2C714.6 1985.3 710.2 2064.3 710.1 2142.5C710 2148.2 701.6 2148.7 701 2142.9C695 2063.5 693.4 1983.5 704.9 1904.2C705.9 1896.7 712.9 1891.6 720.3 1892.7C728.1 1893.8 733.4 1901.5 731.6 1909.2Z" fill="#3A98B9"/>
<path d="M599 2342.6C589.3 2323.7 588.7 2306.4 587.7 2287.1C587.1 2269.8 587.9 2253.1 588.9 2236.4C596 2137.6 610.5 2040 619.1 1941.5C620 1932.7 633.5 1933.2 633.2 1942.5C629.5 2040.9 619.8 2139.3 617.5 2237.5C618.1 2266.3 615.5 2300 627.9 2325.7C639.4 2345.4 610.6 2362.4 599 2342.6Z" fill="#3A98B9"/>
<g opacity="0.3">
<path d="M1430.4 2434.8C1366.8 2442 1305.7 2396.2 1271.3 2336.5C1236.9 2276.7 1224.3 2205 1215.1 2134.8C1219.9 2212.5 1212.5 2291.2 1193.4 2366.2C1191.6 2373.4 1189.6 2381.2 1191.6 2388.4C1195.1 2400.8 1208.2 2405.9 1219.6 2408.9C1287.2 2426.6 1357 2434.1 1426.4 2431.1L1430.4 2434.8Z" fill="#3A98B9"/>
</g>
<g opacity="0.3">
<path d="M607.2 2048.9C606.4 2107.8 581.2 2165.7 540.1 2203.7C499 2241.6 442.6 2258.8 389.5 2249.7C449.433 2260.63 509.367 2271.6 569.3 2282.6C580.4 2284.6 593.6 2285.8 601 2276.5C605.7 2270.4 606.3 2261.8 606.6 2253.8C609.4 2186 612.2 2118.2 615 2050.4L607.2 2048.9Z" fill="#3A98B9"/>
</g>
<g opacity="0.3">
<path d="M1782.1 2289.7C1807.9 2231 1815.6 2165.5 1822.9 2101.1C1822.9 2107.37 1822.87 2113.6 1822.8 2119.8C1823.2 2115.6 1823.7 2111.5 1824.1 2107.3C1823 2173.1 1834.9 2239.2 1858.9 2299.5C1869.6 2326.4 1886 2355 1912.4 2360.3L1922.9 2366.3C1894.6 2366.1 1866.3 2363.2 1838.5 2357.5C1830.6 2355.9 1822.3 2353.7 1817 2347.3C1816.4 2346.6 1815.9 2345.8 1815.4 2345C1814.2 2348.6 1812.8 2352.1 1811 2355.4C1797.7 2381 1770.1 2394.6 1743 2400.2C1716 2405.8 1688 2405.3 1661.1 2411.3L1648.8 2411.7C1708.7 2400.1 1756.3 2348.4 1782.1 2289.7Z" fill="#3A98B9"/>
</g>
<g opacity="0.3">
<path d="M2426.3 2318.8C2376 2303.7 2338.4 2255.7 2318.6 2202.9C2298.9 2150 2294.3 2092 2290 2035.1C2282.9 2086.6 2289.8 2139 2290.8 2191.1C2291.9 2243.2 2286.2 2298.3 2257.8 2340.1C2269.1 2323.4 2286.9 2312.1 2305.8 2309.6C2343.8 2304.7 2383.8 2333.7 2418.9 2316.8L2426.3 2318.8Z" fill="#3A98B9"/>
</g>
<g opacity="0.2">
<path d="M2563.6 1569.8C2467.8 1684.8 2309.4 1726.6 2160.1 1736.3C2010.7 1746.1 1859.1 1730.3 1712.2 1758.8C1643 1772.3 1575.8 1795.4 1506.2 1806.6C1387.8 1825.7 1266.8 1809.7 1147.9 1793.8C941.167 1766 734.4 1738.23 527.6 1710.5C470 1702.8 409 1695.5 355.8 1718.7C320.1 1734.3 287.6 1763.5 248.6 1761.6C209 1759.6 177.1 1722.7 171.8 1683.4C166.5 1644 183.2 1604.4 207.6 1573.1C275.5 1485.8 392.9 1456.5 502 1437.5C953.3 1359 1414.5 1362.6 1872.6 1366.4C1990 1367.4 2109.1 1368.6 2222.1 1400.6C2335.1 1432.5 2443.3 1499.4 2499.1 1602.7L2563.6 1569.8Z" fill="#3A98B9"/>
</g>
<path d="M83.8001 1668.4C76.9001 1686.6 78.0001 1703.3 84.4001 1716.8C86.7001 1721.7 89.7001 1726.2 93.2001 1730.2C94.6001 1731.7 96.0001 1733.2 97.5001 1734.6C109.6 1745.7 126.4 1752 144 1751.2C152.9 1750.9 161.9 1748.7 170.6 1744.5C167 1762.6 170.1 1779 177.6 1792.2C179.2 1794.9 180.8 1797.4 182.8 1799.6C204.5 1826.2 247.3 1825.1 268.4 1795.9C322.6 1720.9 361.8 1638.7 390.7 1551.6C383.3 1541.9 376.6 1531.4 370.3 1521C345.3 1479.8 322.9 1437 301.2 1393.9C293.1 1394.6 285.1 1395.5 277.2 1396.4C273.2 1396.9 269.1 1397.4 265.1 1398C256.3 1399.2 247.6 1400.5 239.1 1402.1C233.3 1403.17 227.567 1404.33 221.9 1405.6C203 1409.9 185 1417.6 168.6 1428C110.8 1464.9 63.7001 1509 28.4001 1561C-1.9999 1614.4 37.9001 1675.2 83.8001 1668.4Z" fill="#FFC869"/>
<g opacity="0.7">
<path d="M28.4 1561C63.7 1509 110.8 1464.9 168.6 1428C185 1417.6 203 1409.9 221.9 1405.6C227.567 1404.33 233.3 1403.17 239.1 1402.1C247.6 1400.5 256.3 1399.2 265.1 1398C269.1 1397.4 273.2 1396.9 277.2 1396.4C285.1 1395.5 293.1 1394.6 301.2 1393.9C304.2 1399.83 307.2 1405.77 310.2 1411.7C309 1411.9 307.7 1412 306.5 1412.1C302.5 1412.6 298.4 1413.1 294.4 1413.7C285.6 1414.9 276.9 1416.2 268.4 1417.8C262.6 1418.87 256.867 1420.03 251.2 1421.3C232.3 1425.6 214.3 1433.3 197.9 1443.7C140 1480.5 93 1524.7 57.7 1576.7C38.4 1610.6 47.5 1647.5 68.4 1668.2C29.8 1661.4 1.49997 1608.3 28.4 1561Z" fill="white"/>
</g>
<path fill-rule="evenodd" clip-rule="evenodd" d="M223.8 1835.4C222.467 1835.4 221.133 1835.37 219.8 1835.3C196 1834.1 174.8 1821 163.1 1800.5C157.2 1790.2 153.7 1779 152.7 1767.2C128.8 1770.5 104.2 1763.4 86.3001 1747.1C68.3001 1730.6 60.2001 1708 62.8001 1684.1C45.0001 1680.2 28.5001 1668.8 16.9001 1651.8C-3.09992 1622.6 -4.29992 1584.6 13.8001 1552.7C14.0001 1552.37 14.2334 1552 14.5001 1551.6C50.5001 1498.6 99.4001 1452.3 159.6 1413.9C178 1402.2 197.7 1393.9 218.3 1389.3C242.6 1383.8 270.4 1379.8 303.1 1377C308.6 1376.4 314 1378.7 317.5 1383L415.8 1502.2C419.3 1506.4 420.5 1512.2 418.9 1517.5C386 1629.4 341.2 1723.6 282 1805.6C268.4 1824.5 246.9 1835.4 223.8 1835.4ZM170.6 1727.8C174.3 1727.8 177.9 1729 180.9 1731.3C185.9 1735.2 188.3 1741.6 187 1747.8C184.4 1760.9 186.2 1773.4 192.2 1783.9C198.3 1794.7 209 1801.2 221.6 1801.9C234.8 1802.5 247.2 1796.7 254.9 1786.1C310.3 1709.2 352.7 1621 384.3 1516.6L297.3 1411.1C269.8 1413.7 246.3 1417.3 225.6 1422C208.9 1425.7 192.7 1432.5 177.6 1442.1C121.4 1477.9 76.0001 1520.9 42.6001 1569.9C29.0001 1594.3 34.6001 1618.5 44.5001 1632.9C54.0001 1646.8 67.8001 1653.9 81.4001 1651.9C87.3001 1651 93.1001 1653.3 96.9001 1657.9C100.6 1662.6 101.6 1668.8 99.5001 1674.4C92.4001 1692.9 95.9001 1710.4 108.9 1722.4C123.2 1735.5 145.1 1738.3 163.3 1729.4C165.7 1728.3 168.2 1727.8 170.6 1727.8Z" fill="#3A98B9"/>
<path d="M157.3 1734.4L269 1601.8C275 1594.8 285.8 1602.9 280.7 1610.6L184 1754.6C170.3 1773.4 142.9 1752.9 157.3 1734.4Z" fill="#3A98B9"/>
<path d="M71.4 1657.2L142.4 1593.5C148.7 1587.9 157.9 1596.3 152.9 1603.1L96.2 1679.7C80.8 1698.7 53.9 1674.3 71.4 1657.2Z" fill="#3A98B9"/>
<path d="M677.7 1609.9C679.9 1610.1 682 1610.5 684.2 1610.8C685 1610.9 685.9 1611 686.7 1611.1C758.4 1621.1 830.5 1627.4 903.2 1630.4C921.267 1631.13 939.333 1631.67 957.4 1632C1117.7 1634.9 1280.3 1621.9 1444.8 1595.9C1222.8 1418.8 1196.7 1120.4 1337.1 718.9C1330.2 705.9 1322.8 693.5 1314.9 681.8C1314.2 680.8 1313.6 679.9 1312.9 679C1235.9 566.3 1114 510.1 979.2 501.7C965.6 500.833 951.9 500.467 938.1 500.6C924.367 500.667 910.567 501.233 896.7 502.3C914.1 447.7 912.3 396.5 898.8 347.5C834.9 346.2 775.9 399 717.8 463.6C727.3 436.3 719.4 414.3 702.8 394.9C633.5 455.7 590.9 526.3 580 608.3C19.3 1253.5 340.1 1768.2 677.7 1609.9Z" fill="#777C8E"/>
<g opacity="0.3">
<path d="M606.9 608.3C617.7 526.3 660.3 455.7 729.6 394.9C737.4 404 743.3 413.7 746.3 424.3C715.2 459.6 692.9 498 680.3 539.7C671.1 570.2 656.3 598.7 635.7 623C133.6 1216.1 441.9 1680.1 766.5 1533.9C768.2 1533.9 769.6 1533.9 771.3 1534C772.6 1534.5 774.4 1534.6 776 1534.8C846.5 1544.3 917.5 1550.3 989 1553.1C1006.73 1553.77 1024.5 1554.27 1042.3 1554.6C1162.9 1556.7 1284.8 1550 1407.8 1535.7C1427 1557.1 1448.2 1577.2 1471.7 1595.9C1307.2 1621.9 1144.5 1634.9 984.2 1632C966.133 1631.67 948.1 1631.13 930.1 1630.4C857.4 1627.4 785.2 1621.1 713.6 1611.1C711.9 1610.9 710.2 1610.8 708.8 1610.2C707.1 1610.2 705.6 1610.2 703.9 1610.2C366.5 1767.6 46.5001 1253 606.9 608.3Z" fill="#3A98B9"/>
</g>
<g opacity="0.6">
<path d="M823.9 541.7C913.6 522.9 1009.1 520.7 1095.1 555C1178 588.2 1250.3 660 1271 749.5C1284.93 725.967 1298.9 702.467 1312.9 679C1235.9 566.3 1114 510.1 979.2 501.7C965.6 500.833 951.9 500.467 938.1 500.6C899.1 511.4 860.8 525.7 823.9 541.7Z" fill="white"/>
</g>
<path d="M686.7 1611.1C776.1 1623.6 866.4 1630.4 957.4 1632C959.2 1616.5 957.1 1602.2 956.3 1594.9C951.6 1555.9 954.5 1493.8 989.2 1393.6C956.3 1405.6 911.6 1416.8 858.5 1416.7C842.2 1416.6 826.9 1415.5 812.9 1413.7C808.5 1419.5 801.8 1429.3 796.9 1442.6C791.6 1457 791.4 1468.3 790.4 1474.1C783.3 1513.4 761.4 1549.7 730 1574.2C719.2 1582.7 707.2 1589.8 697.1 1599.2C693.3 1602.8 689.7 1606.8 686.7 1611.1Z" fill="white"/>
<path fill-rule="evenodd" clip-rule="evenodd" d="M554 1655.7C470.5 1655.7 393.3 1617 337.5 1543.2C200.9 1362.3 218.2 1001.2 564.1 601.1C576.2 519.6 619.1 446.1 691.8 382.3C695.1 379.4 699.5 377.9 704 378.2C708.4 378.5 712.6 380.6 715.5 384C725.4 395.6 732.1 407.6 735.7 420C785.1 369.7 838.6 329.6 899.1 330.8C906.5 330.9 912.9 335.9 914.9 343C928.3 391.6 929.7 438.1 919 484.3C1113.9 476.6 1270.8 558.5 1351.9 711C1354.1 715.1 1354.4 720 1352.9 724.4C1212 1127.5 1246.5 1416.3 1455.3 1582.8C1460.5 1586.9 1462.7 1593.7 1461 1600.1C1459.3 1606.6 1454 1611.4 1447.5 1612.4C1277 1639.3 1112 1651.6 957.1 1648.7C864.3 1647.1 772.6 1640 684.4 1627.7C683.1 1627.5 681.7 1627.3 680.2 1627.1C637.8 1646.3 595.1 1655.7 554 1655.7ZM699.9 420.2C640.6 476.7 605.8 540.6 596.6 610.5C596.2 613.8 594.8 616.8 592.6 619.3C434.8 800.9 334.5 988.5 302.6 1161.8C275.9 1306.8 297.8 1435.1 364.2 1523C438.4 1621.1 555.7 1648.6 670.6 1594.7C673.5 1593.3 676.8 1592.8 680 1593.3L683.3 1593.7C685.1 1593.97 686.933 1594.23 688.8 1594.5C775.9 1606.6 866.3 1613.6 957.7 1615.3C1099.7 1617.8 1250.4 1607.6 1406.1 1584.8C1310.7 1497.6 1254.3 1382.9 1238.4 1243.5C1221.9 1098.4 1249 922.5 1318.9 720.4C1240 578.2 1087.1 504.9 897.9 519C892.4 519.4 887 517.1 883.5 512.7C880.1 508.3 879 502.5 880.7 497.2C894.6 453.8 896.3 410.3 885.9 364.8C830.7 370.9 776.5 423.3 730.2 474.8C724.9 480.7 716.1 482.1 709.2 478C702.4 474 699.3 465.6 702 458.1C706.7 444.5 706.1 432.4 699.9 420.2Z" fill="#3A98B9"/>
<path d="M994.3 519.7C961.8 520.1 927.3 520 895.5 525.8C879.5 528.6 863.9 532.6 849.2 538.8C833.7 544.8 819.7 553.9 806.5 564C803.5 566.1 799.4 565.4 797.3 562.4C795.5 559.9 795.7 556.5 797.6 554.3C809.2 540.5 823.6 528.8 839.3 519.8C886.4 493 942.6 487.6 995.2 486.2C1004.4 486 1012.1 493.3 1012.3 502.5C1012.6 512.4 1004.1 520.3 994.3 519.7Z" fill="#3A98B9"/>
<path d="M585.8 1620C691.3 1597.2 768.5 1534.1 797 1428C806.6 1395.1 811.3 1360.6 813.7 1325.7C813.9 1321.5 817.6 1318.2 821.8 1318.5C825.8 1318.7 828.8 1321.9 829 1325.8C832.4 1398.3 819.7 1474.3 778 1535.9C736.1 1598.6 665.3 1637.6 592.9 1652.7C571.3 1656.9 564.2 1625.3 585.8 1620Z" fill="#3A98B9"/>
<path d="M765.2 437.9C747.6 457.8 728.3 476.4 708 493.6C701.1 499.2 693.9 504.7 685.9 509.4C683.2 511 679.7 510.1 678.1 507.4C677.1 505.8 677.1 503.8 677.8 502.2C681.6 493.7 686.3 486 691.1 478.5C706 456.4 722.3 435.2 740.2 415.5C755.3 400 778.9 421.1 765.2 437.9Z" fill="#3A98B9"/>
<g opacity="0.3">
<path d="M693.8 1579.9C694.7 1580 695.5 1580.1 696.4 1580.2C768 1589.6 840.2 1595.5 912.9 1598.3C897.5 1567.5 898.1 1530.5 902.2 1496.1C911.6 1419.6 935.9 1344.8 973.8 1276.5L969.3 1279.3C941.2 1323.2 881.7 1347.3 828.3 1336.2C826.3 1395.3 806.3 1453.8 771.2 1503C750.2 1532.5 723.9 1558.5 693.8 1579.9Z" fill="#3A98B9"/>
</g>
<g opacity="0.4">
<path d="M896.5 406.3C900.1 426.2 889.8 446.2 876.2 461.1C862.6 476 845.5 487.4 831.1 501.6C816.7 515.7 804.5 534.1 804.8 554.3C823.7 532.3 849.1 515.9 877 507.9C881.7 506.5 886.9 505.1 889.8 501.2C891.9 498.3 892.3 494.5 892.7 490.9C895.633 463.7 898.567 436.533 901.5 409.4" fill="#3A98B9"/>
</g>
<g opacity="0.6">
<path d="M1237 784C1236.87 781.067 1236.67 778.134 1236.4 775.2C1234.2 777.8 1232 780.4 1229.8 783L1237 784Z" fill="white"/>
</g>
<g opacity="0.4">
<path d="M84.3999 1716.8C86.6999 1721.7 89.6999 1726.2 93.1999 1730.2C94.5999 1731.7 95.9999 1733.2 97.4999 1734.6C107.5 1737.3 118.3 1737.9 129.1 1735.7C136.6 1734.3 143.4 1739.7 143.7 1747.3C143.767 1748.63 143.867 1749.93 144 1751.2C144.9 1760.5 147.8 1768.9 152.1 1776.3C159.3 1788.4 170.4 1796.1 182.8 1799.6C203.9 1805.6 228.5 1799 242.9 1779.8C297.1 1707.8 336.3 1628.9 365.3 1545.2C357.8 1535.8 351.2 1525.7 344.8 1515.7C320.4 1477 298.4 1436.9 277.2 1396.4C276.7 1395.5 276.3 1394.6 275.8 1393.6L239.6 1397.5C239.5 1399.1 239.3 1400.6 239.1 1402.1C235.5 1438.3 240.1 1475.4 252.9 1509.6C257.3 1521.5 262.8 1534 260.1 1546.4C258.4 1554.4 253.5 1561.5 248.6 1568.3C236.067 1585.7 223.5 1603.13 210.9 1620.6C188.5 1651.7 165.1 1683.7 131.1 1702.8C117.1 1710.6 100.7 1715.6 84.3999 1716.8Z" fill="#3A98B9"/>
</g>
<path d="M1355.1 1615.8C1375.3 1627 1396.8 1637.4 1419.7 1646.8C1570.8 1707.2 2088.2 1702.2 2401.1 1652.7C2402.77 1652.5 2404.4 1652.27 2406 1652C2439.4 1646.6 2471.9 1636.4 2501.8 1620.5C2627.9 1553.1 2670 1414.7 2577.3 1237.8C2558.1 1201.3 2547.2 1161 2545.8 1119.8C2531.1 706.3 2362.1 527.5 2132.5 440.9C2103.6 373.1 2043.5 357.3 1962.3 376.8C1976.9 322.5 1966.1 271.8 1937.3 243C1930.7 236.4 1919.8 237.7 1914.5 245.4C1888 284.6 1850.5 322.1 1804.8 358.5C1797.1 364.7 1788 368.9 1778.3 370.4C1250.9 454.2 837.2 1326 1355.1 1615.8Z" fill="#77828E"/>
<path d="M1256.5 1431.3C1256.5 1499 1292.6 1562.3 1355.1 1615.8C1375.3 1627 1396.8 1637.4 1419.7 1646.8C1570.8 1707.2 2088.2 1702.2 2401.1 1652.7C2493.9 1592.6 2549.6 1515.4 2549.6 1431.3C2549.6 1376.9 2526.3 1325.5 2484.8 1279.6C2486.1 1263.2 2486.8 1246.4 2486.8 1229.4C2486.8 998.9 2366.4 812 2217.9 812C2134.3 812 2059.6 871.3 2010.3 964.3C1947.2 852.2 1840.7 778.5 1720 778.5C1526.4 778.5 1369.5 967.7 1369.5 1201.1C1369.5 1212.3 1369.9 1223.3 1370.6 1234.2C1298.6 1290.2 1256.5 1358.1 1256.5 1431.3Z" fill="white"/>
<g opacity="0.6">
<path d="M1406.7 569.3C1417.4 557.6 1429.4 545.9 1442.7 534.6C1452.8 526 1463.1 518.2 1473.3 511.1C1565.3 438.7 1669.4 387.7 1778.3 370.4C1788 368.9 1797.1 364.7 1804.8 358.5C1850.5 322.1 1888 284.6 1914.5 245.4C1919.8 237.7 1930.7 236.4 1937.3 243C1946.1 251.9 1953.2 262.7 1958.4 275.1C1957 276.1 1955.7 277.3 1954.6 278.9C1928.1 318.1 1890.6 355.6 1844.9 392C1837.2 398.2 1828.1 402.4 1818.4 403.9C1744.6 415.6 1673 442.8 1605.8 481.7C1625.9 509.3 1590.1 575.4 1524.4 631.1C1461.6 684.4 1393.8 709.1 1367 689.8C1146.2 962.5 1063.7 1359.3 1299.1 1579.5C984.8 1345.5 1115.5 850 1406.7 569.3Z" fill="white"/>
</g>
<g opacity="0.6">
<path d="M1989.7 368.5C2003.6 366.1 2051.4 359.4 2092.2 388.9C2103.1 396.7 2111.2 405.6 2117.3 413.7C2102.4 409 2085 404.8 2065.5 402.6C2005.8 395.7 1956.6 410 1927.1 421.6C1937.8 410.9 1949.9 399.6 1963.7 388.3C1972.6 381 1981.3 374.5 1989.7 368.5Z" fill="white"/>
</g>
<g opacity="0.3">
<path d="M2277.1 1595.7C2277.1 1595.7 2339.8 1584 2376 1564.7C2425.6 1538.3 2446.5 1486.6 2457.5 1459.2C2465 1440.7 2481.3 1394.1 2463.1 1219.3C2457.4 1164.5 2450.9 1121.7 2446.4 1093.7C2413.6 889.7 2396 785.8 2336.9 691.4C2303.3 637.8 2265.7 601.8 2247.3 581.4C2219.1 550 2169.2 505 2083 470.9C2092.5 468.8 2116.9 462.1 2122.3 445.2C2130.4 420.1 2092.1 387.3 2061.7 374.4C2018.7 356.1 1976.8 371.1 1963.2 376.6C2043.9 357.4 2103.7 373.3 2132.5 440.9C2362.1 527.5 2531.1 706.3 2545.8 1119.8C2547.2 1161 2558.1 1201.3 2577.3 1237.8C2670 1414.7 2627.9 1553.1 2501.8 1620.5C2471.9 1636.4 2439.4 1646.6 2406 1652C2404.4 1652.27 2402.77 1652.5 2401.1 1652.7C2088.2 1702.2 1570.8 1707.2 1419.7 1646.8C1396.8 1637.4 1375.3 1627 1355.1 1615.8C1340.8 1607.8 1327.3 1599.3 1314.4 1590.4C1553.2 1649.3 1742.1 1652 1871.7 1643.3C2019.9 1633.3 2277.1 1595.7 2277.1 1595.7Z" fill="#3A98B9"/>
</g>
<path fill-rule="evenodd" clip-rule="evenodd" d="M1851.1 1708.1C1662.1 1708.1 1492.5 1693.9 1413.5 1662.3C1390.2 1652.8 1367.9 1642.1 1347 1630.4C1245.1 1573.3 1173.5 1492.3 1134.2 1389.6C1099.2 1297.8 1091.4 1189 1111.8 1074.7C1140.5 913.4 1225 744.4 1343.5 611C1469.2 469.5 1622.7 378.2 1775.7 353.9C1782.3 352.8 1788.7 349.9 1794.3 345.5C1841.5 307.8 1876.3 272.1 1900.7 236.1C1906 228.1 1914.5 223.1 1924 222.2C1933.4 221.3 1942.5 224.6 1949.2 231.2C1978 260.1 1990.5 306.1 1983.7 355.4C2062.2 343.1 2116.3 367.3 2144.9 427.8C2416.8 532.9 2549.5 752.8 2562.5 1119.2C2563.8 1157.4 2574.1 1195.7 2592.1 1230C2638.2 1318 2654.1 1402.3 2637.9 1473.9C2622.3 1543 2578 1598.7 2509.7 1635.2C2479.5 1651.4 2445.5 1662.6 2408.7 1668.5L2403.7 1669.3C2247 1694 2039.4 1708.1 1851.1 1708.1ZM1363.3 1601.1C1383 1612.2 1404.2 1622.3 1426.1 1631.3C1576.4 1691.4 2095.1 1684.2 2398.5 1636.2L2403.5 1635.4C2436.5 1630.1 2467 1620.1 2493.9 1605.7C2619.8 1538.4 2645.4 1403.8 2562.4 1245.5C2542.1 1206.8 2530.6 1163.6 2529 1120.4C2516.5 766.3 2388.6 555.3 2126.6 456.6C2122.3 455 2118.9 451.7 2117.1 447.5C2093.2 391.4 2045.3 374.1 1966.3 393.1C1960.5 394.4 1954.5 392.7 1950.4 388.5C1946.2 384.2 1944.7 378.1 1946.2 372.4C1958.5 326.4 1951.2 282.3 1927.1 256.6C1900.9 294.9 1864.3 332.5 1815.2 371.6C1805.2 379.7 1793.3 385 1781 387C1490 433.2 1204.6 744.3 1144.7 1080.6C1120.6 1215.8 1117 1463.3 1363.3 1601.1Z" fill="#3A98B9"/>
<path d="M2110.3 381.9C2160.6 439.1 2139.7 480.7 2069.1 494.8C2054.2 497.9 2039.5 500 2024.7 501.1C2020.7 501.4 2017.2 498.4 2016.9 494.3C2016.6 490.9 2018.8 487.8 2022 486.8C2047.6 478.8 2077.4 471.1 2098.4 455.8C2104.6 450.6 2108 446.9 2107.5 440.3C2105.6 426.6 2094.1 414.8 2085.1 403.9C2070.8 386.9 2095.3 365.5 2110.3 381.9Z" fill="#3A98B9"/>
<path d="M1984 307.4C1986.7 357.6 1976.3 416.8 1920.4 432.3C1914.2 434.2 1909.8 425.8 1914.9 421.9C1954.7 392.2 1949.3 353.2 1950.5 307.4C1951.8 286.2 1982.7 286.2 1984 307.4Z" fill="#3A98B9"/>
<g opacity="0.3">
<path d="M2071.4 1317.4C2081.3 1342.9 2105.3 1358.7 2127.6 1373.5C2149.8 1388.2 2173.2 1405.8 2180.5 1432.3C2187.3 1456.8 2177.9 1483.9 2161.5 1502.7C2145 1521.5 2122.3 1533.1 2099.3 1541.6C2072.4 1551.6 2043.8 1557.8 2015.4 1555.2C1984.6 1552.3 1955.2 1538.9 1930.1 1520.1C1905 1501.3 1883.8 1477.2 1865.1 1451.4C1890.4 1446.4 1915.9 1441.3 1939.8 1431.6C1963.8 1421.8 1986.5 1406.9 2002 1385.4C2011.8 1371.7 2018.5 1355.8 2028 1341.9C2037.6 1327.9 2051.2 1315.5 2067.5 1314.1" fill="#3A98B9"/>
</g>
<path d="M1779.4 1198.9C1774 1248.2 1739.8 1297.5 1692 1316.6C1634.7 1342.3 1561.4 1324.4 1527.3 1270.2C1522.6 1263.1 1518.7 1255.1 1515.5 1247.2C1509.3 1231.2 1506 1214.6 1505.7 1198.2C1505.6 1193.6 1509.3 1189.8 1513.9 1189.8C1517.7 1189.7 1521 1192.2 1522 1195.7C1526.9 1209.9 1532.4 1223.4 1539.7 1235.3C1544.9 1244.1 1551.5 1252.5 1558.7 1259.6C1599.9 1301.6 1670.1 1300.9 1714.5 1264.3C1736.2 1247.2 1752.2 1222.8 1763.1 1195C1766.5 1185.7 1780.6 1189.2 1779.4 1198.9Z" fill="#3A98B9"/>
<path d="M2403.1 1196.9C2399.1 1264.5 2350.4 1336.8 2276.2 1339.2C2224.2 1341.6 2180.2 1304.6 2163.4 1257.4C2156.3 1237.8 2152.8 1216.7 2153 1196.3C2153 1191.7 2156.8 1188 2161.4 1188C2165.2 1188.1 2168.4 1190.7 2169.4 1194.2C2175.9 1215.9 2183.1 1235.9 2195 1254.7C2231.2 1312.9 2298.5 1318.4 2344.5 1269.2C2363.9 1249.1 2376.8 1222.2 2386.7 1193.6C2389.7 1184.2 2404 1187 2403.1 1196.9Z" fill="#3A98B9"/>
<path d="M1863.3 1446.7C1868.1 1450.43 1873.4 1453.93 1879.2 1457.2C1886.8 1461.6 1893.7 1467 1899.8 1473.3C1939.4 1513.6 2011 1527.5 2060.4 1496.2C2063.8 1494.1 2067.6 1492.6 2071.6 1491.9C2091.1 1488.2 2106.6 1483.1 2118.5 1476.8C2172.5 1448.6 2155 1398.4 2110.2 1368.9C2101.9 1363.4 2094.7 1356.4 2089.4 1348.1C2033 1259.9 1986.8 1257.3 1928.7 1326.6C1920.6 1336.3 1909.4 1343 1897 1345.6C1818 1362.8 1818.5 1412.3 1863.3 1446.7Z" fill="#FFC869"/>
<g opacity="0.7">
<path d="M2005.1 1288.5C1998.6 1289.9 1993.5 1295.3 1990.7 1301.3C1987.9 1307.4 1987.1 1314.1 1986.4 1320.8C1982.9 1358 1984.4 1395.6 1985.9 1433C1956.1 1422.8 1931.6 1398.4 1921.2 1368.7C1918.9 1362 1917.2 1354.9 1918.6 1347.9C1919.9 1341.7 1923.5 1336.2 1927.2 1331C1936.4 1318 1946.4 1305.1 1959.5 1296C1972.6 1286.9 1989.4 1282 2004.8 1286.3" fill="white"/>
</g>
<path fill-rule="evenodd" clip-rule="evenodd" d="M1998.2 1525.6C1959.1 1525.6 1918.7 1510.5 1890.9 1482.1C1885.3 1476.4 1879.3 1471.7 1873 1468.1C1836.7 1447.5 1816.7 1417.7 1820.9 1390.2C1823.3 1374.4 1836 1346 1894.4 1333.4C1904.1 1331.2 1912.9 1326 1919.1 1318.5C1951 1280.5 1979.2 1263.7 2007.9 1265.5C2038.9 1267.5 2068.2 1291.6 2099.9 1341.3C2104.2 1347.9 2109.9 1353.7 2117.1 1358.4C2151.5 1381.1 2169.3 1413 2163.5 1441.7C2159.2 1463.4 2140.1 1491.9 2073.9 1504.2C2071.4 1504.7 2069.1 1505.6 2067.1 1506.9C2047.1 1519.5 2022.9 1525.6 1998.2 1525.6ZM2003.8 1290.5C1984.7 1290.5 1963.3 1304.9 1938.4 1334.7C1928.6 1346.3 1914.8 1354.6 1899.7 1357.9C1867.8 1364.8 1848.1 1378 1845.7 1394C1843.1 1410.6 1858.7 1431.2 1885.4 1446.3C1893.7 1451 1901.6 1457.2 1908.8 1464.5C1946.4 1502.9 2011.4 1512.4 2053.7 1485.6C2058.4 1482.7 2063.6 1480.6 2069.3 1479.6C2110.2 1471.9 2134.9 1456.7 2138.9 1436.8C2142.6 1418.6 2128.6 1396 2103.3 1379.4C2093.2 1372.7 2084.9 1364.4 2078.8 1354.8C2052.1 1313 2028.3 1292 2006.3 1290.5C2005.5 1290.5 2004.67 1290.5 2003.8 1290.5Z" fill="#3A98B9"/>
<path d="M2095.8 1422.2C2029 1491.7 1951.3 1485.1 1903.2 1399.6C1901.4 1396.4 1902.5 1392.5 1905.7 1390.7C1908.2 1389.3 1911.3 1389.7 1913.4 1391.6C1926.6 1403.6 1939.4 1415.5 1953 1425C1980.5 1445.3 2010.1 1447.3 2041.6 1434.9C2057.3 1429 2072.9 1420.9 2089.2 1413.1C2094.7 1410.3 2100.2 1417.8 2095.8 1422.2Z" fill="#3A98B9"/>
<g opacity="0.3">
<path d="M1857 1433.6C1858.8 1436.4 1861 1438.9 1863.3 1441.2C1868.1 1445.27 1873.4 1449.07 1879.2 1452.6C1886.8 1457.3 1893.7 1463.2 1899.8 1470C1939.3 1513.6 2010.9 1528.6 2060.3 1494.8C2063.7 1492.5 2067.5 1490.9 2071.5 1490.1C2091 1486.2 2106.4 1480.6 2118.4 1473.8C2124.7 1466.5 2129.4 1457.4 2130.2 1447.5C2131.2 1436.1 2126.6 1424.2 2118.1 1417.5C2109.6 1410.8 2097.4 1409.8 2088.3 1415.7L2079.5 1418.5C2059.2 1436.6 2034.5 1449.6 2008.2 1451.7C1982 1453.7 1954.5 1443.9 1937 1422.6C1924.4 1407.2 1916.5 1385.8 1899.1 1377.7C1885.3 1371.3 1867.9 1375.9 1858.5 1388.4C1849.1 1400.9 1848.4 1420.3 1857 1433.6Z" fill="#3A98B9"/>
</g>
<path d="M977.6 1276.5C914.1 1370.6 884.2 1475.7 898.6 1595.2C901.4 1617.9 911.2 1639.2 927.2 1655.6C946.7 1675.6 969.3 1692.6 994.7 1706.8C1010.9 1715.9 1028.8 1721.4 1047.2 1723.6C1123.6 1732.8 1203.5 1731.5 1285.8 1722.8C1400.2 1792.7 1486.7 1779.6 1473.1 1699.5C1470.5 1684.5 1464.5 1670.3 1456.5 1657.3C1376.5 1528 1220.2 1491.8 1085 1570.8C1160.3 1456.4 1068.2 1284.7 977.6 1276.5Z" fill="#77828E"/>
<g opacity="0.6">
<path d="M1464.5 1725C1461.9 1710.3 1455.9 1696.4 1448 1683.6C1374 1564.1 1234.7 1524.2 1107.2 1581.5C1097.9 1585.7 1088.5 1576.5 1092.2 1567L1092.4 1566.7C1225.9 1493.2 1378.1 1530.4 1456.6 1657.5C1464.5 1670.2 1470.4 1684.2 1473 1698.9C1476.5 1718.9 1473.8 1734.8 1465.9 1746.3C1466.3 1739.8 1465.9 1732.7 1464.5 1725Z" fill="white"/>
</g>
<g opacity="0.3">
<path d="M898.7 1455.7C899 1472 900.2 1488.6 902.2 1505.6C904.9 1528.2 914.8 1549.6 930.7 1565.9C950.2 1585.9 972.8 1602.9 998.3 1617.2C1014.4 1626.2 1032.4 1631.8 1050.8 1634C1127.2 1643.1 1207.1 1641.8 1289.4 1633.2C1374.2 1685 1443.7 1691.1 1468.4 1658.1C1470.4 1663.9 1472 1669.7 1473.1 1675.8C1486.7 1755.9 1400.2 1769 1285.8 1699.1C1203.5 1707.7 1123.6 1709 1047.2 1699.9C1028.8 1697.7 1010.9 1692.2 994.7 1683.1C969.3 1668.9 946.7 1651.9 927.2 1631.8C911.2 1615.5 901.4 1594.1 898.6 1571.5C893.8 1531.3 894 1492.8 898.7 1455.7Z" fill="#3A98B9"/>
</g>
<path d="M1080.5 1563.1C1194 1486.6 1340.8 1501 1435.2 1601.1C1440.2 1606.2 1445.8 1613.9 1450.6 1619.1L1454.4 1623.7L1457.8 1628.5L1471.3 1648C1485 1670 1493.4 1695.5 1491.8 1722C1490.7 1753.2 1466.8 1778.7 1436.3 1783.8C1379.5 1793.1 1323.7 1765.1 1277.1 1737.1C1277 1737.1 1287.6 1739.5 1287.6 1739.5C1221.8 1745.2 1155.5 1747 1089.3 1742.2C1054.9 1739.5 1019.1 1737.5 988.5 1719.7C943.8 1693.8 893.9 1659.1 884 1605C863.9 1488.3 897.1 1363.5 969.1 1270.7C972.5 1266.2 978.9 1265.3 983.4 1268.8C987.7 1271.9 988.7 1277.8 986.1 1282.2C936.6 1364.7 908.7 1457.1 912.1 1552.7C912.4 1566.1 913.5 1580.6 914.7 1594C916.8 1613 924.9 1631.3 938 1645.2C967.1 1674.2 1002.2 1702 1043.8 1708.6C1059.3 1710.6 1075.7 1712 1091.3 1713.1C1155.4 1717.2 1220 1714 1284.1 1706.2C1287.9 1705.7 1291.5 1706.6 1294.6 1708.6C1319.3 1723.1 1345.1 1735.8 1371.7 1743.7C1401.2 1751.9 1453.2 1760.9 1456.8 1719.4C1457.8 1701 1451.4 1682.1 1441.5 1666.4C1438.9 1662.8 1429 1647.8 1426.8 1644.6C1402.3 1613.1 1371.5 1585.4 1335.1 1568.4C1257.3 1530.9 1165.6 1540.7 1089.5 1578.5C1079.6 1583.4 1071.3 1569.3 1080.5 1563.1Z" fill="#3A98B9"/>
<g opacity="0.4">
<path d="M1227.8 1520.2C1185.4 1516.9 1142.4 1531.4 1106.3 1561.1C1082.1 1431.9 1091.7 1291.9 1133 1170.8C1115.9 1299 1150.9 1437.5 1222.8 1525.8" fill="#3A98B9"/>
</g>
<path d="M2688.6 640.5H2574.3C2569.2 640.5 2564.5 637.3 2562.6 632.5C2560.7 627.7 2561.9 622.2 2565.7 618.7L2656.6 533.5H2574.3C2567.4 533.5 2561.7 527.9 2561.7 520.9C2561.7 514 2567.4 508.3 2574.3 508.3H2688.6C2693.7 508.3 2698.4 511.5 2700.3 516.3C2702.2 521.1 2701 526.6 2697.2 530.1L2606.3 615.3H2688.6C2695.5 615.3 2701.2 620.9 2701.2 627.9C2701.2 634.8 2695.5 640.5 2688.6 640.5Z" fill="#3A98B9"/>
<path d="M2833.5 400.9C2833.1 400.9 2832.7 400.9 2832.3 400.9L2686.6 389.7C2680 389.2 2674.4 384.7 2672.4 378.4C2670.5 372 2672.6 365.1 2677.8 361L2802 261.3L2697.1 253.2C2688.2 252.6 2681.5 244.8 2682.2 235.9C2682.9 227 2690.6 220.4 2699.6 221.1L2845.2 232.2C2851.8 232.7 2857.5 237.2 2859.4 243.6C2861.4 249.9 2859.3 256.8 2854.1 260.9L2729.8 360.6L2834.8 368.7C2843.7 369.4 2850.3 377.1 2849.6 386C2849 394.5 2841.9 400.9 2833.5 400.9Z" fill="#3A98B9"/>
<path d="M2457.5 190.4C2451.8 190.4 2446.4 187.4 2443.5 182.4C2440.2 176.6 2440.7 169.4 2444.8 164.2L2543.6 39.3L2439.5 54.9C2430.7 56.2 2422.5 50.2 2421.2 41.3C2419.8 32.5 2425.9 24.3 2434.7 23L2579.2 1.3C2585.8 0.3 2592.2 3.4 2595.6 9.1C2598.9 14.9 2598.4 22 2594.3 27.2L2495.4 152.2L2599.5 136.6C2608.4 135.3 2616.6 141.3 2617.9 150.1C2619.2 159 2613.2 167.2 2604.3 168.5L2459.9 190.2C2459.1 190.333 2458.3 190.4 2457.5 190.4Z" fill="#3A98B9"/>
<defs>
<linearGradient id="paint0_linear_5_6" x1="-293359" y1="-1.0565e+06" x2="-5.50155e+06" y2="-1.0565e+06" gradientUnits="userSpaceOnUse">
<stop stop-color="#E0F4FF"/>
<stop offset="0.42" stop-color="#B2D6E6"/>
<stop offset="1" stop-color="#D0E0E7"/>
</linearGradient>
<linearGradient id="paint1_linear_5_6" x1="4610.58" y1="-486065" x2="-55231.6" y2="-633981" gradientUnits="userSpaceOnUse">
<stop stop-color="white"/>
<stop offset="1" stop-color="white"/>
</linearGradient>
<linearGradient id="paint2_linear_5_6" x1="60185.8" y1="-849431" x2="-9829.53" y2="-1.02249e+06" gradientUnits="userSpaceOnUse">
<stop stop-color="white"/>
<stop offset="1" stop-color="white"/>
</linearGradient>
<linearGradient id="paint3_linear_5_6" x1="-71451.7" y1="-409052" x2="-123629" y2="-530714" gradientUnits="userSpaceOnUse">
<stop stop-color="white"/>
<stop offset="1" stop-color="white"/>
</linearGradient>
</defs>
</svg>
