<svg width="2128" height="3038" viewBox="0 0 2128 3038" fill="none" xmlns="http://www.w3.org/2000/svg">
<rect x="0.5" y="0.5" width="2127" height="3037" stroke="#3A98B9"/>
<path d="M1137.9 2874.1C1106.5 2923 1024 2916.8 1024 2916.8C695 3087.7 729.2 2976.7 729.2 2976.7C554 3032.2 608.8 2912.6 608.8 2912.6L593.4 2906C574.9 2898.2 569.2 2874.8 582.1 2859.4C593.1 2846.4 604.5 2834.8 616.1 2824.3C713.5 2737.4 827.5 2737.4 827.5 2737.4C802.6 2711 779.4 2678.8 760.3 2649.3C729.8 2602.4 709.6 2562.2 709.6 2562.2L1139.3 2600.7C1115.1 2737.4 1176.4 2814.3 1137.9 2874.1Z" fill="#FFC869"/>
<path d="M1712.8 2563.6C1712.8 2563.6 1658.1 2670 1593.4 2737.7C1593.4 2737.7 1736.1 2739 1837.6 2862C1850.3 2877.4 1844.4 2900.9 1825.9 2908.5L1810.4 2914.9C1810.4 2914.9 1864.1 3035 1689.5 2977.9C1689.5 2977.9 1722.6 3089.3 1395.2 2915.4C1395.2 2915.4 1312.7 2920.8 1281.7 2871.6C1243.8 2811.4 1305.7 2735.1 1282.7 2598.2L1712.8 2563.6Z" fill="#FFC869"/>
<path fill-rule="evenodd" clip-rule="evenodd" d="M767.5 3035.9C743.7 3035.9 730.4 3029.3 721.5 3021.9C716.1 3017.4 712.2 3012.2 709.6 3006.9C652 3021.3 613.4 3016.6 592.2 2992.5C574 2972 575.3 2944.9 579.6 2925.8C566.2 2918.6 556.5 2906.1 552.9 2891C548.9 2874.3 552.9 2857.3 564 2844.1C636.3 2758.1 726.5 2728.8 780.5 2718.8C729 2653 690.3 2576.7 688.4 2572.9C684.5 2565.2 685.1 2556 689.9 2548.9C694.8 2541.7 703.1 2537.8 711.7 2538.6L1141.5 2577C1148.1 2577.6 1154.2 2581 1158.2 2586.3C1162.2 2591.5 1163.9 2598.3 1162.7 2604.8C1151.4 2668.7 1159.8 2718 1167.2 2761.5C1175.3 2808.5 1182.2 2849.1 1157.9 2886.9C1125 2938.2 1052.5 2941.2 1029.4 2940.8C885.7 3015 809.9 3035.9 767.5 3035.9ZM752 2983.3C751.9 2984.1 751.9 2985.2 752.1 2985.7C752.2 2985.7 784.6 3014.5 1013.1 2895.8C1017 2893.7 1021.4 2892.8 1025.8 2893.2C1044.8 2894.5 1098.6 2891.4 1118 2861.3C1131.7 2840 1128 2813.8 1120.5 2769.5C1113.7 2730 1105.5 2682 1112.3 2622.1L751.8 2589.8C772.7 2626.2 807.2 2681 844.8 2721.2C851.3 2728.1 853 2738.2 849.2 2746.8C845.5 2755.5 836.9 2761.1 827.5 2761.1C826.2 2761.1 694.1 2763.1 600.3 2874.7C598.7 2876.6 598.7 2878.6 599.1 2880C599.3 2881.1 600.2 2883.1 602.6 2884.2L618 2890.7C623.9 2893.2 628.6 2898 630.9 2904C633.2 2909.9 633 2916.6 630.4 2922.4C626.1 2932 620.8 2953.4 627.8 2961.1C635.1 2969.3 664.2 2972.4 722 2954C730.7 2951.3 740.5 2953 746.7 2959.6C752.9 2966.2 755.1 2974.9 752 2983.3Z" fill="#3A98B9"/>
<path fill-rule="evenodd" clip-rule="evenodd" d="M1651.8 3037.7C1609.6 3037.7 1533.9 3016.4 1389.6 2940.3C1366.5 2940.6 1294 2936.8 1261.6 2885.3C1237.6 2847.2 1244.9 2806.7 1253.4 2759.7C1261.2 2716.3 1270.1 2667.1 1259.3 2603.1C1258.2 2596.5 1259.9 2589.8 1264 2584.6C1268.1 2579.3 1274.2 2576 1280.8 2575.5L1710.9 2541C1719.5 2540.3 1727.8 2544.3 1732.6 2551.5C1737.4 2558.6 1737.9 2567.8 1733.9 2575.5C1732 2579.3 1692.6 2655.2 1640.5 2720.6C1694.4 2731 1784.4 2761.2 1855.9 2847.9C1866.8 2861.1 1870.7 2878.2 1866.5 2894.9C1862.7 2909.9 1853 2922.3 1839.5 2929.3C1843.6 2948.5 1844.7 2975.6 1826.3 2996C1804.9 3019.8 1766.3 3024.2 1708.8 3009.3C1706.1 3014.6 1702.2 3019.7 1696.7 3024.2C1687.9 3031.4 1674.8 3037.7 1651.8 3037.7ZM1395.2 2892.6C1399 2892.6 1402.9 2893.6 1406.3 2895.4C1633.7 3016.2 1666.4 2987.7 1666.7 2987.4C1666.7 2987.2 1666.7 2986.1 1666.6 2985.3C1663.6 2976.9 1665.8 2968.2 1672.1 2961.7C1678.4 2955.1 1688.2 2953.5 1696.8 2956.3C1754.5 2975.2 1783.6 2972.4 1791 2964.2C1798 2956.6 1793 2935.2 1788.7 2925.5C1786.2 2919.6 1786.1 2912.9 1788.5 2907C1790.8 2901.1 1795.5 2896.4 1801.4 2893.9L1816.9 2887.6C1819.3 2886.5 1820.2 2884.5 1820.5 2883.4C1820.8 2882 1820.9 2880 1819.3 2878.1C1726.5 2765.7 1594.4 2762.5 1593.1 2762.5C1583.7 2762.3 1575.2 2756.6 1571.5 2747.9C1567.9 2739.2 1569.7 2729.2 1576.2 2722.3C1614.2 2682.5 1649.1 2628 1670.4 2591.9L1309.6 2620.8C1315.8 2680.8 1307.2 2728.7 1300.1 2768.1C1292.1 2812.4 1288.3 2838.5 1301.8 2860C1320.8 2890.2 1374.6 2893.8 1393.7 2892.7C1394.17 2892.63 1394.67 2892.6 1395.2 2892.6Z" fill="#3A98B9"/>
<path d="M589.1 2899.3C605.6 2880.2 627.5 2866.8 649 2854.7C668.7 2843.8 691 2834.4 712 2826.6C723.3 2822.3 731.1 2838.1 721.1 2844.6C714 2849 700.3 2858 693.5 2862.8C669.6 2880.6 643.9 2900.7 628.5 2925.8C610.1 2951.3 572.4 2925.9 589.1 2899.3Z" fill="#3A98B9"/>
<path d="M707.2 2967.8C727.4 2929.3 756.7 2895.8 792.4 2870.9C804 2862.6 816.8 2856.1 829.6 2850.2C835 2847.7 841.5 2850.1 844 2855.5C846.4 2860.7 844.3 2866.7 839.6 2869.5C798.1 2896.4 767.3 2939 751.2 2985.5C740.1 3018.7 692.3 2999.7 707.2 2967.8Z" fill="#3A98B9"/>
<path d="M842.8 2719.3C866.2 2743.3 893.1 2764.3 920.9 2783.3C926.7 2787.1 928.3 2795 924.3 2800.8C921 2805.8 914.6 2807.6 909.2 2805.5C892.6 2798.83 876.233 2791.4 860.1 2783.2C843.3 2774.5 827.2 2765.8 811.4 2755C783.6 2733.4 817.9 2694.4 842.8 2719.3Z" fill="#3A98B9"/>
<path d="M1790.6 2928C1781.1 2911.3 1766.1 2897.4 1751.4 2884.4C1735.8 2870.7 1716.7 2857.3 1699.1 2846C1688.7 2839.6 1696.6 2823.5 1708 2828C1729 2836 1751.1 2845.6 1770.7 2856.6C1792.2 2868.9 1813.9 2882.5 1830.2 2901.8C1846.7 2928.5 1808.8 2953.6 1790.6 2928Z" fill="#3A98B9"/>
<path d="M1667.3 2986.5C1651.7 2939.9 1621.3 2897 1580 2869.7C1568.4 2862.4 1577.7 2844.9 1590.2 2850.5C1639.4 2872.5 1679.1 2912.6 1706 2958.8C1708 2962.2 1709.9 2965.7 1711.9 2970C1725.3 3001.8 1677.8 3019.4 1667.3 2986.5Z" fill="#3A98B9"/>
<path d="M1608.6 2755.9C1577.9 2776 1544.9 2791.6 1511 2805C1504.5 2807.6 1497.2 2804.4 1494.7 2797.9C1492.5 2792.2 1494.6 2785.9 1499.5 2782.7C1513.8 2773.2 1527.7 2763.2 1541 2752.6C1553.7 2742.3 1566.8 2731.2 1578.2 2719.5C1603.8 2694.6 1637.7 2735.1 1608.6 2755.9Z" fill="#3A98B9"/>
<g opacity="0.2">
<path d="M1137.9 2874.1C1106.5 2923 1024 2916.8 1024 2916.8C695 3087.7 729.2 2976.7 729.2 2976.7C554 3032.2 608.8 2912.6 608.8 2912.6L593.4 2906C574.9 2898.2 569.2 2874.8 582.1 2859.4C593.1 2846.4 604.5 2834.8 616.1 2824.3C626.3 2859.2 650.7 2874.1 650.7 2874.1C639.7 2938.1 781.9 2912.6 781.9 2912.6C799.6 2966.6 1014.8 2837 1014.8 2837C1031.8 2832.9 1039.2 2819.6 1041.5 2803.2C1047.5 2759.4 1013.5 2719.6 969.3 2716.7C886.7 2711.2 813.1 2679.5 760.3 2649.3C729.8 2602.4 709.6 2562.2 709.6 2562.2L1139.3 2600.7C1115.1 2737.4 1176.4 2814.3 1137.9 2874.1Z" fill="#3A98B9"/>
</g>
<g opacity="0.2">
<path d="M1281.9 2874.1C1313.3 2923 1395.8 2916.8 1395.8 2916.8C1724.8 3087.7 1690.6 2976.7 1690.6 2976.7C1865.8 3032.2 1811 2912.6 1811 2912.6L1826.4 2906C1844.9 2898.2 1850.6 2874.8 1837.6 2859.4C1826.7 2846.4 1815.3 2834.8 1803.7 2824.3C1793.5 2859.2 1769.1 2874.1 1769.1 2874.1C1780.1 2938.1 1637.9 2912.6 1637.9 2912.6C1620.2 2966.6 1404.9 2837 1404.9 2837C1388 2832.9 1380.6 2819.6 1378.3 2803.2C1372.3 2759.4 1406.3 2719.6 1450.5 2716.7C1533.1 2711.2 1606.7 2679.5 1659.5 2649.3C1689.9 2602.4 1710.2 2562.2 1710.2 2562.2L1280.4 2600.7C1304.6 2737.4 1243.4 2814.3 1281.9 2874.1Z" fill="#3A98B9"/>
</g>
<path d="M2031 2311.9C1977 2300.4 1901.3 2265.7 1825.4 2169.2C1825.4 2169.2 2047.6 2660.5 1210.2 2660.5H1207.5C373.3 2659.4 595 2169.2 595 2169.2C519.1 2265.7 443.3 2300.4 389.4 2311.9C349.8 2320.3 313.6 2288 317.1 2247.6C319.2 2222.9 321.9 2198.8 325.3 2175.5C327.567 2159.5 330.133 2143.87 333 2128.6C371.2 1921.5 458.1 1770.6 564.5 1661.4C783.1 1436.6 1083.7 1388 1210.2 1388C1336.7 1388 1637.3 1436.6 1856 1661.4C1968.3 1776.9 2059 1938.9 2093.5 2164.7C2097.6 2191.5 2100.9 2219.1 2103.3 2247.6C2106.8 2288 2070.6 2320.3 2031 2311.9Z" fill="#A7B2BD"/>
<g opacity="0.6">
<path d="M2093.5 2164.7C2090.4 2167.6 2088.7 2169.2 2088.7 2169.2C2088.7 2169.2 1917.8 1465.7 1210.2 1465.7C486.1 1465.7 325.3 2175.5 325.3 2175.5C327.567 2159.5 330.133 2143.87 333 2128.6C449.9 1495.1 1022.2 1388 1210.2 1388C1401.7 1388 1992 1499.2 2093.5 2164.7Z" fill="white"/>
</g>
<path fill-rule="evenodd" clip-rule="evenodd" d="M1210.2 2684.2C890.4 2684.2 682.5 2613.4 592.4 2473.8C542.7 2396.7 539.5 2314.8 547.9 2253.9C489.5 2305.2 434.5 2326.5 394.4 2335.1C368.2 2340.7 341.6 2333.7 321.6 2316C301.4 2298.2 291.1 2272.5 293.4 2245.6C308.4 2070.7 356 1917 435.1 1789C501.7 1681 590.8 1590.7 699.8 1520.6C879.2 1405.2 1086.9 1364.3 1210.2 1364.3C1333.5 1364.3 1541.1 1405.2 1720.6 1520.6C1829.6 1590.7 1918.7 1681 1985.3 1789C2064.3 1917 2112 2070.7 2127 2245.6C2129.3 2272.5 2119 2298.2 2098.8 2316C2078.7 2333.7 2052.2 2340.7 2026 2335.1C1985.8 2326.5 1930.9 2305.1 1872.5 2253.9C1880.9 2314.8 1877.7 2396.7 1827.9 2473.8C1737.8 2613.4 1530 2684.2 1210.2 2684.2ZM595 2145.4C599.2 2145.4 603.4 2146.5 607.3 2148.9C617.5 2155.1 621.5 2168 616.6 2178.9C616 2180.3 552.7 2325.2 632.6 2448.5C668.2 2503.5 727.4 2547.2 808.5 2578.3C909.3 2617.1 1044.4 2636.8 1210.2 2636.8C1375.9 2636.8 1511.1 2617.1 1611.9 2578.3C1693 2547.2 1752.2 2503.5 1787.8 2448.5C1867.7 2325.2 1804.4 2180.3 1803.8 2178.9C1798.9 2168 1802.9 2155.1 1813.2 2148.9C1823.4 2142.7 1836.7 2145.1 1844.1 2154.5C1916.8 2247.1 1988.5 2278.6 2035.9 2288.6C2047.2 2291 2058.7 2288 2067.4 2280.4C2076.2 2272.6 2080.7 2261.4 2079.7 2249.7C2053.1 1939.5 1923.7 1707.7 1694.9 1560.5C1524.1 1450.7 1327.1 1411.8 1210.2 1411.8C1093.3 1411.8 896.3 1450.7 725.5 1560.5C496.7 1707.7 367.2 1939.5 340.7 2249.7C339.7 2261.4 344.2 2272.6 353 2280.4C361.7 2288 373.2 2291.1 384.5 2288.6C431.8 2278.6 503.5 2247.1 576.3 2154.5C580.9 2148.6 587.9 2145.4 595 2145.4Z" fill="#3A98B9"/>
<path d="M1210.2 2512.4C670.4 2512.4 679 2142.1 758.7 1811.7C838.5 1481.3 989.4 1388 1210.2 1388C1430.9 1388 1581.9 1481.3 1661.6 1811.7C1741.4 2142.1 1749.9 2512.4 1210.2 2512.4Z" fill="white"/>
<path d="M576.7 2154C618.3 2106.6 655.1 2054.1 688.6 2000.5C700 1982.4 710.8 1963.9 721.4 1945.3C728.3 1933.7 745.9 1942.5 740.6 1955C723.1 1994.8 704 2033.9 683 2072.1C661.6 2110.8 639.3 2148.2 613.3 2184.3C592.6 2210.2 555.1 2179.3 576.7 2154Z" fill="#3A98B9"/>
<path d="M1806.5 2184.3C1768.6 2130.1 1737.1 2072.5 1708.5 2013.1C1699 1993.5 1690.3 1973.6 1681.7 1953.8C1679.9 1949.7 1681.8 1945 1685.8 1943.3C1689.6 1941.6 1694 1943.1 1695.9 1946.6C1733.4 2011.1 1775.3 2073.2 1822.8 2130.7C1829.5 2138.7 1836.6 2147 1843.3 2154.2C1864.9 2179.4 1827.1 2210.6 1806.5 2184.3Z" fill="#3A98B9"/>
<g opacity="0.2">
<path d="M1856 1661.4C1709.2 1768.2 1474.5 1837.4 1210.2 1837.4C945.8 1837.4 711.3 1768.2 564.5 1661.4C783.1 1436.6 1083.7 1388 1210.2 1388C1336.7 1388 1637.3 1436.6 1856 1661.4Z" fill="#3A98B9"/>
</g>
<path d="M1210.2 1677.8C134.1 1677.8 409.8 960.8 517.6 611.2C522.4 595.7 526.9 580.9 530.9 567C592 353.1 739.7 227.8 914.3 166.2C914.3 166.2 871.2 150.4 874.1 118.4C876.9 86.4001 1099.1 97.0001 1099.1 97.0001C1099.1 97.0001 1056.4 62.9001 1086.3 35.1001C1116.2 7.30009 1274.8 36.7001 1385.6 134.2C1610.2 176.1 1814.7 305.3 1889.5 567C1892.2 576.3 1895 586.1 1898.1 596.1C2002.2 939.8 2301.9 1677.8 1210.2 1677.8Z" fill="#A7B2BD"/>
<g opacity="0.6">
<path d="M1898.1 596.1C1894.2 596.7 1892.1 597 1892.1 597C1808 412.1 1682.1 309.2 1574.7 252.1C1563.5 266.6 1528.1 270.2 1489.7 259.6C1446.5 247.6 1415.8 222.3 1421.1 203C1422.1 199.667 1424 196.733 1426.8 194.2C1407.6 189.3 1392.1 186.3 1381.7 184.6C1372 183 1363.2 178.3 1356.3 171.3C1294 108 1164.6 56.7001 1143.3 72.9001C1136.8 77.8001 1138 86.9001 1143.1 97.5001C1155 122.5 1135.7 150.9 1108.2 147.7C1044.2 140.2 964.8 132.9 954.6 141.2C947.6 146.9 952.6 153.9 961.2 160.5C972.7 169.2 969.8 187 956.3 191.7C637.5 303.4 517.7 611.2 517.7 611.2C517.7 611.2 517.667 611.2 517.6 611.2C522.4 595.7 526.9 580.9 530.9 567C592 353.1 739.7 227.8 914.3 166.2C914.3 166.2 871.2 150.4 874.1 118.4C876.9 86.4001 1099.1 97.0001 1099.1 97.0001C1099.1 97.0001 1056.4 62.9001 1086.3 35.1001C1116.2 7.30009 1274.8 36.7001 1385.6 134.2C1610.2 176.1 1814.7 305.3 1889.5 567C1892.2 576.3 1895 586.1 1898.1 596.1Z" fill="white"/>
</g>
<path d="M1863.9 1410.1C1802.7 1494.7 1690.1 1677.8 1210.2 1677.8C730.3 1677.8 617.7 1494.7 556.5 1410.1C465.4 1284.2 456.1 1090.4 567.9 951.5C683.1 808.5 671.2 743.4 703.4 618.3C748.8 442.1 953.8 370.5 1077.7 512.9C1213.5 668.9 1092 886 1092 886H1328.4C1328.4 886 1206.9 668.9 1342.6 512.9C1466.5 370.5 1671.6 442.1 1716.9 618.3C1749.2 743.4 1737.3 808.5 1852.5 951.5C1964.3 1090.4 1955 1284.2 1863.9 1410.1Z" fill="white"/>
<g opacity="0.2">
<path d="M1210.2 1677.8C86.5 1677.8 436.9 896 530.9 567C546.4 512.8 567.4 464.2 593.1 421C585.833 439.133 579.4 458.1 573.8 477.9C485.7 786.1 157.5 1518.6 1210.2 1518.6C2262.9 1518.6 1934.7 786.1 1846.6 477.9C1841 458.3 1834.6 439.4 1827.4 421.3C1853.1 464.5 1874.1 512.9 1889.5 567C1983.5 896 2333.8 1677.8 1210.2 1677.8Z" fill="#3A98B9"/>
</g>
<path d="M984.4 708.3C984.4 762 951.6 805.5 911.1 805.5C870.6 805.5 837.7 762 837.7 708.3C837.7 654.7 870.6 611.1 911.1 611.1C951.6 611.1 984.4 654.7 984.4 708.3Z" fill="#3A98B9"/>
<path d="M956.9 692.6C956.9 712.8 945 729.1 930.3 729.1C915.6 729.1 903.7 712.8 903.7 692.6C903.7 672.4 915.6 656.1 930.3 656.1C945 656.1 956.9 672.4 956.9 692.6Z" fill="white"/>
<path d="M1425.5 708.3C1425.5 762 1458.4 805.5 1498.9 805.5C1539.4 805.5 1572.2 762 1572.2 708.3C1572.2 654.7 1539.4 611.1 1498.9 611.1C1458.4 611.1 1425.5 654.7 1425.5 708.3Z" fill="#3A98B9"/>
<path d="M1453.1 692.6C1453.1 712.8 1465 729.1 1479.7 729.1C1494.4 729.1 1506.3 712.8 1506.3 692.6C1506.3 672.4 1494.4 656.1 1479.7 656.1C1465 656.1 1453.1 672.4 1453.1 692.6Z" fill="white"/>
<path d="M1791.2 1272C1769.9 1375.9 1666.5 1613.8 1210.2 1613.8C753.9 1613.8 650.5 1375.9 629.1 1272C620.1 1228.2 616.6 1171.7 623.1 1114.5C634.3 1017.2 674.4 917.6 765.9 874.6C910.5 806.6 1020.8 928.7 1207.9 929.7C1208.63 929.767 1209.4 929.767 1210.2 929.7C1398.7 929.7 1509.3 806.3 1654.5 874.6C1799.8 943 1815.5 1153.8 1791.2 1272Z" fill="#FFC4A4"/>
<g opacity="0.2">
<path d="M1791.8 1114.5C1751.3 1054.8 1669.1 957.1 1556.7 941.6C1393.5 919.1 1378.7 1138.8 1207.9 1139.5H1207C1036.3 1138.8 1021.4 919.1 858.2 941.6C745.9 957.1 663.6 1054.8 623.1 1114.5C634.3 1017.2 674.4 917.6 765.9 874.6C910.3 806.7 1020.4 928.4 1207 929.7H1207.9C1394.5 928.4 1504.6 806.7 1649.1 874.6C1740.5 917.6 1780.6 1017.2 1791.8 1114.5Z" fill="#3A98B9"/>
</g>
<g opacity="0.2">
<path d="M1791.2 1272C1769.9 1375.9 1666.5 1613.8 1210.2 1613.8C753.9 1613.8 650.5 1375.9 629.1 1272C620.8 1231.4 617.2 1180 621.9 1127.2C623.5 1145.2 626 1162.2 629.1 1177.6C650.5 1281.6 753.9 1519.4 1210.2 1519.4C1666.5 1519.4 1769.9 1281.6 1791.2 1177.6C1794.4 1162.2 1796.9 1145.2 1798.5 1127.2C1803.2 1180 1799.6 1231.4 1791.2 1272Z" fill="#3A98B9"/>
</g>
<path fill-rule="evenodd" clip-rule="evenodd" d="M1210.2 1637.5C1006.8 1637.5 849 1591.2 741.2 1499.9C647 1420.1 616 1325.8 605.9 1276.7C591.2 1205.2 593.1 1120 610.9 1048.8C634.6 954.2 684.7 886.6 755.7 853.1C848.1 809.7 927.5 836.4 1011.5 864.7C1071.8 885 1134.2 906 1210.2 906C1286.2 906 1348.6 885 1408.9 864.7C1492.9 836.4 1572.3 809.7 1664.6 853.1C1735.7 886.6 1785.8 954.2 1809.5 1048.8C1827.3 1120 1829.2 1205.2 1814.5 1276.7C1804.4 1325.8 1773.4 1420.1 1679.1 1499.9C1571.4 1591.2 1413.6 1637.5 1210.2 1637.5ZM856.8 877.7C830.4 877.7 803.9 882.9 776 896.1C643.2 958.6 629.7 1156.9 652.4 1267.2C661.2 1310.3 688.6 1393.1 771.9 1463.7C870.9 1547.5 1018.3 1590 1210.2 1590C1402.1 1590 1549.5 1547.5 1648.5 1463.7C1731.8 1393.1 1759.1 1310.3 1768 1267.2C1790.7 1156.9 1777.1 958.6 1644.4 896.1C1569.4 860.8 1505.2 882.4 1424 909.7C1363.1 930.2 1294 953.5 1210.2 953.5C1126.4 953.5 1057.3 930.2 996.3 909.7C945.4 892.6 901.2 877.7 856.8 877.7Z" fill="#3A98B9"/>
<path d="M1143.3 1260.6C1152 1231.7 1179.3 1208.4 1210.2 1207.3C1241.5 1206.8 1269.8 1231.1 1277.1 1260.6C1254.8 1249.8 1233.8 1236.9 1210.8 1237C1186 1238.3 1167 1250.4 1143.3 1260.6Z" fill="#3A98B9"/>
<path d="M809.3 1004.2C809.3 1004.2 872 945.8 954.6 970C954.6 970 940.3 900.2 881.9 907.4C823.5 914.5 809.3 1004.2 809.3 1004.2Z" fill="#3A98B9"/>
<path d="M1611.1 1004.2C1611.1 1004.2 1548.4 945.8 1465.8 970C1465.8 970 1480.1 900.2 1538.5 907.4C1596.8 914.5 1611.1 1004.2 1611.1 1004.2Z" fill="#3A98B9"/>
<path d="M990.2 1165.9C990.2 1229.2 951.4 1280.6 903.6 1280.6C855.9 1280.6 817.1 1229.2 817.1 1165.9C817.1 1102.6 855.9 1051.2 903.6 1051.2C951.4 1051.2 990.2 1102.6 990.2 1165.9Z" fill="#3A98B9"/>
<path d="M954.6 1140.3C954.6 1160.9 942.4 1177.7 927.3 1177.7C912.3 1177.7 900.1 1160.9 900.1 1140.3C900.1 1119.6 912.3 1102.9 927.3 1102.9C942.4 1102.9 954.6 1119.6 954.6 1140.3Z" fill="white"/>
<g opacity="0.3">
<path d="M901.3 1203.4C906.9 1219.8 901.7 1236.4 889.8 1240.4C877.8 1244.5 863.6 1234.5 858.1 1218.1C852.5 1201.7 857.7 1185.1 869.6 1181.1C881.6 1177 895.8 1187 901.3 1203.4Z" fill="white"/>
</g>
<path d="M1433 1165.9C1433 1229.2 1471.8 1280.6 1519.6 1280.6C1567.4 1280.6 1606.1 1229.2 1606.1 1165.9C1606.1 1102.6 1567.4 1051.2 1519.6 1051.2C1471.8 1051.2 1433 1102.6 1433 1165.9Z" fill="#3A98B9"/>
<path d="M1468.7 1140.3C1468.7 1160.9 1480.9 1177.7 1495.9 1177.7C1511 1177.7 1523.2 1160.9 1523.2 1140.3C1523.2 1119.6 1511 1102.9 1495.9 1102.9C1480.9 1102.9 1468.7 1119.6 1468.7 1140.3Z" fill="white"/>
<g opacity="0.3">
<path d="M1521.9 1203.4C1516.3 1219.8 1521.5 1236.4 1533.5 1240.4C1545.4 1244.5 1559.6 1234.5 1565.2 1218.1C1570.7 1201.7 1565.6 1185.1 1553.6 1181.1C1541.7 1177 1527.5 1187 1521.9 1203.4Z" fill="white"/>
</g>
<path d="M1073.5 1341.7C1103.2 1391.7 1156.4 1410.7 1212.8 1410.4C1238.5 1410.6 1265.9 1408.7 1289.7 1398.6C1314.9 1388.3 1335.6 1367 1346.9 1341.7C1355.6 1379.7 1330.9 1419.1 1297.9 1438C1279.2 1448.4 1258 1454.6 1236.9 1456.8C1229.5 1457 1219.3 1458.3 1212 1457.9C1204.7 1457.2 1194.4 1457.4 1187.2 1456C1183.2 1455.3 1172.5 1453.4 1168.6 1452.6C1164.2 1451.5 1154.7 1448.1 1150.3 1446.8C1106.9 1431.4 1068.9 1387.5 1073.5 1341.7Z" fill="#3A98B9"/>
<path fill-rule="evenodd" clip-rule="evenodd" d="M1210.2 1701.6C1017.9 1701.6 857.1 1678.4 732.4 1632.8C618.8 1591.2 531.7 1529.8 473.4 1450.3C302.1 1216.8 409.1 877.2 479.9 652.5C490.3 619.4 500.2 588.1 508.1 560.5C561.5 373.6 684.4 235.9 864.8 159.9C855.3 148.4 848.9 133.8 850.5 116.3C853.2 85.9 888.9 74.3 987.1 72C1010.9 71.4 1034.5 71.5 1053.9 71.9C1052.8 67.8 1052.1 63.6 1052 59.2C1051.6 48.3 1054.4 32.3 1070.1 17.7C1102 -11.9 1180 5.79997 1212 14.8C1251.5 25.9 1327.2 53.2 1396.3 112.1C1661.2 163.4 1844.3 322.5 1912.3 560.5C1920.2 588.1 1930.1 619.4 1940.5 652.5C2011.3 877.2 2118.3 1216.8 1947 1450.3C1888.7 1529.8 1801.6 1591.2 1688 1632.8C1563.3 1678.4 1402.5 1701.6 1210.2 1701.6ZM899.9 127.7C905 135.4 917.4 142.1 922.5 143.9C931.9 147.4 938.1 156.4 938.1 166.4C938 176.4 931.7 185.3 922.2 188.6C791.1 234.8 620.7 339.1 553.7 573.5C545.6 601.7 535.7 633.3 525.1 666.8C457.2 882.4 354.6 1208.2 511.6 1422.3C624.5 1576.1 859.5 1654.1 1210.2 1654.1C1560.9 1654.1 1795.9 1576.1 1908.7 1422.3C2065.8 1208.2 1963.1 882.4 1895.2 666.8C1884.7 633.3 1874.7 601.7 1866.7 573.5C1803.3 351.8 1630.9 204.1 1381.2 157.5C1377 156.7 1373.1 154.8 1369.9 152C1308 97.5 1238.5 71.9 1202.7 61.5C1141.4 43.7 1107.6 48.8 1102.2 52.7C1099.3 55.4 1099.4 56.8 1099.4 57.4C1099.6 63.8 1109 74.5 1113.9 78.5C1122 84.9 1124.9 95.8 1121.3 105.4C1117.7 115 1108.2 121.2 1098 120.7C1020.8 117 929.4 119.1 899.9 127.7Z" fill="#3A98B9"/>
<path d="M1398.7 919.1C1355.2 985 1291.4 1029.5 1250.3 1053.3C1225.5 1067.7 1194.9 1067.7 1170 1053.3C1129 1029.5 1065.2 985 1021.7 919.1C1004.9 893.5 1022.3 859.5 1052.8 857.2C1065.6 856.2 1079.1 853 1092 846.1C1110.4 836.4 1131.8 823.8 1151.3 811.9C1187.5 789.9 1232.9 789.9 1269 811.9C1288.6 823.8 1310 836.4 1328.4 846.1C1341.3 853 1354.7 856.2 1367.6 857.2C1398.1 859.5 1415.5 893.5 1398.7 919.1Z" fill="#FFC869"/>
<g opacity="0.6">
<path d="M1405 893.4C1378 885.4 1349.3 876.5 1322.6 868C1253.5 846 1166.9 846 1097.8 868C1071 876.5 1042.4 885.4 1015.4 893.4C1017.3 875.1 1032 858.8 1052.8 857.2C1065.6 856.2 1079.1 853 1092 846.1C1110.4 836.4 1131.8 823.8 1151.3 811.9C1187.5 789.9 1232.9 789.9 1269.1 811.9C1288.6 823.8 1310 836.4 1328.4 846.1C1341.3 853 1354.7 856.2 1367.6 857.2C1388.4 858.8 1403 875.1 1405 893.4Z" fill="white"/>
</g>
<g opacity="0.2">
<path d="M1398.7 919.1C1355.2 985 1291.4 1029.5 1250.4 1053.3C1225.5 1067.7 1194.9 1067.7 1170 1053.3C1129 1029.5 1065.2 985 1021.7 919.1C1008.1 898.5 1016.9 872.4 1036.7 861.8C1079 916.3 1133.5 953.8 1170 975C1194.9 989.4 1225.5 989.4 1250.4 975C1286.9 953.8 1341.4 916.3 1383.6 861.8C1403.5 872.4 1412.2 898.5 1398.7 919.1Z" fill="#3A98B9"/>
</g>
<path fill-rule="evenodd" clip-rule="evenodd" d="M1210.2 1087.8C1192.2 1087.8 1174.2 1083.1 1158.1 1073.8C1111.8 1046.9 1047 1000.5 1001.9 932.1C989.4 913.2 988 889.8 997.9 869.5C1008.1 848.7 1027.9 835.3 1050.9 833.5C1062 832.6 1072.1 829.8 1080.9 825.2C1096.4 816.9 1116 805.6 1139 791.6C1182.9 764.9 1237.5 764.9 1281.4 791.6C1304.4 805.6 1323.9 816.9 1339.5 825.2C1348.3 829.8 1358.4 832.6 1369.5 833.5C1392.5 835.3 1412.3 848.7 1422.4 869.5C1432.4 889.8 1431 913.3 1418.5 932.1C1373.4 1000.5 1308.6 1046.9 1262.2 1073.8C1246.2 1083.1 1228.2 1087.8 1210.2 1087.8ZM1210.2 819.1C1194.1 819.1 1178 823.5 1163.7 832.2C1139.9 846.7 1119.5 858.4 1103.1 867.1C1088.5 874.8 1072.2 879.5 1054.6 880.8C1048.5 881.3 1043.3 884.9 1040.6 890.4C1039.1 893.4 1037.2 899.5 1041.5 906C1081.5 966.7 1140 1008.4 1181.9 1032.7C1199.4 1042.8 1221 1042.8 1238.4 1032.7C1280.4 1008.4 1338.8 966.7 1378.9 906C1383.2 899.5 1381.3 893.4 1379.8 890.4C1377.1 884.9 1371.9 881.3 1365.8 880.8C1348.2 879.5 1331.9 874.8 1317.3 867.1C1300.9 858.4 1280.5 846.7 1256.7 832.2C1242.4 823.5 1226.3 819.1 1210.2 819.1Z" fill="#3A98B9"/>
<g opacity="0.2">
<path d="M2031 2311.9C1977 2300.4 1901.3 2265.7 1825.4 2169.2C1825.4 2169.2 2047.1 2659.4 1212.9 2660.5C378.7 2659.4 600.4 2169.2 600.4 2169.2C524.6 2265.7 448.8 2300.4 394.9 2311.9C355.3 2320.3 319.1 2288 322.5 2247.6C326.1 2206 331.4 2166.4 338.4 2128.6C416.1 2141.5 549.8 2091 764.2 1811.7C764.2 1811.7 564.6 2465.4 1212.9 2465.4C1861.3 2465.4 1661.7 1811.7 1661.7 1811.7C1876.1 2091 2009.7 2141.5 2087.4 2128.6C2094.4 2166.4 2099.8 2206 2103.3 2247.6C2106.8 2288 2070.6 2320.3 2031 2311.9Z" fill="#3A98B9"/>
</g>
<path d="M340.5 612.8C359.7 581.3 369.2 543.4 365.2 503.8C355.3 407.8 269.4 337.9 173.3 347.7C77.3001 357.6 7.40007 443.5 17.2001 539.6C27.1001 635.7 113 705.5 209.1 695.7C235.8 692.9 260.5 684.3 282 671.2L362.9 689.4L340.5 612.8Z" fill="white"/>
<g opacity="0.5">
<path d="M176.8 381.2C266.5 372 347.4 432.4 365.7 518.7C365.7 512.5 365.4 506.3 364.8 500C354.9 403.9 269 334 172.9 343.9C76.8999 353.8 6.99992 439.7 16.7999 535.7C17.4666 542.033 18.4666 548.233 19.7999 554.3C20.0999 466 86.9999 390.4 176.8 381.2Z" fill="white"/>
</g>
<path fill-rule="evenodd" clip-rule="evenodd" d="M190.8 712C147.3 712 105.4 697.2 71.0999 669.3C31.6999 637.2 7.09989 591.7 1.89989 541.1C-3.30011 490.6 11.4999 441 43.5999 401.6C75.6999 362.2 121.2 337.6 171.8 332.4C276.1 321.8 369.8 397.9 380.5 502.3C384.5 541.7 376.5 580.5 357.1 614.8L377.7 685C379.2 690.3 377.9 695.9 374.2 699.9C370.4 703.8 364.9 705.6 359.6 704.4L284.5 687.5C261.8 700.4 236.9 708.3 210.6 711C204 711.667 197.4 712 190.8 712ZM191.3 362.2C185.9 362.2 180.433 362.467 174.9 363C132.5 367.4 94.3999 388 67.4999 421C40.5999 454.1 28.1999 495.6 32.4999 538C36.8999 580.4 57.4999 618.5 90.4999 645.4C123.6 672.3 165.1 684.7 207.5 680.4C231.3 677.9 253.7 670.4 274 658.1C277.4 656 281.5 655.3 285.4 656.2L340.8 668.6L325.7 617.1C324.5 613 325.1 608.5 327.3 604.8C345.7 574.8 353.5 540.4 349.9 505.4C341.5 423.4 272 362.2 191.3 362.2Z" fill="#3A98B9"/>
<g opacity="0.3">
<path d="M341.5 611.1C293.6 651.6 227.6 669.4 162 653.1C89.3999 635 35.7999 579.6 16.4999 512.5C16.0999 521.4 16.2999 530.4 17.1999 539.6C27.0999 635.6 113 705.5 209.1 695.7C235.8 692.9 260.5 684.3 282 671.2L362.9 689.4L340.5 612.8C340.833 612.267 341.167 611.7 341.5 611.1Z" fill="#3A98B9"/>
</g>
<path d="M247.1 472.6C232 457.5 207.4 460.2 192.3 475.3L190 477.7L187.6 475.3C172.5 460.2 147.9 457.5 132.8 472.6C117.7 487.7 117.7 512.3 132.8 527.4L135.1 529.8L182.7 577.3C186.7 581.3 193.2 581.3 197.2 577.3L244.8 529.8L247.1 527.4C262.3 512.3 262.3 487.7 247.1 472.6Z" fill="#3A98B9"/>
</svg>
