<svg version="1.2" xmlns="http://www.w3.org/2000/svg" viewBox="0 0 2444 2860" width="2444" height="2860"><style>.a{fill:#fe094e}.b{fill:#bda7ad}.c{fill:#fff}.d{fill:#e8e8ef}.e{fill:#ffc6d2}.f{fill:#000072}.g{fill:#ffb839}.h{fill:#99023a}</style><g style="opacity:.3"><path class="a" d="m1968.3 2711.1c0 81.6-344.9 147.7-770.4 147.7-425.4 0-770.3-66.1-770.3-147.7 0-81.5 344.9-147.6 770.3-147.6 425.5 0 770.4 66.1 770.4 147.6z"/></g><path class="b" d="m1223.6 2721.1c-748.6 0-828-420.7-785.1-730.2 16.1-116.3 49.5-216.9 71.2-273.7 11.8-31.1 20.2-49.1 20.2-49.1 0 0 104-169 693.7-169 589.6 0 693.7 169 693.7 169 0 0 8.3 18 20.2 49.1 79.3 207.8 315.9 1003.9-713.9 1003.9z"/><path class="c" d="m1223.6 1464.8c492.5 0 579.5 154.2 579.5 154.2 0 0 409.8 960.7-579.5 960.7-989.3 0-579.5-960.7-579.5-960.7 0 0 86.9-154.2 579.5-154.2z"/><g style="opacity:.3"><path class="a" d="m2008.6 1990.9c-46.7 124.8-177.8 382.6-432.9 252.7 2.1 3 88.4 119.1 251 63.5 0 0-18.8 309-603.1 309-584.3 0-603.2-309-603.2-309 162.6 55.6 248.9-60.5 251.1-63.5-255.1 129.9-386.3-127.9-433-252.7-42.9 309.5 36.5 730.2 785.1 730.2 748.6 0 828-420.7 785-730.2z"/></g><g style="opacity:.3"><path class="a" d="m1407.5 2224c-48.2-11.8-183.9-10.7-183.9-10.7 0 0-135.8-1.1-184 10.7l-40.6 158.6c0 0 75.2-12 91.2-84.8 4.1-18.7 20.3-32.4 39.3-34 20.2-1.8 50.3-3.4 94.1-3.4 43.8 0 73.9 1.6 94 3.4 19.1 1.6 35.2 15.3 39.3 34 16 72.8 91.3 84.8 91.3 84.8z"/></g><path fill-rule="evenodd" class="a" d="m1223.6 2743.6c-361.4 0-606.7-97.3-729.1-289.4-84.5-132.5-108.5-312.4-69.5-520.2 29.1-155.5 82.2-270.5 84.4-275.3q0.6-1.2 1.3-2.3c4.5-7.4 117.5-179.7 712.9-179.7 595.3 0 708.3 172.3 712.8 179.7q0.7 1.1 1.3 2.3c2.2 4.8 55.3 119.8 84.5 275.3 38.9 207.8 14.9 387.7-69.5 520.2-122.4 192.1-367.7 289.4-729.1 289.4zm-674.1-1064.2c-13.8 30.7-201 462.3-17 750.7 113.6 178.2 346.1 268.5 691.1 268.5 345 0 577.5-90.3 691.1-268.6 184.3-289.2-3.7-721-17.1-750.7-8.7-11.5-130.2-157.6-674-157.6-541.5 0-664.4 144.8-674.1 157.7z"/><path class="d" d="m1223.6 2147.9h425c0 0-27-80-120.5-133.8-13.4-7.7-28-13-43.2-15.7-47-8.5-157.8-23.1-206.5 15.6h-54.8-54.9c-48.7-38.7-159.5-24.1-206.4-15.6-15.3 2.7-29.9 8-43.3 15.7-93.5 53.8-120.4 133.8-120.4 133.8z"/><path fill-rule="evenodd" class="a" d="m1648.6 2165.4h-850c-5.7 0-11-2.7-14.3-7.3-3.2-4.5-4.1-10.4-2.3-15.8 1.2-3.5 30.2-86.9 128.3-143.4 14.9-8.6 31.4-14.6 48.9-17.7 57.9-10.4 161.1-21.9 215.3 15.3h98.1c54.2-37.2 157.5-25.8 215.4-15.3 17.5 3.1 33.9 9.1 48.9 17.7 98 56.5 127.1 139.9 128.2 143.4 1.8 5.4 1 11.3-2.3 15.8-3.3 4.6-8.6 7.3-14.2 7.3zm-822.4-35h794.7c-14.6-26-45.3-68.8-101.5-101.2-11.5-6.6-24.1-11.1-37.6-13.6-90.6-16.3-162.5-11.8-192.5 12.1-3.1 2.5-7 3.8-10.9 3.8h-109.7c-3.9 0-7.8-1.3-10.8-3.8-30.1-23.9-102-28.4-192.5-12.1-13.6 2.5-26.2 7-37.7 13.6-56.2 32.4-86.9 75.2-101.5 101.2z"/><path class="d" d="m1223.6 2213.3c97.8 0 183.9 10.7 183.9 10.7 0 0-27.9 159.7 113.6 158.6 146-1.2 127.5-234.7 127.5-234.7-183.3-27.8-425-27.8-425-27.8 0 0-241.8 0-425 27.8 0 0-18.6 233.5 127.5 234.7 141.4 1.1 113.5-158.6 113.5-158.6 0 0 86.1-10.7 184-10.7z"/><g style="opacity:.3"><path class="a" d="m1405.9 2223.8q0-0.4 0.1-0.8c1.9-28.6-19.3-53.4-47.8-55.4-37.8-2.7-88.5-5.5-134.6-5.5-46 0-98.5 1.9-138.2 3.7-29.7 1.4-52.1 27.4-49 56.8 4.5 41.7-5.4 92.4-80.5 91.8-95.4-0.8-112.8-111.5-115.1-172.3-14.3 1.8-28.5 3.7-42.2 5.8 0 0-18.6 233.5 127.5 234.7 141.4 1.1 113.5-158.6 113.5-158.6 0 0 86.1-10.7 184-10.7 90.2 0 170.4 9.1 182.3 10.5z"/></g><g style="opacity:.3"><path class="a" d="m1648.6 2147.9c-13.8-2.1-27.9-4-42.3-5.8-2.3 60.8-19.7 171.5-115 172.3-66.2 0.6-83.8-37.8-85.5-74.9-2.8 40.1 1.1 144 115.3 143.1 146-1.2 127.5-234.7 127.5-234.7z"/></g><path class="a" d="m810.4 2276.1l129-7c14.4-0.8 27.8 7.7 33.1 21.2 8 20.1 14.1 51.6-3 86.4 0 0-122.9 45-159.1-100.6z"/><path class="a" d="m967.2 2129.9c0 0 7.9 20.4 5.5 53.3-1.3 18.9-16.7 33.9-35.7 34.8l-136.3 6.8-2.1-76.9z"/><path class="a" d="m1636.7 2276.1l-128.9-7c-14.5-0.8-27.9 7.7-33.2 21.2-7.9 20.1-14.1 51.6 3 86.4 0 0 122.9 45 159.1-100.6z"/><path class="a" d="m1479.9 2129.9c0 0-7.9 20.4-5.5 53.3 1.3 18.9 16.7 33.9 35.7 34.8l136.3 6.8 2.2-76.9z"/><path fill-rule="evenodd" class="a" d="m927.6 2400.1q-0.8 0-1.7 0c-36.9-0.3-67.6-13.7-91.5-39.7-63.9-69.8-53.8-208-53.3-213.9 0.7-8.1 6.8-14.7 14.8-15.9 182.4-27.7 425.2-28 427.7-28 2.4 0 245.2 0.3 427.6 28 8 1.2 14.2 7.8 14.8 15.9 0.5 5.9 10.7 144.1-53.3 213.9-23.8 26-54.6 39.4-91.5 39.7q-0.8 0-1.7 0c-43 0-76.4-13.7-99.3-40.7-32.2-37.9-33.8-91.8-32-119.9-29.7-3.1-94.4-8.7-164.6-8.7-70.3 0-135 5.6-164.7 8.7 1.8 28.1 0.2 82-32 119.9-22.8 27-56.3 40.7-99.3 40.7zm296-204.3c97.8 0 185.2 10.7 186.1 10.8 4.7 0.6 9 3.1 11.9 7 2.8 3.8 4 8.7 3.1 13.4-0.1 0.7-11.5 70.2 22.3 109.9 16.1 19 41 28.5 73.9 28.2 27.1-0.2 48.7-9.5 65.9-28.3 43.2-47.1 45.6-138.8 44.9-173.7-177.9-25.2-405.8-25.5-408.1-25.5-2.4 0-230.2 0.3-408.2 25.5-0.7 34.8 1.7 126.6 44.9 173.7 17.2 18.8 38.8 28.1 65.9 28.3 32.9 0.3 57.8-9.2 74-28.2 33.7-39.7 22.3-109.2 22.2-109.9-0.8-4.7 0.3-9.6 3.2-13.4 2.8-3.9 7.1-6.4 11.9-7 0.8-0.1 88.2-10.8 186.1-10.8z"/><path class="e" d="m1071.5 2054.8c1.5 8.7-8 17.6-21.1 19.9-13.2 2.3-25.1-2.9-26.6-11.6-1.5-8.7 8-17.6 21.1-19.8 13.2-2.3 25.1 2.9 26.6 11.5z"/><path fill-rule="evenodd" class="a" d="m1044.2 2081.6c-5 0-9.9-0.9-14-2.7-7-3.1-11.6-8.4-12.7-14.7-1.1-6.3 1.5-12.9 7-18.1 4.9-4.6 11.7-7.8 19.3-9.1 16.9-3 31.8 4.4 34 16.8q0 0 0 0c2.1 12.3-9.5 24.3-26.4 27.2q-3.6 0.6-7.2 0.6zm6.9-32.5q-2.5 0-5.1 0.5c-5.1 0.8-9.7 3-12.8 5.8-2.3 2.2-3.4 4.6-3.1 6.6 0.3 2 2.2 3.9 5.2 5.1 3.8 1.7 8.9 2.2 14 1.3 10-1.8 16.6-8 15.9-12.5-0.7-3.6-6.5-6.8-14.1-6.8z"/><path class="e" d="m1014.4 2083.6c1.5 8.7-8 17.6-21.1 19.8-13.2 2.3-25.1-2.9-26.6-11.5-1.5-8.7 8-17.6 21.1-19.9 13.2-2.3 25.1 2.9 26.6 11.6z"/><path fill-rule="evenodd" class="a" d="m987.1 2110.4c-5 0-9.9-1-14-2.8-7-3-11.6-8.4-12.7-14.6-1.1-6.3 1.5-12.9 7-18.1 4.9-4.6 11.8-7.9 19.3-9.2 17-2.9 31.9 4.5 34 16.8q0 0 0 0c2.1 12.4-9.4 24.3-26.3 27.2q-3.7 0.7-7.3 0.7zm6.9-32.5q-2.5 0-5.1 0.4c-5 0.9-9.7 3-12.7 5.9-2.4 2.2-3.5 4.6-3.2 6.6 0.4 2 2.2 3.8 5.2 5.1 3.8 1.7 8.9 2.1 14 1.2 10-1.7 16.7-8 15.9-12.4-0.6-3.7-6.5-6.8-14.1-6.8z"/><path class="e" d="m971.7 2051.8c1.5 8.7-8 17.6-21.1 19.8-13.2 2.3-25.1-2.9-26.6-11.5-1.5-8.7 8-17.6 21.1-19.9 13.2-2.3 25.1 2.9 26.6 11.6z"/><path fill-rule="evenodd" class="a" d="m944.3 2078.6c-13.7 0-24.8-6.9-26.6-17.5-2.1-12.3 9.4-24.3 26.3-27.2 7.6-1.3 15.2-0.5 21.3 2.1 7 3.1 11.6 8.4 12.7 14.7 1.1 6.3-1.5 12.9-7 18.1-4.9 4.6-11.7 7.8-19.3 9.1q-3.8 0.7-7.4 0.7zm7-32.5q-2.5 0-5.1 0.4c-10 1.8-16.6 8-15.9 12.5 0.8 4.4 9.1 8.1 19.2 6.3 5.1-0.8 9.7-3 12.8-5.8 2.3-2.2 3.4-4.6 3.1-6.6q0 0 0 0c-0.4-2-2.2-3.9-5.2-5.1-2.5-1.2-5.6-1.7-8.9-1.7z"/><path class="e" d="m1027.6 2023.7c1.5 8.7-8 17.5-21.1 19.8-13.2 2.3-25.1-2.9-26.6-11.6-1.5-8.6 8-17.5 21.1-19.8 13.2-2.3 25.1 2.9 26.6 11.6z"/><path fill-rule="evenodd" class="a" d="m1000.2 2050.5c-13.7 0-24.8-6.9-26.6-17.5-1.1-6.2 1.5-12.8 7-18 4.9-4.6 11.7-7.9 19.3-9.2 16.9-2.9 31.8 4.5 34 16.8 1.1 6.3-1.5 12.9-7 18.1-4.9 4.6-11.8 7.8-19.4 9.1q-3.7 0.7-7.3 0.7zm7-32.5q-2.5 0-5.1 0.4c-5.1 0.9-9.7 3-12.8 5.9-2.3 2.2-3.4 4.6-3.1 6.6 0.8 4.4 9.1 8.1 19.2 6.3 5-0.8 9.7-3 12.7-5.8 2.4-2.2 3.5-4.6 3.2-6.6-0.7-3.7-6.5-6.8-14.1-6.8z"/><path class="e" d="m1223.6 2120.1c70.5 0 121.5 2.6 121.5 2.6l-30-37c-9-11.1-22.5-17.5-36.7-17.5h-54.8-54.8c-14.3 0-27.8 6.4-36.8 17.5l-30 37c0 0 51-2.6 121.6-2.6z"/><path fill-rule="evenodd" class="a" d="m1102 2135.2c-4.7 0-9-2.6-11.2-6.9-2.2-4.4-1.6-9.7 1.5-13.5l30-37c11.4-14 28.4-22.1 46.5-22.1h109.6c18.1 0 35 8.1 46.4 22.1l30 37c3.1 3.8 3.7 9.1 1.5 13.5-2.3 4.4-6.9 7-11.8 6.9-0.5-0.1-51.6-2.6-120.9-2.6-69.4 0-120.5 2.5-121 2.6q-0.3 0-0.6 0zm121.6-27.6c39.1 0 72.5 0.8 94.4 1.5l-12.6-15.5c-6.7-8.2-16.5-12.9-27-12.9h-109.6c-10.6 0-20.4 4.7-27.1 12.9l-12.6 15.5c22-0.7 55.3-1.5 94.5-1.5z"/><path class="a" d="m1509.1 2101.3l-12.7-23.9c-0.5-0.7-1.1-1.4-1.9-1.8l-16.9-7.9c-1.1-0.5-2.5-0.5-3.7 0.1l-10 5.1c-2.1 1.1-2.9 3.7-1.8 5.8l14.1 25.2c0.7 1.3 2 2.1 3.5 2.2l25.5 1.3c3.2 0.2 5.4-3.2 3.9-6.1z"/><path class="a" d="m1431.9 2024.1l12.8 23.8c0.4 0.8 1.1 1.5 1.9 1.8l16.8 8c1.2 0.5 2.5 0.5 3.7-0.1l10.1-5.1c2.1-1.1 2.9-3.7 1.7-5.8l-14.1-25.3c-0.7-1.2-2-2-3.4-2.1l-25.5-1.4c-3.3-0.1-5.5 3.3-4 6.2z"/><path class="a" d="m1408.5 2049.1l27-0.7c0.9-0.1 1.8 0.2 2.5 0.7l15.2 10.8c1.1 0.7 1.7 1.9 1.8 3.2l0.4 11.3c0.1 2.4-1.7 4.4-4.1 4.4l-28.9 0.2c-1.5 0-2.8-0.8-3.6-2l-13.8-21.5c-1.7-2.7 0.2-6.4 3.5-6.4z"/><path class="a" d="m1530.3 2078.1l-27-0.8c-0.9 0-1.8-0.3-2.5-0.9l-14.6-11.5c-1-0.8-1.6-2-1.6-3.3l0.1-11.3c0-2.4 2-4.3 4.4-4.2l28.9 1.4c1.4 0.1 2.7 0.9 3.4 2.1l12.6 22.2c1.6 2.9-0.5 6.4-3.7 6.3z"/><path class="a" d="m1162.8 2024.4c0 11-20 19.9-44.7 19.9-24.7 0-44.7-8.9-44.7-19.9 0-11 20-19.9 44.7-19.9 24.7 0 44.7 8.9 44.7 19.9z"/><path class="f" d="m1118.1 2004.4v-38.6"/><path class="a" d="m1172.8 1958.5v-0.1c-0.1-0.3-0.2-0.5-0.3-0.8l-4.3-13.7h-0.1c-2.2-11.5-23.7-20.5-50-20.5-26.3 0-47.8 9-50 20.5l-4.4 13.7c-0.1 0.3-0.2 0.5-0.2 0.8l-0.1 0.1h0.1q-0.3 1.1-0.3 2.3c0 13.5 24.6 24.5 54.9 24.5 30.3 0 54.9-11 54.9-24.5q0-1.2-0.2-2.3z"/><path class="a" d="m1284.3 2024.4c0 11 20 19.9 44.7 19.9 24.7 0 44.7-8.9 44.7-19.9 0-11-20-19.9-44.7-19.9-24.7 0-44.7 8.9-44.7 19.9z"/><path class="f" d="m1329 2004.4v-38.6"/><path class="a" d="m1274.4 1958.5h-0.1l0.1-0.1c0-0.3 0.1-0.5 0.2-0.8l4.4-13.7c2.2-11.5 23.7-20.5 50-20.5 26.3 0 47.8 9 50 20.5l4.4 13.7c0.1 0.3 0.2 0.5 0.2 0.8l0.1 0.1q0.2 1.1 0.2 2.3c0 13.5-24.6 24.5-54.9 24.5-30.3 0-54.9-11-54.9-24.5q0-1.2 0.3-2.3z"/><g style="opacity:.3"><path class="a" d="m877.6 2063.7c0 0 170.5 165.3-43.2 262.5 0 0-49.2-134.7 43.2-262.5z"/></g><g style="opacity:.3"><path class="a" d="m1569.5 2063.7c0 0-170.5 165.3 43.2 262.5 0 0 49.2-134.7-43.2-262.5z"/></g><path class="g" d="m906.2 2759.3c72.6 18.6 141.9-39.4 136.2-114.1-10.2-134.9-35.3-317.3-96.7-339.7-98.7-36-111.3 93.3-111.3 93.3-27.7-33.1-64.2-54.3-97.9-67.9-47.6-19.2-96.8 22-86.2 72.3 7.4 35.5 22 75.2 49.7 108.3 0 0-129.5-10.2-111.3 93.3 11.3 64.3 186.6 120.9 317.5 154.5z"/><g style="opacity:.7"><path class="c" d="m655.4 2423.9c6.7-38 47.2-63.7 86.8-47.7 33.6 13.5 70.1 34.8 97.9 67.9 0 0 12.6-129.4 111.3-93.3 44 16 69.4 114.7 84 219-13.3-119.4-39.3-245.9-89.7-264.3-98.7-36-111.3 93.3-111.3 93.3-27.7-33.1-64.2-54.3-97.9-67.9-47.6-19.2-96.8 22-86.2 72.3 1.4 6.7 3.2 13.7 5.1 20.7z"/></g><g style="opacity:.3"><path class="a" d="m1042.4 2645.2c-10-132.2-34.4-310-93.1-338.1 43.6 41.9 62.6 184.4 70.8 292.5 5 66.6-56.7 118.3-121.3 101.7-116.7-29.9-272.8-80.4-282.9-137.7-2.4-13.4-1.9-24.7 0.6-34.2-20.4 13.3-34.7 36.2-27.8 75.4 11.3 64.3 186.6 120.9 317.5 154.5 72.6 18.6 141.9-39.4 136.2-114.1z"/></g><path fill-rule="evenodd" class="a" d="m934 2785.3c-11 0-22.2-1.4-33.3-4.2-84.2-21.6-153.8-44.1-207-66.9-80.1-34.3-120.5-67.9-127.1-105.5-7.5-42.4 6.6-68.6 19.8-83.1 19.8-21.7 48.4-30.9 72.3-34.6-13.7-24.4-23.9-52.2-30.4-83.2-6.8-31.9 4-63.3 28.8-84 24.8-20.8 57.6-25.9 87.8-13.8 29.4 11.9 55 26.8 76.6 44.5 7.8-22.8 21.8-49.4 46.6-65.1 16.7-10.4 44.9-19.8 85.3-5 36 13.1 61.9 58.7 81.7 143.6 13.2 56.3 23.2 128.8 29.8 215.4 3.2 43-13.8 83.4-46.8 111.1-24.1 20.2-53.6 30.8-84.1 30.8zm-243.6-251.7c-19.2 0-54.1 3.9-70.7 22.3-9.4 10.4-12.3 25.1-8.8 45 5.3 30 87.1 81.7 300.9 136.6 27.5 7 55.7 0.7 77.4-17.5 21.7-18.2 32.9-44.9 30.8-73.1-16.7-220.2-53.3-309.8-82-320.3-18.9-6.9-33.9-6.6-45.8 0.9-24.4 15.3-33.8 58.3-35.4 73.5-0.9 9-7.1 16.6-15.8 19.3-8.6 2.6-18-0.1-23.8-7-21.5-25.7-51.5-46.4-89.1-61.5-14.5-5.9-30.3-3.5-42.1 6.5-11.8 9.9-16.9 24.9-13.7 40.2 8.3 39.7 23.5 72.9 45 98.5 5.8 6.9 6.9 16.7 2.7 24.8-4.1 8-12.7 12.8-21.7 12.1-2.2-0.2-4.9-0.3-7.9-0.3z"/><path class="a" d="m712.3 2492.6c7.7 5 14.9 10.9 21.9 17.1 7 6.1 13.6 12.9 20.3 19.6 13.2 13.4 26.2 27.4 38.3 42.5-18.7-5-36.7-11.1-54.4-17.8-8.8-3.4-17.7-6.7-26.1-10.6-8.5-3.9-16.8-8-24.5-13.1-10.4-6.8-13.3-20.8-6.5-31.1 6.8-10.4 20.6-13.3 31-6.6z"/><path class="a" d="m855.1 2390c3.7 8.5 6.3 17.4 8.6 26.4 2.4 9.1 4.1 18.3 5.9 27.6 3.5 18.6 6.4 37.4 8 56.7-12.8-14.6-24.2-29.8-35.2-45.2-5.4-7.7-10.9-15.4-15.7-23.4-4.8-7.9-9.4-16-13-24.5-4.8-11.5 0.6-24.7 12.1-29.5 11.4-4.7 24.5 0.6 29.3 11.9z"/><path class="g" d="m1540.9 2759.3c-72.6 18.6-141.9-39.4-136.2-114.1 10.2-134.9 35.4-317.3 96.7-339.7 98.7-36 111.3 93.3 111.3 93.3 27.7-33.1 64.3-54.3 97.9-67.9 47.7-19.2 96.8 22 86.2 72.3-7.4 35.5-22 75.2-49.7 108.3 0 0 129.5-10.2 111.3 93.3-11.3 64.3-186.5 120.9-317.5 154.5z"/><g style="opacity:.7"><path class="c" d="m1791.7 2423.9c-6.6-38-47.2-63.7-86.7-47.7-33.7 13.5-70.2 34.8-98 67.9 0 0-12.6-129.4-111.3-93.3-44 16-69.4 114.7-84 219 13.3-119.4 39.3-245.9 89.7-264.3 98.7-36 111.3 93.3 111.3 93.3 27.7-33.1 64.3-54.3 97.9-67.9 47.7-19.2 96.8 22 86.2 72.3-1.4 6.7-3.1 13.7-5.1 20.7z"/></g><g style="opacity:.3"><path class="a" d="m1404.7 2645.2c10-132.2 34.4-310 93.1-338.1-43.6 41.9-62.5 184.4-70.8 292.5-5 66.6 56.7 118.3 121.4 101.7 116.7-29.9 272.8-80.4 282.9-137.7 2.3-13.4 1.8-24.7-0.7-34.2 20.4 13.3 34.7 36.2 27.8 75.4-11.3 64.3-186.5 120.9-317.5 154.5-72.6 18.6-141.9-39.4-136.2-114.1z"/></g><path fill-rule="evenodd" class="a" d="m1513.1 2785.3c-30.5 0-59.9-10.6-84.1-30.8-33-27.7-50-68.1-46.7-111.1 6.5-86.6 16.5-159.1 29.7-215.4 19.8-84.9 45.8-130.5 81.7-143.6 40.4-14.8 68.7-5.4 85.3 5 24.8 15.7 38.8 42.3 46.6 65.1 21.6-17.7 47.2-32.6 76.6-44.5 30.2-12.1 63-7 87.8 13.8 24.8 20.7 35.6 52.1 28.9 84-6.6 31-16.8 58.8-30.5 83.2 23.9 3.7 52.6 12.9 72.3 34.6 13.2 14.5 27.3 40.7 19.9 83.1-6.7 37.6-47.1 71.2-127.2 105.5-53.2 22.8-122.8 45.3-206.9 66.9-11.2 2.8-22.4 4.2-33.4 4.2zm20.7-463.6c-7.4 0-15.6 1.6-24.7 4.9-28.7 10.5-65.3 100.1-82 320.3-2.1 28.2 9.1 54.9 30.8 73.1 21.7 18.2 49.9 24.5 77.4 17.5 213.8-54.9 295.7-106.6 301-136.6 3.5-19.9 0.5-34.6-8.9-45.1-19.5-21.4-64.3-23-78.5-21.9-9.1 0.7-17.6-4.1-21.8-12.1-4.1-8.1-3.1-17.9 2.8-24.8 21.4-25.6 36.6-58.8 44.9-98.5 3.3-15.3-1.9-30.3-13.7-40.3-11.8-9.9-27.5-12.3-42.1-6.4-37.6 15.1-67.6 35.8-89.1 61.5-5.8 6.9-15.2 9.7-23.8 7-8.7-2.7-14.9-10.3-15.8-19.3-1.5-15.2-11-58.2-35.4-73.5-6.2-3.9-13.2-5.8-21.1-5.8z"/><path class="a" d="m1759.4 2530.3c-7.7 5.1-16.1 9.2-24.5 13.1-8.5 3.9-17.3 7.2-26.2 10.6-17.6 6.7-35.6 12.8-54.4 17.8 12.2-15.1 25.1-29.1 38.4-42.5 6.6-6.7 13.2-13.5 20.3-19.6 6.9-6.2 14.1-12.1 21.8-17.1 10.5-6.7 24.4-3.7 31.1 6.7 6.7 10.4 3.8 24.3-6.5 31z"/><path class="a" d="m1633.4 2407.6c-3.5 8.5-8.1 16.6-13 24.5-4.8 8-10.3 15.7-15.7 23.4-10.9 15.4-22.4 30.6-35.2 45.2 1.6-19.3 4.6-38.1 8-56.7 1.8-9.3 3.5-18.5 5.9-27.6 2.4-9 4.9-17.9 8.6-26.4 4.9-11.4 18.1-16.7 29.5-11.8 11.4 4.9 16.7 18 11.9 29.4z"/><path class="b" d="m858.2 2059.3c-156.1-143.2-188.3-335.6-188.3-335.6l-63.3-21.4-24 79.6c-50.3 48.2-103.3 131.4-101.1 267.2 2.9 176.2 175.5 225.8 246.2 242.7 29.1 6.9 59.9 4.3 87.1-8.2 71.1-32.7 88.7-83.2 88.6-125.3-0.1-37.9-17.3-73.4-45.2-99z"/><g style="opacity:.3"><path class="a" d="m890.7 2215.6c0 0-239.6 77.5-399-189.9-2.7-4.6-10-2.7-9.8 2.8 1.1 49.2 22.4 182.4 210.5 253 0 0 120 52.8 198.3-65.9z"/></g><path class="a" d="m692.1 1720c0.8 4.6 2.2 10.3 3.5 15.6 1.3 5.4 2.8 10.8 4.3 16.2 1.6 5.4 3.1 10.8 4.8 16.1l5.3 16c3.8 10.6 7.3 21.3 11.7 31.8 2.1 5.2 4.1 10.5 6.4 15.6l6.8 15.5c18.6 41.1 41.7 80 68.3 116.2l20.7 26.5 22.3 25.2c7.8 8 15.8 15.7 23.8 23.7 3.5 3.6 9.1 8.5 13.4 13.5 4.6 5 8.9 10.2 12.8 15.7 15.8 22 26.2 48.3 28.9 75.7 1.3 13.8 0.7 27.2-1.4 40.7-2.2 13.5-6.3 26.8-12.4 39.3-12.1 25-31.6 45.5-53.3 60-10.7 7.6-22.2 13.4-33.7 18.9-12.3 5.6-25.4 9.5-38.7 11.6-13.3 2.1-26.8 2.5-40.1 1.2q-10-1-19.8-3.3c-6.4-1.5-12-3.1-18-4.8-23.5-7.1-46.4-16.2-68.2-27.5-21.8-11.5-42.4-25.2-61.4-40.9l-14-12.1-13-13.1c-4.5-4.3-8.3-9.1-12.3-13.8l-5.9-7.1c-2-2.4-4-4.7-5.7-7.3-29.3-39.5-47.7-87.2-48.6-135.3-0.1-1.7 1.3-3.1 3-3.2 1.2 0 2.2 0.6 2.8 1.6l0.1 0.2c2.9 5.2 5.5 10.5 8.1 15.7 2.6 5.2 4.6 10.6 7.5 15.6 2.8 5 5.4 10.1 8 15.1l3.9 7.6c1.3 2.4 2.9 4.8 4.3 7.2 2.9 4.8 5.7 9.7 8.5 14.5 2.6 4.9 6.2 9.3 9.1 14l4.6 6.9c1.4 2.4 3 4.6 4.8 6.8q5 6.5 9.9 13.2c1.6 2.3 3.5 4.3 5.3 6.3l5.5 6.2c3.7 4.1 7.2 8.3 11.4 12l11.9 11.4 12.8 10.4c17.4 13.5 36.2 25.2 56.1 34.9 19.9 9.5 40.8 17.1 62.2 22.8 5.3 1.3 10.9 2.8 15.9 3.9q7.3 1.5 14.8 2.1c10 0.8 19.9 0.2 29.7-1.5 9.7-1.8 19-4.9 27.9-9.2 9.4-4.8 18.8-9.7 27-15.8 16.8-11.8 29.9-26.8 37.9-44.1 4-8.6 6.7-17.8 8.1-27.4 1.4-9.5 1.7-19.7 0.6-29-2.1-19.1-9.7-37.6-21.3-53.4-2.9-3.9-6-7.7-9.4-11.2-3.5-3.8-6.7-6.5-11.4-11.2-8.6-8.5-17.4-16.9-25.9-25.5l-24.3-27.2-22.6-28.5c-29-38.8-53.2-81-72.9-125l-7.3-16.6c-2.4-5.5-4.5-11.2-6.7-16.8-4.6-11.1-8.4-22.6-12.4-34l-5.4-17.3c-1.7-5.8-3.2-11.7-4.9-17.5-1.5-5.9-3-11.8-4.3-17.7-1.4-6.1-2.7-11.8-3.8-18.7-2.1-12.2 6.1-23.8 18.4-25.9 12-2.1 23.5 5.9 25.8 17.9z"/><path class="b" d="m1588.9 2059.3c156.1-143.2 188.4-335.6 188.4-335.6l63.2-21.4 24.1 79.6c50.3 48.2 103.2 131.4 101 267.2-2.9 176.2-175.4 225.8-246.1 242.7-29.2 6.9-59.9 4.3-87.2-8.2-71.1-32.7-88.7-83.2-88.6-125.3 0.1-37.9 17.4-73.4 45.2-99z"/><g style="opacity:.3"><path class="a" d="m1556.4 2215.6c0 0 239.7 77.5 399-189.9 2.8-4.6 10-2.7 9.9 2.8-1.2 49.2-22.5 182.4-210.6 253 0 0-119.9 52.8-198.3-65.9z"/></g><path class="a" d="m1799.4 1727.4c-1.1 6.9-2.4 12.6-3.7 18.7q-2.1 8.9-4.4 17.7c-1.6 5.8-3.2 11.7-4.9 17.5l-5.4 17.3c-4 11.4-7.8 22.9-12.4 34-2.2 5.6-4.3 11.3-6.7 16.8l-7.3 16.6c-19.7 44-43.9 86.2-72.9 125l-22.6 28.5-24.3 27.2c-8.5 8.6-17.3 17-25.9 25.5-4.7 4.7-7.9 7.4-11.3 11.2-3.4 3.5-6.6 7.3-9.5 11.2-11.6 15.8-19.2 34.3-21.3 53.4-1.1 9.3-0.8 19.5 0.6 29 1.4 9.6 4.1 18.8 8.2 27.4 7.9 17.3 21 32.3 37.8 44.1 8.2 6.1 17.6 11 27 15.8 8.9 4.3 18.2 7.4 28 9.2 9.7 1.7 19.7 2.3 29.6 1.5q7.5-0.6 14.8-2.1c5-1.1 10.6-2.6 15.9-3.9 21.4-5.7 42.3-13.3 62.2-22.8 19.9-9.7 38.7-21.4 56.1-34.9l12.8-10.4 12-11.4c4.1-3.7 7.6-7.9 11.3-12l5.5-6.2c1.9-2 3.7-4 5.3-6.3q4.9-6.7 10-13.2c1.7-2.2 3.3-4.4 4.8-6.8l4.5-6.9c2.9-4.7 6.5-9.1 9.2-14 2.8-4.8 5.5-9.7 8.4-14.5 1.5-2.4 3-4.8 4.4-7.2l3.8-7.6c2.6-5 5.3-10.1 8-15.1 2.9-5 4.9-10.4 7.5-15.6 2.6-5.2 5.2-10.5 8.1-15.7l0.2-0.2c0.8-1.5 2.7-2 4.2-1.2 1 0.6 1.6 1.7 1.6 2.8-1 48.1-19.4 95.8-48.7 135.3-1.7 2.6-3.7 4.9-5.7 7.3l-5.9 7.1c-4 4.7-7.8 9.5-12.3 13.8l-13 13.1-14 12.1c-19 15.7-39.6 29.4-61.4 40.9-21.8 11.3-44.7 20.4-68.2 27.5-6 1.7-11.6 3.3-18 4.8q-9.8 2.3-19.8 3.3c-13.3 1.3-26.8 0.9-40.1-1.2-13.3-2.1-26.4-6-38.7-11.6-11.4-5.5-22.9-11.3-33.7-18.9-21.7-14.5-41.2-35-53.3-60-6-12.5-10.1-25.8-12.3-39.3-2.2-13.5-2.8-26.9-1.5-40.7 2.7-27.4 13.1-53.7 28.9-75.7 4-5.5 8.2-10.7 12.8-15.7 4.4-5 9.9-9.9 13.5-13.5 7.9-8 16-15.7 23.8-23.7l22.2-25.2 20.7-26.5c26.7-36.2 49.8-75.1 68.3-116.2l6.9-15.5c2.3-5.1 4.2-10.4 6.3-15.6 4.4-10.5 8-21.2 11.8-31.8l5.2-16c1.7-5.3 3.2-10.7 4.8-16.1 1.6-5.4 3-10.8 4.4-16.2 1.2-5.3 2.6-11 3.5-15.6l0.1-0.6c2.3-12.2 14.1-20.2 26.3-17.8 12.1 2.3 20 13.8 17.9 25.8z"/><g style="opacity:.3"><path class="a" d="m1937.5 1717.2c-134.8 76.2-355.8 131.8-713.9 131.8-358.2 0-579.3-55.6-713.9-131.8 11.8-31.1 20.2-49.1 20.2-49.1 0 0 104-169 693.7-169 589.6 0 693.7 169 693.7 169 0 0 8.3 18 20.2 49.1z"/></g><path class="h" d="m1223.6 152.9c483.5 0 673.8 283.3 673.8 283.3l100.6-79.6c0 0-203.7-332.6-774.4-332.6-570.8 0-774.5 332.6-774.5 332.6l100.6 79.6c0 0 190.3-283.3 673.9-283.3z"/><g style="opacity:.7"><path class="c" d="m1223.6 64c473.9 0 694.8 229.3 756.1 307.1l18.3-14.5c0 0-203.7-332.6-774.4-332.6-570.8 0-774.5 332.6-774.5 332.6l18.4 14.5c61.2-77.8 282.1-307.1 756.1-307.1z"/></g><path fill-rule="evenodd" class="a" d="m1897.4 458.7q-1.7 0-3.5-0.3c-6.2-1-11.7-4.5-15.2-9.7-0.4-0.6-47.5-69.2-151.3-136.7-95.7-62.3-260.9-136.6-503.8-136.6-243 0-408.1 74.3-503.9 136.6-103.8 67.5-150.9 136.1-151.3 136.7-3.5 5.2-9 8.7-15.2 9.7-6.2 0.9-12.5-0.7-17.4-4.6l-100.7-79.6c-8.9-7-11.2-19.7-5.2-29.4 2.2-3.5 54.9-88.2 179.7-173.1 114.2-77.7 313.4-170.2 614-170.2 300.5 0 499.7 92.5 613.9 170.2 124.8 84.9 177.5 169.6 179.7 173.1 6 9.7 3.7 22.4-5.2 29.4l-100.7 79.6c-4 3.2-8.9 4.9-13.9 4.9zm-1417.7-106.6l66.1 52.2c22-26.8 69.5-77.6 147.2-128.6 101.1-66.3 275.2-145.3 530.6-145.3 255.3 0 429.4 79 530.6 145.3 77.6 51 125.1 101.8 147.2 128.6l66-52.2c-20.9-27.6-71.1-86.4-157.4-144.7-108.7-73.4-298.7-160.9-586.4-160.9-479.2 0-694.3 240.3-743.9 305.6z"/><path class="e" d="m309.4 535.6c0 0 15-64.8 60.6-124.7 36.1-47.5 97-70.7 154.5-54.9 20.9 5.8 42.9 16.8 64.2 36l-66.6 152z"/><g style="opacity:.7"><path class="c" d="m365 455.9c36.1-47.5 97-70.7 154.5-54.9 17.4 4.8 35.5 13.3 53.4 27.1l15.8-36.1c-21.3-19.2-43.3-30.2-64.2-36-57.5-15.8-118.4 7.4-154.5 54.9-45.6 59.9-60.6 124.7-60.6 124.7l10.1 0.4c9.5-23 24.2-52.1 45.5-80.1z"/></g><path fill-rule="evenodd" class="a" d="m522.1 566.5q-0.4 0-0.8 0l-212.8-8.4c-6.7-0.2-12.9-3.5-17-8.8-4-5.3-5.5-12.2-4-18.7 0.6-2.9 16.6-70.3 64.6-133.4 42.8-56.2 112.8-80.9 178.4-62.9 26.5 7.3 51.2 21.1 73.3 41 7.2 6.5 9.5 16.9 5.6 25.8l-66.7 151.9c-3.6 8.2-11.7 13.5-20.6 13.5zm-182.5-52.2l168.1 6.6 53.6-122.2c-13.4-9.8-27.8-16.9-42.7-21-47.8-13.1-99.1 5.3-130.7 46.8-24.7 32.5-39.9 66.9-48.3 89.8z"/><path class="e" d="m254.3 1011.1c0 0-279.7-11.2-223.4-295.7 51.9-262.7 344.2-170.3 344.2-170.3 0 0-84.4 84.6-120.8 466z"/><g style="opacity:.3"><path class="a" d="m259.3 866.1c0 0-188-7.6-224.7-167.1-1.3 5.3-2.6 10.8-3.7 16.4-56.3 284.5 223.4 295.7 223.4 295.7 36.4-381.4 120.8-466 120.8-466 0 0-22.6-7.2-56.3-11.8-21.8 71.2-44.7 177.4-59.5 332.8z"/></g><g style="opacity:.7"><path class="c" d="m35.9 765.4c41.4-209.6 235.9-193.2 312.8-178 15.6-31.5 26.4-42.3 26.4-42.3 0 0-292.3-92.4-344.2 170.3-9.6 48.7-9.4 89.3-2.5 123.3-0.1-22.2 2.2-46.5 7.5-73.3z"/></g><path fill-rule="evenodd" class="a" d="m254.3 1033.6q-0.5 0-0.9 0c-5.4-0.2-132.6-6.3-204.9-98.1-44.6-56.5-58-132.1-39.7-224.4 15.4-78 52.3-134.8 109.7-168.8 110.9-65.7 257.2-20.6 263.4-18.7 7.5 2.4 13.2 8.5 15.1 16.1 1.9 7.6-0.4 15.7-5.9 21.3-0.6 0.6-79.7 88.8-114.4 452.3-1.1 11.6-10.9 20.3-22.4 20.3zm8.6-481.7c-39.4 0-83.7 6.7-121.7 29.3-45.7 27.1-75.4 73.8-88.2 138.6-15.6 78.9-5.2 142.1 30.9 187.9 43.8 55.5 115 73.1 150.2 78.6 26.8-257.8 76.1-377.5 104.2-426.9-19.1-3.7-45.9-7.5-75.4-7.5z"/><path class="c" d="m367.8 1126.9c0 0-246.4 0-158.5-385.8 71.6-314.3 273.2-277.6 350.6-250.6 0 0-138.5 169.2-192.1 636.4z"/><g style="opacity:.3"><path class="a" d="m220.6 698c-4.1 13.6-7.9 27.9-11.3 43.1-87.9 385.8 158.5 385.8 158.5 385.8 7.6-65.9 16.8-125.8 27.1-180.1-23.4-1.3-180.5-18.5-174.3-248.8z"/></g><path fill-rule="evenodd" class="a" d="m367.8 1149.4c-3.5 0-87.3-0.9-145.9-74.4-57.7-72.3-69.3-186.3-34.6-338.9 29.1-127.7 82.6-213.9 159-256.2 84.7-46.8 174.8-26.8 221-10.7 7 2.4 12.3 8.1 14.3 15.2 2 7 0.4 14.6-4.3 20.3-1.3 1.6-135.1 171.7-187.1 624.7-1.3 11.4-10.9 20-22.4 20zm95.2-653.6c-30.2 0-63.3 6-94.9 23.5-64.7 35.8-110.8 112.1-136.9 226.8-31.1 136.6-22.2 240.7 25.9 300.9 29.8 37.4 68.2 50.4 91 54.9 43.8-356.1 135.9-535.3 175.7-598.6-17.7-4.2-38.5-7.5-60.8-7.5z"/><path class="e" d="m2134.6 535.6c0 0-15-64.8-60.6-124.7-36.1-47.5-97-70.7-154.5-54.9-20.9 5.8-42.9 16.8-64.2 36l66.6 152z"/><g style="opacity:.7"><path class="c" d="m2079 455.9c-36.1-47.5-97-70.7-154.5-54.9-17.4 4.8-35.5 13.3-53.4 27.1l-15.8-36.1c21.3-19.2 43.3-30.2 64.2-36 57.5-15.8 118.4 7.4 154.5 54.9 45.6 59.9 60.6 124.7 60.6 124.7l-10.1 0.4c-9.5-23-24.2-52.1-45.5-80.1z"/></g><path fill-rule="evenodd" class="a" d="m1921.9 566.5c-8.9 0-17-5.3-20.6-13.5l-66.7-151.9c-3.9-8.9-1.6-19.3 5.6-25.8 22.1-19.9 46.8-33.7 73.3-41 65.6-17.9 135.6 6.7 178.4 62.9 48 63.1 64 130.5 64.6 133.4 1.5 6.5 0 13.4-4 18.7-4.1 5.3-10.3 8.6-17 8.8l-212.7 8.4q-0.5 0-0.9 0zm-39.2-167.8l53.6 122.2 168.1-6.6c-8.4-22.9-23.6-57.3-48.3-89.8-31.6-41.5-82.9-59.9-130.7-46.8-14.9 4.1-29.3 11.2-42.7 21z"/><path class="e" d="m2189.7 1011.1c0 0 279.7-11.2 223.4-295.7-51.9-262.7-344.2-170.3-344.2-170.3 0 0 84.4 84.6 120.8 466z"/><g style="opacity:.3"><path class="a" d="m2184.7 866.1c0 0 188-7.6 224.7-167.1 1.3 5.3 2.6 10.8 3.7 16.4 56.3 284.5-223.4 295.7-223.4 295.7-36.4-381.4-120.8-466-120.8-466 0 0 22.6-7.2 56.3-11.8 21.8 71.2 44.7 177.4 59.5 332.8z"/></g><g style="opacity:.7"><path class="c" d="m2408.1 765.4c-41.4-209.6-235.9-193.2-312.8-178-15.6-31.5-26.4-42.3-26.4-42.3 0 0 292.3-92.4 344.2 170.3 9.6 48.7 9.4 89.3 2.5 123.3 0.1-22.2-2.2-46.5-7.5-73.3z"/></g><path fill-rule="evenodd" class="a" d="m2189.7 1033.6c-11.5 0-21.3-8.7-22.4-20.3-34.7-363.5-113.8-451.7-114.6-452.6-5.6-5.6-7.7-13.5-5.8-21.1 1.9-7.6 7.7-13.6 15.2-16 6.2-1.9 152.4-47 263.4 18.7 57.4 34 94.3 90.8 109.7 168.8 18.3 92.3 4.9 167.9-39.7 224.4-72.3 91.8-199.5 97.9-204.9 98.1q-0.4 0-0.9 0zm-84-474.2c28.1 49.4 77.4 169.1 104.2 426.8 35.3-5.5 106.9-23.3 150.4-78.8 36-45.7 46.3-108.9 30.8-187.6-12.9-64.8-42.6-111.5-88.3-138.6-66.4-39.5-152.4-30.5-197.1-21.8z"/><path class="c" d="m2076.2 1126.9c0 0 246.4 0 158.5-385.8-71.6-314.3-273.2-277.6-350.6-250.6 0 0 138.5 169.2 192.1 636.4z"/><g style="opacity:.3"><path class="a" d="m2223.4 698c4.1 13.6 7.9 27.9 11.3 43.1 87.9 385.8-158.5 385.8-158.5 385.8-7.6-65.9-16.8-125.8-27.1-180.1 23.4-1.3 180.5-18.5 174.3-248.8z"/></g><path fill-rule="evenodd" class="a" d="m2076.2 1149.4c-11.5 0-21.1-8.6-22.4-20-52-453-185.8-623.1-187.2-624.7-4.6-5.7-6.2-13.3-4.1-20.4 2-7 7.2-12.7 14.2-15.1 46.2-16.1 136.3-36.1 221 10.7 76.4 42.3 129.9 128.5 159 256.2 34.7 152.6 23.1 266.6-34.6 338.9-58.6 73.5-142.4 74.4-145.9 74.4zm-156-646.1c39.8 63.3 131.9 242.6 175.7 598.7 23-4.6 61.5-17.7 91.5-55.6 47.6-60.3 56.4-164.1 25.4-300.3-26.1-114.7-72.2-191-136.9-226.8-55-30.4-114-26-155.7-16z"/><path class="c" d="m1223.6 1789c-912.6 0-934.7-360.9-908.1-502.9 1.5-8.2 3.2-15.8 4.9-22.4 6.4-24.8 9.6-50.2 8.9-75.9-5.4-198.4 23.3-1034.9 894.3-1034.9 871 0 899.7 836.5 894.2 1034.9-0.7 25.7 2.5 51.1 8.9 75.9 31.1 121.2 62.5 525.3-903.1 525.3z"/><path class="f" d="m746.4 1206.6c4.6-12.2 11-22 18.6-31.6 7.7-9.3 16.6-17.7 26.7-25.1 20.1-14.4 45.3-24.8 72.8-26.3 13.7-0.7 27.6 0.8 40.9 4.4 3.3 1 6.6 2 9.8 3.1q4.8 1.9 9.4 4c6.1 2.8 11.9 6.2 17.3 9.9 21.7 15 37.7 35 45.6 58.2 2.9 8.5-1.7 17.7-10.2 20.6-3.8 1.3-7.7 1.1-11.2-0.3l-0.7-0.3c-20.6-8.2-37.5-15.8-53.4-20.6-15.9-4.8-30-6.9-45-7.2-15-0.1-31.2 2.3-48.9 6.9-17.7 4.3-36.7 11.1-57.4 17.6l-1.3 0.4c-5.6 1.7-11.4-1.4-13.2-6.9-0.7-2.3-0.6-4.7 0.2-6.8z"/><path class="a" d="m746.4 1206.6c4.6-12.2 11-22 18.6-31.6 7.7-9.3 16.6-17.7 26.7-25.1 20.1-14.4 45.3-24.8 72.8-26.3 13.7-0.7 27.6 0.8 40.9 4.4 3.3 1 6.6 2 9.8 3.1q4.8 1.9 9.4 4c6.1 2.8 11.9 6.2 17.3 9.9 21.7 15 37.7 35 45.6 58.2 2.9 8.5-1.7 17.7-10.2 20.6-3.8 1.3-7.7 1.1-11.2-0.3l-0.7-0.3c-20.6-8.2-37.5-15.8-53.4-20.6-15.9-4.8-30-6.9-45-7.2-15-0.1-31.2 2.3-48.9 6.9-17.7 4.3-36.7 11.1-57.4 17.6l-1.3 0.4c-5.6 1.7-11.4-1.4-13.2-6.9-0.7-2.3-0.6-4.7 0.2-6.8z"/><path class="a" d="m1686.4 1219.9c-20.6-6.5-39.6-13.3-57.3-17.6-17.7-4.6-34-7-49-6.9-15 0.3-29.1 2.4-45 7.2-15.9 4.8-32.8 12.4-53.3 20.6l-0.8 0.3c-8.3 3.4-17.7-0.7-21.1-9-1.5-3.8-1.5-7.8-0.3-11.3 7.9-23.2 24-43.2 45.6-58.2 5.4-3.7 11.2-7.1 17.4-9.9q4.6-2.1 9.3-4c3.2-1.1 6.5-2.1 9.8-3.1 13.3-3.6 27.2-5.1 40.9-4.4 27.5 1.5 52.8 11.9 72.9 26.3 10 7.4 18.9 15.8 26.6 25.1 7.6 9.6 14 19.4 18.6 31.6 2 5.4-0.7 11.4-6.1 13.5-2.3 0.8-4.7 0.9-6.9 0.2z"/><path class="a" d="m744.4 1206.6c4.6-12.2 11-22 18.6-31.6 7.7-9.3 16.6-17.7 26.7-25.1 20.1-14.4 45.3-24.8 72.8-26.3 13.7-0.7 27.6 0.8 40.9 4.4 3.3 1 6.6 2 9.8 3.1q4.8 1.9 9.4 4c6.1 2.8 11.9 6.2 17.3 9.9 21.7 15 37.7 35 45.6 58.2 2.9 8.5-1.7 17.7-10.2 20.6-3.8 1.3-7.7 1.1-11.2-0.3l-0.7-0.3c-20.6-8.2-37.5-15.8-53.4-20.6-15.9-4.8-30-6.9-45-7.2-15-0.1-31.2 2.3-48.9 6.9-17.7 4.3-36.7 11.1-57.4 17.6l-1.3 0.4c-5.6 1.7-11.4-1.4-13.2-6.9-0.7-2.3-0.6-4.7 0.2-6.8z"/><path class="a" d="m1684.4 1219.9c-20.6-6.5-39.6-13.3-57.3-17.6-17.7-4.6-34-7-49-6.9-15 0.3-29.1 2.4-45 7.2-15.9 4.8-32.8 12.4-53.3 20.6l-0.8 0.3c-8.3 3.4-17.7-0.7-21.1-9-1.5-3.8-1.5-7.8-0.3-11.3 7.9-23.2 24-43.2 45.6-58.2 5.4-3.7 11.2-7.1 17.4-9.9q4.6-2.1 9.3-4c3.2-1.1 6.5-2.1 9.8-3.1 13.3-3.6 27.2-5.1 40.9-4.4 27.5 1.5 52.8 11.9 72.9 26.3 10 7.4 18.9 15.8 26.6 25.1 7.6 9.6 14 19.4 18.6 31.6 2 5.4-0.7 11.4-6.1 13.5-2.3 0.8-4.7 0.9-6.9 0.2z"/><path class="b" d="m2126.7 1263.7c-6.4-24.8-9.6-50.2-8.9-75.9 5.5-198.4-23.2-1034.9-894.2-1034.9-871 0-899.7 836.5-894.3 1034.9 0.7 25.7-2.5 51.1-8.9 75.9-1.7 6.6-3.4 14.2-4.9 22.4 84.5 21.6 219.9 23.5 234.5-178.6 20.9-289.4 250.7-289.2 250.7-289.2 0 0 336.9-23.9 281 577.9h141.9 141.9c-56-601.8 280.9-577.9 280.9-577.9 0 0 229.9-0.2 250.7 289.2 14.6 202.1 150.1 200.2 234.6 178.6-1.6-8.2-3.3-15.8-5-22.4z"/><g style="opacity:.7"><path class="c" d="m1222 153c-860.4 1.5-897.4 817.9-892.5 1029 4.2-231 70.3-777.3 587.2-932.3 4-1.2 8.4-0.4 11.4 2.6 20 19.8 78.6 28.9 145.8 20.6 69.5-8.7 125.5-33.2 137.7-58.3 1.9-4 5.9-6.6 10.4-6.6q0.1 0 0.1 0c798.4-1.5 890.4 701.1 896.2 971.1 4.1-210.4-35.2-1027.7-896.3-1026.1z"/></g><g style="opacity:.3"><path class="a" d="m2126.7 1263.7c-6.4-24.8-9.6-50.2-8.9-75.9 5-181.8-18.7-899.5-693.1-1018.2 627.6 118.1 649.8 790.5 645.1 961.6-0.7 24.2 2.4 48.3 8.4 71.8 29.4 114.7 59.2 479.9-854.6 479.9-863.6 0-884.5-324.3-859.4-458.7 1.5-7.8 3.1-14.9 4.7-21.2 6.1-23.5 9.1-47.6 8.4-71.8-4.7-171.1 17.5-843.6 645.1-961.6-674.4 118.7-698.1 836.4-693.1 1018.2 0.7 25.7-2.5 51.1-8.9 75.9-1.7 6.6-3.4 14.2-4.9 22.4-26.6 142-4.5 502.9 908.1 502.9 965.6 0 934.2-404.1 903.1-525.3z"/></g><path class="g" d="m1423.6 1370c0 0-6.8 165.3-200 258.3-98.8-47.6-148.9-114-174.2-167.6-24.2-51.2-25.8-90.7-25.8-90.7z"/><g style="opacity:.3"><path class="a" d="m1223.6 1370h-200c0 0 1.6 39.5 25.8 90.7 45 27.2 105.2 54.9 174.2 64.7 69-9.8 129.1-37.5 174.1-64.7 24.3-51.2 25.9-90.7 25.9-90.7z"/></g><path class="a" d="m1223.6 1366.9h141.9c0 0-4.8 117.3-141.9 183.2-137.1-65.9-142-183.2-142-183.2z"/><path fill-rule="evenodd" class="a" d="m1223.6 1650.8c-3.4 0-6.7-0.8-9.8-2.2-203-97.7-212.4-270.4-212.7-277.7-0.3-6.1 2-12 6.2-16.5 4.3-4.4 10.1-6.9 16.3-6.9h400c6.1 0 12 2.5 16.2 6.9 4.2 4.5 6.5 10.4 6.2 16.5-0.3 7.3-9.6 180-212.7 277.7-3.1 1.4-6.4 2.2-9.7 2.2zm-174.2-258.3c9.5 45 44.5 144.4 174.2 210.7 129.5-66.3 164.6-165.6 174.1-210.7z"/><path class="g" d="m1223.6 1426.9c123.5-10.8 200-56.5 200-56.5-48.3-76.9-200-120.3-200-120.3 0 0-151.8 43.4-200 120.3 0 0 76.4 45.7 200 56.5z"/><g style="opacity:.7"><path class="c" d="m1223.6 1295.1c0 0 110.5 31.6 172.9 88.7 17.6-7.8 27.1-13.4 27.1-13.4-48.3-76.9-200-120.3-200-120.3 0 0-151.8 43.4-200 120.3 0 0 9.4 5.6 27 13.4 62.4-57.1 173-88.7 173-88.7z"/></g><path fill-rule="evenodd" class="a" d="m1223.6 1449.4q-1 0-2-0.1c-127.3-11.1-206.3-57.7-209.6-59.6-5.2-3.2-8.9-8.2-10.3-14.1-1.4-5.9-0.4-12.1 2.8-17.2 52.2-83.2 206.3-128.1 212.9-130 4-1.1 8.3-1.1 12.4 0 6.5 1.9 160.6 46.8 212.8 130 3.2 5.1 4.3 11.3 2.8 17.2-1.4 5.9-5.1 10.9-10.3 14.1-3.3 1.9-82.3 48.5-209.6 59.6q-1 0.1-1.9 0.1zm-165.3-86.9c30.1 13.5 88.1 34.8 165.3 41.8 77-7 135-28.3 165.1-41.7-43-44.4-126.4-77.1-165.1-89-24.6 7.8-118 39.7-165.3 88.9z"/><path fill-rule="evenodd" class="a" d="m1223.6 1811.5c-444.6 0-735.6-84.6-865.1-251.5-89.8-115.9-76.1-238.9-59.9-301.9 6.1-23.6 8.9-47 8.2-69.6-3.3-123 6.1-545.3 269.9-816.4 156-160.4 373.7-241.7 646.9-241.7 273.2 0 490.8 81.3 646.8 241.7 263.8 271.1 273.3 693.4 269.9 816.4-0.6 22.6 2.1 46 8.2 69.6 16.2 63 29.9 186.1-59.9 301.9-129.4 166.9-420.5 251.5-865 251.5zm0-1636.1c-260.6 0-467.4 76.8-614.7 228.1-251.4 258.4-260.3 665.2-257.1 783.7 0.8 26.8-2.5 54.4-9.6 82.1-14.1 55-26.2 162.4 51.9 263.1 52.9 68.2 138.8 122.4 255.5 161.3 145 48.3 338.2 72.8 574 72.8 235.8 0 428.9-24.5 573.9-72.8 116.7-38.9 202.7-93.1 255.5-161.3 78.1-100.7 66-208.1 51.9-263.1-7.1-27.7-10.3-55.3-9.6-82.1 3.3-118.5-5.7-525.3-257.1-783.7-147.3-151.3-354-228.1-614.6-228.1z"/></svg>