<svg version="1.2" xmlns="http://www.w3.org/2000/svg" viewBox="0 0 2861 2462" width="2861" height="2462"><defs><linearGradient id="P" gradientUnits="userSpaceOnUse"/><linearGradient id="g1" x2="1" href="#P" gradientTransform="matrix(-1999.591,0,0,-677.81,2580.131,1561.039)"><stop stop-color="#ffe0e5"/><stop offset=".42" stop-color="#e6b2ba"/><stop offset=".42" stop-color="#e6b2ba"/><stop offset="1" stop-color="#e7d0d4"/></linearGradient><linearGradient id="g2" x2="1" href="#P" gradientTransform="matrix(-204.52,-505.523,89.399,-36.168,1567.639,2308.93)"><stop stop-color="#fff"/><stop offset="1" stop-color="#fff"/></linearGradient><linearGradient id="g3" x2="1" href="#P" gradientTransform="matrix(-207.391,-512.621,177.87,-71.961,2084.39,2350.606)"><stop stop-color="#fff"/><stop offset="1" stop-color="#fff"/></linearGradient><linearGradient id="g4" x2="1" href="#P" gradientTransform="matrix(-213.668,-498.207,45.513,-19.519,1572.583,2247.955)"><stop stop-color="#fff"/><stop offset="1" stop-color="#fff"/></linearGradient></defs><style>.a{fill:url(#g1)}.b{fill:#fe094e}.c{opacity:.5;fill:url(#g2)}.d{opacity:.5;fill:url(#g3)}.e{opacity:.5;fill:url(#g4)}.f{fill:#fff}.g{fill:#fdd301}.h{fill:#77778e}</style><path class="a" d="m148 2084.7c31.7 111 189.1 175.6 444.9 204 43.1 178.2 427.9 179.2 599.7 109.5 194 85.8 537.4 39.6 627.1-45.1 86.3 19.5 160.1 29.4 222.9 31.1 43.3 1.1 81.3-1.7 114.9-7.8 60.2-11.2 105.9-33.4 140.2-64.1 91.1 12.1 160.7 10.9 211.8-1.8 49.1-12.3 79.9-49.6 100-71.2 12.7 2.3 46.4 6.4 80-14.3 40.2-24.7 64.1-75 63.1-130.2q-0.9-210.8-1.8-421.6-0.2-56.1-0.5-112.2c-862.9 30.8-1725.8 61.5-2588.8 92.2l-4.7 150.4z"/><g style="opacity:.2"><path class="b" d="m156.8 1803.6c72.3 38.7 195.6 71 375.8 86.3 18.6 1.6 35.9 11.8 48.1 28.4 9.7 13.3 20.6 25.6 32.9 37 37.6 34.8 83.8 54.1 131.4 58 710.3 57.2 1144.9 36.6 1106.1-117.7 280.3 45 500.6 62 480.9-32.6 140 1.4 266.7-13.7 366.2-63.1 11.2-5.6 20.7-15.8 25.5-29.1 11.2-30.9-7.1-56.4-46.9-77.7 23-5.5 43.4-12.1 61.2-19.9q-0.3-56.1-0.5-112.2c-858.7 30.8-1717.3 61.5-2576 92.2z"/></g><path class="c" d="m1120.7 2418.2l-183.1-482.3-109.5-7.4 204.1 507.1z"/><path class="d" d="m1726.1 2403l-165.1-457.4-172.5 5.9 168.8 489.3z"/><path class="e" d="m994.6 2435.6l-201.2-509.7q-21.5-3.7-43-7.5 103.5 261.2 207 522.4z"/><path fill-rule="evenodd" class="b" d="m1452.1 2460.7c-99.4 0-190.7-15.3-259.8-44.4-136 52.4-377.5 62.1-514.6-8.2-51-26.1-83.8-61.1-97.9-104.1-269-31.2-415.6-101.5-447.9-214.7q-0.7-2.5-0.6-5.1l13.5-431.5c0.3-8.8 7.3-15.9 16.1-16.2l2588.8-92.2c4.5-0.1 9 1.5 12.2 4.7 3.3 3.1 5.1 7.5 5.2 12l2.2 533.7c1.2 61.4-26.1 116.9-71 144.6-30.9 18.9-62.2 20-82.4 17.8-21.2 23.2-53 57.3-102.4 69.6-52.5 13.1-123.3 14.2-210.5 3.2-93.4 78.3-250.1 91.9-478.6 41.4-49.9 41.1-154.7 73.4-277.6 84.9-32 3.1-63.7 4.5-94.7 4.5zm-259.5-79.3c2.3 0 4.6 0.5 6.7 1.5 85.8 37.9 211.4 52.5 344.4 40 119.9-11.3 223.7-43.5 264.5-82 4.1-3.8 9.8-5.4 15.2-4.1 226.6 51.2 378.1 39.1 463.2-37 3.6-3.2 8.5-4.7 13.3-4.1 86.5 11.5 155.6 11 205.5-1.5 40.3-10 67.1-39.3 86.7-60.7q2.7-2.9 5.1-5.6c3.9-4.2 9.6-6.1 15.3-5.1 14 2.6 41.6 4.4 68.2-12.1 35-21.4 56.1-65.8 55.1-115.6l-2.1-516.7-27.3 1-2528.6 90-13 413.2c29.9 97.4 174.5 161.1 429.9 189.4 7 0.8 12.8 5.9 14.4 12.7 9.3 38.4 37.5 69.9 83.8 93.6 127.6 65.4 365.7 56.2 493.4 4.4 2-0.9 4.1-1.3 6.3-1.3z"/><path class="f" d="m2474.3 1495.1c109.6-17.7 202.4-10.4 264.4 42.7 13 11.1 15.7 31.4 5.9 45.9-19.6 28.7-61.2 48.6-120.1 61.7 37.8 18.7 55.1 41 44.5 68.1-4.5 11.6-13.5 20.5-24.2 25.4-94.3 43.3-214.4 56.6-347.1 55.3 18.6 83-190.1 68-455.8 28.7 36.8 135.1-375.2 153.2-1048.5 103-45.1-3.3-88.9-20.3-124.6-50.8-11.6-9.9-21.9-20.8-31.1-32.4-11.6-14.6-28-23.5-45.7-24.9-469.5-36.9-531.4-185.6-301.9-258.3z"/><path fill-rule="evenodd" class="b" d="m1367.2 1968.2c-143.6 0-330.7-7.4-575-25.6-50.3-3.7-96.7-22.7-134.3-54.8-12.1-10.3-23.3-22-33.3-34.6-8.7-11-20.8-17.6-33.9-18.7-273.9-21.5-436.5-82.1-446.1-166.1-5.8-50 44.1-94.3 140.4-124.8q2.2-0.8 4.6-0.8l2183.1-64.4c126-20.2 216.6-4.9 276.9 46.7 19.5 16.7 23.4 46.6 8.8 68-17.1 25.2-47.7 44.6-93.2 58.8 27.4 24.2 26.6 49.1 19.4 67.6-6 15.4-17.6 27.7-32.8 34.7-84.3 38.7-191.6 56.8-336.7 56.9-1.3 10.1-5.7 19.3-12.9 27.1-39.5 42.5-167.9 43.9-441.4 4.3-0.8 14.9-6.3 28.8-16.4 41-32.7 39.6-122.6 84.7-477.2 84.7zm-1074.3-392c-74.5 24-118.6 57.8-115.1 88.4 6 52.1 136.8 114.6 415.6 136.6 22.1 1.7 43 13.1 57.4 31.1 8.7 11 18.4 21.1 28.9 30.1 32.1 27.4 71.8 43.6 114.9 46.9 300.4 22.3 538.1 30 706.8 22.9 222.2-9.4 295.1-43.3 317.2-70 8.5-10.4 10.8-21.5 7.2-35-1.5-5.4-0.2-11.2 3.6-15.5 3.7-4.2 9.4-6.2 15-5.4 96 14.2 388.2 57.6 433.2 9.1 3.1-3.3 5.9-7.9 3.8-17.5-1.1-5 0.1-10.2 3.3-14.2 3.2-4 8.1-6 13.2-6.2 146.9 1.4 258-16.2 339.9-53.8 7.3-3.3 12.8-9.1 15.6-16.3 2.6-6.7 9.5-24.3-36.3-47-6.4-3.2-10-10-9.2-17 0.9-7.1 6.1-12.8 13-14.4 56.7-12.5 93.7-31 109.8-54.7 5-7.3 3.7-18.2-2.9-23.7-52.5-45-134.6-57.8-250.9-39q-1 0.2-2.1 0.3zm2181.3-81.1h0.1z"/><path class="b" d="m2593.1 2235.9c35.7-153.7 47.3-312.6 52-470.3 0.2-6.9 10.8-7.4 11.1 0 2.7 159.5-1.5 319.5-30.3 477.2-4.9 22-37.2 15.4-32.8-6.9z"/><path class="b" d="m2314.4 1793.7c0 89.3-4.3 178.8-16.8 267.3-0.7 4.7-5 8-9.7 7.3-4.5-0.7-7.7-4.7-7.3-9.2 7-88 5.8-176.3 0.4-264.4-0.7-22.7 32.6-23.8 33.4-1z"/><path class="b" d="m1858.3 1819.7c8.6 61.1-2 119.7-10.4 179.1-8.8 57.8-17.7 115.2-19.7 173.2-0.1 3.3-2.8 5.9-6.1 5.8-3.1-0.1-5.6-2.7-5.7-5.8-1.7-58.9 3.8-117.8 9-175.9 4.5-56.2 11.3-115.4 0.1-170.1-4.5-22.5 28.6-29 32.8-6.3z"/><path class="b" d="m1140.6 2398.1c49.3-10.9 50.3-92.6 54.3-134.7 3.3-57.9 3.6-116.5 6.9-174.6 0.7-9.8 15.3-9.7 15.5 0.5-0.1 29 0.4 58.1 1 87.2 0.5 59.1 5.1 118.9-6.9 177.5-5.1 23.3-16.3 50.1-37.8 64.9-13.2 8.8-38.2 21.8-45.6 0.2-2.7-9.3 3.1-19 12.6-21z"/><path class="b" d="m731.6 1909.2c-17 76.1-21.4 155.1-21.5 233.3-0.1 5.7-8.5 6.2-9.1 0.4-6-79.4-7.6-159.4 3.9-238.7 1-7.5 8-12.6 15.4-11.5 7.8 1.1 13.1 8.8 11.3 16.5z"/><path class="b" d="m599 2342.6c-9.7-18.9-10.3-36.2-11.3-55.5-0.6-17.3 0.2-34 1.2-50.7 7.1-98.8 21.6-196.4 30.2-294.9 0.9-8.8 14.4-8.3 14.1 1-3.7 98.4-13.4 196.8-15.7 295 0.6 28.8-2 62.5 10.4 88.2 11.5 19.7-17.3 36.7-28.9 16.9z"/><g style="opacity:.3"><path class="b" d="m1430.4 2434.8c-63.6 7.2-124.7-38.6-159.1-98.3-34.4-59.8-47-131.5-56.2-201.7 4.8 77.7-2.6 156.4-21.7 231.4-1.8 7.2-3.8 15-1.8 22.2 3.5 12.4 16.6 17.5 28 20.5 67.6 17.7 137.4 25.2 206.8 22.2z"/></g><g style="opacity:.3"><path class="b" d="m607.2 2048.9c-0.8 58.9-26 116.8-67.1 154.8-41.1 37.9-97.5 55.1-150.6 46q89.9 16.4 179.8 32.9c11.1 2 24.3 3.2 31.7-6.1 4.7-6.1 5.3-14.7 5.6-22.7q4.2-101.7 8.4-203.4z"/></g><g style="opacity:.3"><path class="b" d="m1782.1 2289.7c25.8-58.7 33.5-124.2 40.8-188.6q0 9.4-0.1 18.7c0.4-4.2 0.9-8.3 1.3-12.5-1.1 65.8 10.8 131.9 34.8 192.2 10.7 26.9 27.1 55.5 53.5 60.8l10.5 6c-28.3-0.2-56.6-3.1-84.4-8.8-7.9-1.6-16.2-3.8-21.5-10.2-0.6-0.7-1.1-1.5-1.6-2.3-1.2 3.6-2.6 7.1-4.4 10.4-13.3 25.6-40.9 39.2-68 44.8-27 5.6-55 5.1-81.9 11.1l-12.3 0.4c59.9-11.6 107.5-63.3 133.3-122z"/></g><g style="opacity:.3"><path class="b" d="m2426.3 2318.8c-50.3-15.1-87.9-63.1-107.7-115.9-19.7-52.9-24.3-110.9-28.6-167.8-7.1 51.5-0.2 103.9 0.8 156 1.1 52.1-4.6 107.2-33 149 11.3-16.7 29.1-28 48-30.5 38-4.9 78 24.1 113.1 7.2z"/></g><g style="opacity:.2"><path class="b" d="m2563.6 1569.8c-95.8 115-254.2 156.8-403.5 166.5-149.4 9.8-301-6-447.9 22.5-69.2 13.5-136.4 36.6-206 47.8-118.4 19.1-239.4 3.1-358.3-12.8q-310.1-41.7-620.3-83.3c-57.6-7.7-118.6-15-171.8 8.2-35.7 15.6-68.2 44.8-107.2 42.9-39.6-2-71.5-38.9-76.8-78.2-5.3-39.4 11.4-79 35.8-110.3 67.9-87.3 185.3-116.6 294.4-135.6 451.3-78.5 912.5-74.9 1370.6-71.1 117.4 1 236.5 2.2 349.5 34.2 113 31.9 221.2 98.8 277 202.1z"/></g><path class="g" d="m83.8 1668.4c-6.9 18.2-5.8 34.9 0.6 48.4 2.3 4.9 5.3 9.4 8.8 13.4 1.4 1.5 2.8 3 4.3 4.4 12.1 11.1 28.9 17.4 46.5 16.6 8.9-0.3 17.9-2.5 26.6-6.7-3.6 18.1-0.5 34.5 7 47.7 1.6 2.7 3.2 5.2 5.2 7.4 21.7 26.6 64.5 25.5 85.6-3.7 54.2-75 93.4-157.2 122.3-244.3-7.4-9.7-14.1-20.2-20.4-30.6-25-41.2-47.4-84-69.1-127.1-8.1 0.7-16.1 1.6-24 2.5-4 0.5-8.1 1-12.1 1.6-8.8 1.2-17.5 2.5-26 4.1q-8.7 1.6-17.2 3.5c-18.9 4.3-36.9 12-53.3 22.4-57.8 36.9-104.9 81-140.2 133-30.4 53.4 9.5 114.2 55.4 107.4z"/><g style="opacity:.7"><path class="f" d="m28.4 1561c35.3-52 82.4-96.1 140.2-133 16.4-10.4 34.4-18.1 53.3-22.4q8.5-1.9 17.2-3.5c8.5-1.6 17.2-2.9 26-4.1 4-0.6 8.1-1.1 12.1-1.6 7.9-0.9 15.9-1.8 24-2.5q4.5 8.9 9 17.8c-1.2 0.2-2.5 0.3-3.7 0.4-4 0.5-8.1 1-12.1 1.6-8.8 1.2-17.5 2.5-26 4.1q-8.7 1.6-17.2 3.5c-18.9 4.3-36.9 12-53.3 22.4-57.9 36.8-104.9 81-140.2 133-19.3 33.9-10.2 70.8 10.7 91.5-38.6-6.8-66.9-59.9-40-107.2z"/></g><path fill-rule="evenodd" class="b" d="m223.8 1835.4q-2 0-4-0.1c-23.8-1.2-45-14.3-56.7-34.8-5.9-10.3-9.4-21.5-10.4-33.3-23.9 3.3-48.5-3.8-66.4-20.1-18-16.5-26.1-39.1-23.5-63-17.8-3.9-34.3-15.3-45.9-32.3-20-29.2-21.2-67.2-3.1-99.1q0.3-0.5 0.7-1.1c36-53 84.9-99.3 145.1-137.7 18.4-11.7 38.1-20 58.7-24.6 24.3-5.5 52.1-9.5 84.8-12.3 5.5-0.6 10.9 1.7 14.4 6l98.3 119.2c3.5 4.2 4.7 10 3.1 15.3-32.9 111.9-77.7 206.1-136.9 288.1-13.6 18.9-35.1 29.8-58.2 29.8zm-53.2-107.6c3.7 0 7.3 1.2 10.3 3.5 5 3.9 7.4 10.3 6.1 16.5-2.6 13.1-0.8 25.6 5.2 36.1 6.1 10.8 16.8 17.3 29.4 18 13.2 0.6 25.6-5.2 33.3-15.8 55.4-76.9 97.8-165.1 129.4-269.5l-87-105.5c-27.5 2.6-51 6.2-71.7 10.9-16.7 3.7-32.9 10.5-48 20.1-56.2 35.8-101.6 78.8-135 127.8-13.6 24.4-8 48.6 1.9 63 9.5 13.9 23.3 21 36.9 19 5.9-0.9 11.7 1.4 15.5 6 3.7 4.7 4.7 10.9 2.6 16.5-7.1 18.5-3.6 36 9.4 48 14.3 13.1 36.2 15.9 54.4 7 2.4-1.1 4.9-1.6 7.3-1.6z"/><path class="b" d="m157.3 1734.4l111.7-132.6c6-7 16.8 1.1 11.7 8.8 0 0-96.7 144-96.7 144-13.7 18.8-41.1-1.7-26.7-20.2z"/><path class="b" d="m71.4 1657.2l71-63.7c6.3-5.6 15.5 2.8 10.5 9.6 0 0-56.7 76.6-56.7 76.6-15.4 19-42.3-5.4-24.8-22.5z"/><path class="h" d="m677.7 1609.9c2.2 0.2 4.3 0.6 6.5 0.9 0.8 0.1 1.7 0.2 2.5 0.3 71.7 10 143.8 16.3 216.5 19.3q27.1 1.1 54.2 1.6c160.3 2.9 322.9-10.1 487.4-36.1-222-177.1-248.1-475.5-107.7-877-6.9-13-14.3-25.4-22.2-37.1-0.7-1-1.3-1.9-2-2.8-77-112.7-198.9-168.9-333.7-177.3q-20.4-1.3-41.1-1.1-20.6 0.1-41.4 1.7c17.4-54.6 15.6-105.8 2.1-154.8-63.9-1.3-122.9 51.5-181 116.1 9.5-27.3 1.6-49.3-15-68.7-69.3 60.8-111.9 131.4-122.8 213.4-560.7 645.2-239.9 1159.9 97.7 1001.6z"/><g style="opacity:.3"><path class="b" d="m606.9 608.3c10.8-82 53.4-152.6 122.7-213.4 7.8 9.1 13.7 18.8 16.7 29.4-31.1 35.3-53.4 73.7-66 115.4-9.2 30.5-24 59-44.6 83.3-502.1 593.1-193.8 1057.1 130.8 910.9 1.7 0 3.1 0 4.8 0.1 1.3 0.5 3.1 0.6 4.7 0.8 70.5 9.5 141.5 15.5 213 18.3q26.6 1 53.3 1.5c120.6 2.1 242.5-4.6 365.5-18.9 19.2 21.4 40.4 41.5 63.9 60.2-164.5 26-327.2 39-487.5 36.1q-27.1-0.5-54.1-1.6c-72.7-3-144.9-9.3-216.5-19.3-1.7-0.2-3.4-0.3-4.8-0.9-1.7 0-3.2 0-4.9 0-337.4 157.4-657.4-357.2-97-1001.9z"/></g><g style="opacity:.6"><path class="f" d="m823.9 541.7c89.7-18.8 185.2-21 271.2 13.3 82.9 33.2 155.2 105 175.9 194.5q20.9-35.3 41.9-70.5c-77-112.7-198.9-168.9-333.7-177.3q-20.4-1.3-41.1-1.1c-39 10.8-77.3 25.1-114.2 41.1z"/></g><path class="f" d="m686.7 1611.1c89.4 12.5 179.7 19.3 270.7 20.9 1.8-15.5-0.3-29.8-1.1-37.1-4.7-39-1.8-101.1 32.9-201.3-32.9 12-77.6 23.2-130.7 23.1-16.3-0.1-31.6-1.2-45.6-3-4.4 5.8-11.1 15.6-16 28.9-5.3 14.4-5.5 25.7-6.5 31.5-7.1 39.3-29 75.6-60.4 100.1-10.8 8.5-22.8 15.6-32.9 25-3.8 3.6-7.4 7.6-10.4 11.9z"/><path fill-rule="evenodd" class="b" d="m554 1655.7c-83.5 0-160.7-38.7-216.5-112.5-136.6-180.9-119.3-542 226.6-942.1 12.1-81.5 55-155 127.7-218.8 3.3-2.9 7.7-4.4 12.2-4.1 4.4 0.3 8.6 2.4 11.5 5.8 9.9 11.6 16.6 23.6 20.2 36 49.4-50.3 102.9-90.4 163.4-89.2 7.4 0.1 13.8 5.1 15.8 12.2 13.4 48.6 14.8 95.1 4.1 141.3 194.9-7.7 351.8 74.2 432.9 226.7 2.2 4.1 2.5 9 1 13.4-140.9 403.1-106.4 691.9 102.4 858.4 5.2 4.1 7.4 10.9 5.7 17.3-1.7 6.5-7 11.3-13.5 12.3-170.5 26.9-335.5 39.2-490.4 36.3-92.8-1.6-184.5-8.7-272.7-21-1.3-0.2-2.7-0.4-4.2-0.6-42.4 19.2-85.1 28.6-126.2 28.6zm145.9-1235.5c-59.3 56.5-94.1 120.4-103.3 190.3-0.4 3.3-1.8 6.3-4 8.8-157.8 181.6-258.1 369.2-290 542.5-26.7 145-4.8 273.3 61.6 361.2 74.2 98.1 191.5 125.6 306.4 71.7 2.9-1.4 6.2-1.9 9.4-1.4l3.3 0.4q2.7 0.4 5.5 0.8c87.1 12.1 177.5 19.1 268.9 20.8 142 2.5 292.7-7.7 448.4-30.5-95.4-87.2-151.8-201.9-167.7-341.3-16.5-145.1 10.6-321 80.5-523.1-78.9-142.2-231.8-215.5-421-201.4-5.5 0.4-10.9-1.9-14.4-6.3-3.4-4.4-4.5-10.2-2.8-15.5 13.9-43.4 15.6-86.9 5.2-132.4-55.2 6.1-109.4 58.5-155.7 110-5.3 5.9-14.1 7.3-21 3.2-6.8-4-9.9-12.4-7.2-19.9 4.7-13.6 4.1-25.7-2.1-37.9z"/><path class="b" d="m994.3 519.7c-32.5 0.4-67 0.3-98.8 6.1-16 2.8-31.6 6.8-46.3 13-15.5 6-29.5 15.1-42.7 25.2-3 2.1-7.1 1.4-9.2-1.6-1.8-2.5-1.6-5.9 0.3-8.1 11.6-13.8 26-25.5 41.7-34.5 47.1-26.8 103.3-32.2 155.9-33.6 9.2-0.2 16.9 7.1 17.1 16.3 0.3 9.9-8.2 17.8-18 17.2z"/><path class="b" d="m585.8 1620c105.5-22.8 182.7-85.9 211.2-192 9.6-32.9 14.3-67.4 16.7-102.3 0.2-4.2 3.9-7.5 8.1-7.2 4 0.2 7 3.4 7.2 7.3 3.4 72.5-9.3 148.5-51 210.1-41.9 62.7-112.7 101.7-185.1 116.8-21.6 4.2-28.7-27.4-7.1-32.7z"/><path class="b" d="m765.2 437.9c-17.6 19.9-36.9 38.5-57.2 55.7-6.9 5.6-14.1 11.1-22.1 15.8-2.7 1.6-6.2 0.7-7.8-2-1-1.6-1-3.6-0.3-5.2 3.8-8.5 8.5-16.2 13.3-23.7 14.9-22.1 31.2-43.3 49.1-63 15.1-15.5 38.7 5.6 25 22.4z"/><g style="opacity:.3"><path class="b" d="m693.8 1579.9c0.9 0.1 1.7 0.2 2.6 0.3 71.6 9.4 143.8 15.3 216.5 18.1-15.4-30.8-14.8-67.8-10.7-102.2 9.4-76.5 33.7-151.3 71.6-219.6l-4.5 2.8c-28.1 43.9-87.6 68-141 56.9-2 59.1-22 117.6-57.1 166.8-21 29.5-47.3 55.5-77.4 76.9z"/></g><g style="opacity:.4"><path class="b" d="m896.5 406.3c3.6 19.9-6.7 39.9-20.3 54.8-13.6 14.9-30.7 26.3-45.1 40.5-14.4 14.1-26.6 32.5-26.3 52.7 18.9-22 44.3-38.4 72.2-46.4 4.7-1.4 9.9-2.8 12.8-6.7 2.1-2.9 2.5-6.7 2.9-10.3q4.4-40.8 8.8-81.5"/></g><g style="opacity:.6"><path class="f" d="m1237 784q-0.2-4.4-0.6-8.8-3.3 3.9-6.6 7.8z"/></g><g style="opacity:.4"><path class="b" d="m84.4 1716.8c2.3 4.9 5.3 9.4 8.8 13.4 1.4 1.5 2.8 3 4.3 4.4 10 2.7 20.8 3.3 31.6 1.1 7.5-1.4 14.3 4 14.6 11.6q0.1 2 0.3 3.9c0.9 9.3 3.8 17.7 8.1 25.1 7.2 12.1 18.3 19.8 30.7 23.3 21.1 6 45.7-0.6 60.1-19.8 54.2-72 93.4-150.9 122.4-234.6-7.5-9.4-14.1-19.5-20.5-29.5-24.4-38.7-46.4-78.8-67.6-119.3-0.5-0.9-0.9-1.8-1.4-2.8l-36.2 3.9c-0.1 1.6-0.3 3.1-0.5 4.6-3.6 36.2 1 73.3 13.8 107.5 4.4 11.9 9.9 24.4 7.2 36.8-1.7 8-6.6 15.1-11.5 21.9q-18.8 26.1-37.7 52.3c-22.4 31.1-45.8 63.1-79.8 82.2-14 7.8-30.4 12.8-46.7 14z"/></g><path class="h" d="m1355.1 1615.8c20.2 11.2 41.7 21.6 64.6 31 151.1 60.4 668.5 55.4 981.4 5.9q2.5-0.3 4.9-0.7c33.4-5.4 65.9-15.6 95.8-31.5 126.1-67.4 168.2-205.8 75.5-382.7-19.2-36.5-30.1-76.8-31.5-118-14.7-413.5-183.7-592.3-413.3-678.9-28.9-67.8-89-83.6-170.2-64.1 14.6-54.3 3.8-105-25-133.8-6.6-6.6-17.5-5.3-22.8 2.4-26.5 39.2-64 76.7-109.7 113.1-7.7 6.2-16.8 10.4-26.5 11.9-527.4 83.8-941.1 955.6-423.2 1245.4z"/><path class="f" d="m1256.5 1431.3c0 67.7 36.1 131 98.6 184.5 20.2 11.2 41.7 21.6 64.6 31 151.1 60.4 668.5 55.4 981.4 5.9 92.8-60.1 148.5-137.3 148.5-221.4 0-54.4-23.3-105.8-64.8-151.7 1.3-16.4 2-33.2 2-50.2 0-230.5-120.4-417.4-268.9-417.4-83.6 0-158.3 59.3-207.6 152.3-63.1-112.1-169.6-185.8-290.3-185.8-193.6 0-350.5 189.2-350.5 422.6 0 11.2 0.4 22.2 1.1 33.1-72 56-114.1 123.9-114.1 197.1z"/><g style="opacity:.6"><path class="f" d="m1406.7 569.3c10.7-11.7 22.7-23.4 36-34.7 10.1-8.6 20.4-16.4 30.6-23.5 92-72.4 196.1-123.4 305-140.7 9.7-1.5 18.8-5.7 26.5-11.9 45.7-36.4 83.2-73.9 109.7-113.1 5.3-7.7 16.2-9 22.8-2.4 8.8 8.9 15.9 19.7 21.1 32.1-1.4 1-2.7 2.2-3.8 3.8-26.5 39.2-64 76.7-109.7 113.1-7.7 6.2-16.8 10.4-26.5 11.9-73.8 11.7-145.4 38.9-212.6 77.8 20.1 27.6-15.7 93.7-81.4 149.4-62.8 53.3-130.6 78-157.4 58.7-220.8 272.7-303.3 669.5-67.9 889.7-314.3-234-183.6-729.5 107.6-1010.2z"/></g><g style="opacity:.6"><path class="f" d="m1989.7 368.5c13.9-2.4 61.7-9.1 102.5 20.4 10.9 7.8 19 16.7 25.1 24.8-14.9-4.7-32.3-8.9-51.8-11.1-59.7-6.9-108.9 7.4-138.4 19 10.7-10.7 22.8-22 36.6-33.3 8.9-7.3 17.6-13.8 26-19.8z"/></g><g style="opacity:.3"><path class="b" d="m2277.1 1595.7c0 0 62.7-11.7 98.9-31 49.6-26.4 70.5-78.1 81.5-105.5 7.5-18.5 23.8-65.1 5.6-239.9-5.7-54.8-12.2-97.6-16.7-125.6-32.8-204-50.4-307.9-109.5-402.3-33.6-53.6-71.2-89.6-89.6-110-28.2-31.4-78.1-76.4-164.3-110.5 9.5-2.1 33.9-8.8 39.3-25.7 8.1-25.1-30.2-57.9-60.6-70.8-43-18.3-84.9-3.3-98.5 2.2 80.7-19.2 140.5-3.3 169.3 64.3 229.6 86.6 398.6 265.4 413.3 678.9 1.4 41.2 12.3 81.5 31.5 118 92.7 176.9 50.6 315.3-75.5 382.7-29.9 15.9-62.4 26.1-95.8 31.5q-2.4 0.4-4.9 0.7c-312.9 49.5-830.3 54.5-981.4-5.9-22.9-9.4-44.4-19.8-64.6-31-14.3-8-27.8-16.5-40.7-25.4 238.8 58.9 427.7 61.6 557.3 52.9 148.2-10 405.4-47.6 405.4-47.6z"/></g><path fill-rule="evenodd" class="b" d="m1851.1 1708.1c-189 0-358.6-14.2-437.6-45.8-23.3-9.5-45.6-20.2-66.5-31.9q0 0 0 0c-101.9-57.1-173.5-138.1-212.8-240.8-35-91.8-42.8-200.6-22.4-314.9 28.7-161.3 113.2-330.3 231.7-463.7 125.7-141.5 279.2-232.8 432.2-257.1 6.6-1.1 13-4 18.6-8.4 47.2-37.7 82-73.4 106.4-109.4 5.3-8 13.8-13 23.3-13.9 9.4-0.9 18.5 2.4 25.2 9 28.8 28.9 41.3 74.9 34.5 124.2 78.5-12.3 132.6 11.9 161.2 72.4 271.9 105.1 404.6 325 417.6 691.4 1.3 38.2 11.6 76.5 29.6 110.8 46.1 88 62 172.3 45.8 243.9-15.6 69.1-59.9 124.8-128.2 161.3-30.2 16.2-64.2 27.4-101 33.3l-5 0.8c-156.7 24.7-364.3 38.8-552.6 38.8zm-487.8-107c19.7 11.1 40.9 21.2 62.8 30.2 150.3 60.1 669 52.9 972.4 4.9l5-0.8c33-5.3 63.5-15.3 90.4-29.7 125.9-67.3 151.5-201.9 68.5-360.2-20.3-38.7-31.8-81.9-33.4-125.1-12.5-354.1-140.4-565.1-402.4-663.8-4.3-1.6-7.7-4.9-9.5-9.1-23.9-56.1-71.8-73.4-150.8-54.4-5.8 1.3-11.8-0.4-15.9-4.6-4.2-4.3-5.7-10.4-4.2-16.1 12.3-46 5-90.1-19.1-115.8-26.2 38.3-62.8 75.9-111.9 115-10 8.1-21.9 13.4-34.2 15.4-291 46.2-576.4 357.3-636.3 693.6-24.1 135.2-27.7 382.7 218.6 520.5zm562.2-1346.2q0 0 0 0 0 0 0 0z"/><path class="b" d="m2110.3 381.9c50.3 57.2 29.4 98.8-41.2 112.9-14.9 3.1-29.6 5.2-44.4 6.3-4 0.3-7.5-2.7-7.8-6.8-0.3-3.4 1.9-6.5 5.1-7.5 25.6-8 55.4-15.7 76.4-31 6.2-5.2 9.6-8.9 9.1-15.5-1.9-13.7-13.4-25.5-22.4-36.4-14.3-17 10.2-38.4 25.2-22z"/><path class="b" d="m1984 307.4c2.7 50.2-7.7 109.4-63.6 124.9-6.2 1.9-10.6-6.5-5.5-10.4 39.8-29.7 34.4-68.7 35.6-114.5 1.3-21.2 32.2-21.2 33.5 0z"/><g style="opacity:.3"><path class="b" d="m2071.4 1317.4c9.9 25.5 33.9 41.3 56.2 56.1 22.2 14.7 45.6 32.3 52.9 58.8 6.8 24.5-2.6 51.6-19 70.4-16.5 18.8-39.2 30.4-62.2 38.9-26.9 10-55.5 16.2-83.9 13.6-30.8-2.9-60.2-16.3-85.3-35.1-25.1-18.8-46.3-42.9-65-68.7 25.3-5 50.8-10.1 74.7-19.8 24-9.8 46.7-24.7 62.2-46.2 9.8-13.7 16.5-29.6 26-43.5 9.6-14 23.2-26.4 39.5-27.8"/></g><path class="b" d="m1779.4 1198.9c-5.4 49.3-39.6 98.6-87.4 117.7-57.3 25.7-130.6 7.8-164.7-46.4-4.7-7.1-8.6-15.1-11.8-23-6.2-16-9.5-32.6-9.8-49-0.1-4.6 3.6-8.4 8.2-8.4 3.8-0.1 7.1 2.4 8.1 5.9 4.9 14.2 10.4 27.7 17.7 39.6 5.2 8.8 11.8 17.2 19 24.3 41.2 42 111.4 41.3 155.8 4.7 21.7-17.1 37.7-41.5 48.6-69.3 3.4-9.3 17.5-5.8 16.3 3.9z"/><path class="b" d="m2403.1 1196.9c-4 67.6-52.7 139.9-126.9 142.3-52 2.4-96-34.6-112.8-81.8-7.1-19.6-10.6-40.7-10.4-61.1 0-4.6 3.8-8.3 8.4-8.3 3.8 0.1 7 2.7 8 6.2 6.5 21.7 13.7 41.7 25.6 60.5 36.2 58.2 103.5 63.7 149.5 14.5 19.4-20.1 32.3-47 42.2-75.6 3-9.4 17.3-6.6 16.4 3.3z"/><path class="g" d="m1863.3 1446.7q7.2 5.6 15.9 10.5c7.6 4.4 14.5 9.8 20.6 16.1 39.6 40.3 111.2 54.2 160.6 22.9 3.4-2.1 7.2-3.6 11.2-4.3 19.5-3.7 35-8.8 46.9-15.1 54-28.2 36.5-78.4-8.3-107.9-8.3-5.5-15.5-12.5-20.8-20.8-56.4-88.2-102.6-90.8-160.7-21.5-8.1 9.7-19.3 16.4-31.7 19-79 17.2-78.5 66.7-33.7 101.1z"/><g style="opacity:.7"><path class="f" d="m2005.1 1288.5c-6.5 1.4-11.6 6.8-14.4 12.8-2.8 6.1-3.6 12.8-4.3 19.5-3.5 37.2-2 74.8-0.5 112.2-29.8-10.2-54.3-34.6-64.7-64.3-2.3-6.7-4-13.8-2.6-20.8 1.3-6.2 4.9-11.7 8.6-16.9 9.2-13 19.2-25.9 32.3-35 13.1-9.1 29.9-14 45.3-9.7"/></g><path fill-rule="evenodd" class="b" d="m1998.2 1525.6c-39.1 0-79.5-15.1-107.3-43.5-5.6-5.7-11.6-10.4-17.9-14-36.3-20.6-56.3-50.4-52.1-77.9 2.4-15.8 15.1-44.2 73.5-56.8 9.7-2.2 18.5-7.4 24.7-14.9 31.9-38 60.1-54.8 88.8-53 31 2 60.3 26.1 92 75.8q0 0 0 0c4.3 6.6 10 12.4 17.2 17.1 34.4 22.7 52.2 54.6 46.4 83.3-4.3 21.7-23.4 50.2-89.6 62.5-2.5 0.5-4.8 1.4-6.8 2.7-20 12.6-44.2 18.7-68.9 18.7zm5.6-235.1c-19.1 0-40.5 14.4-65.4 44.2-9.8 11.6-23.6 19.9-38.7 23.2-31.9 6.9-51.6 20.1-54 36.1-2.6 16.6 13 37.2 39.7 52.3 8.3 4.7 16.2 10.9 23.4 18.2 37.6 38.4 102.6 47.9 144.9 21.1 4.7-2.9 9.9-5 15.6-6 40.9-7.7 65.6-22.9 69.6-42.8 3.7-18.2-10.3-40.8-35.6-57.4-10.1-6.7-18.4-15-24.5-24.6-26.7-41.8-50.5-62.8-72.5-64.3q-1.2 0-2.5 0z"/><path class="b" d="m2095.8 1422.2c-66.8 69.5-144.5 62.9-192.6-22.6-1.8-3.2-0.7-7.1 2.5-8.9 2.5-1.4 5.6-1 7.7 0.9 13.2 12 26 23.9 39.6 33.4 27.5 20.3 57.1 22.3 88.6 9.9 15.7-5.9 31.3-14 47.6-21.8 5.5-2.8 11 4.7 6.6 9.1z"/><g style="opacity:.3"><path class="b" d="m1857 1433.6c1.8 2.8 4 5.3 6.3 7.6q7.2 6.1 15.9 11.4c7.6 4.7 14.5 10.6 20.6 17.4 39.5 43.6 111.1 58.6 160.5 24.8 3.4-2.3 7.2-3.9 11.2-4.7 19.5-3.9 34.9-9.5 46.9-16.3 6.3-7.3 11-16.4 11.8-26.3 1-11.4-3.6-23.3-12.1-30-8.5-6.7-20.7-7.7-29.8-1.8l-8.8 2.8c-20.3 18.1-45 31.1-71.3 33.2-26.2 2-53.7-7.8-71.2-29.1-12.6-15.4-20.5-36.8-37.9-44.9-13.8-6.4-31.2-1.8-40.6 10.7-9.4 12.5-10.1 31.9-1.5 45.2z"/></g><path class="h" d="m977.6 1276.5c-63.5 94.1-93.4 199.2-79 318.7 2.8 22.7 12.6 44 28.6 60.4 19.5 20 42.1 37 67.5 51.2 16.2 9.1 34.1 14.6 52.5 16.8 76.4 9.2 156.3 7.9 238.6-0.8 114.4 69.9 200.9 56.8 187.3-23.3-2.6-15-8.6-29.2-16.6-42.2-80-129.3-236.3-165.5-371.5-86.5 75.3-114.4-16.8-286.1-107.4-294.3z"/><g style="opacity:.6"><path class="f" d="m1464.5 1725c-2.6-14.7-8.6-28.6-16.5-41.4-74-119.5-213.3-159.4-340.8-102.1-9.3 4.2-18.7-5-15-14.5l0.2-0.3c133.5-73.5 285.7-36.3 364.2 90.8 7.9 12.7 13.8 26.7 16.4 41.4 3.5 20 0.8 35.9-7.1 47.4 0.4-6.5 0-13.6-1.4-21.3z"/></g><g style="opacity:.3"><path class="b" d="m898.7 1455.7c0.3 16.3 1.5 32.9 3.5 49.9 2.7 22.6 12.6 44 28.5 60.3 19.5 20 42.1 37 67.6 51.3 16.1 9 34.1 14.6 52.5 16.8 76.4 9.1 156.3 7.8 238.6-0.8 84.8 51.8 154.3 57.9 179 24.9 2 5.8 3.6 11.6 4.7 17.7 13.6 80.1-72.9 93.2-187.3 23.3-82.3 8.6-162.2 9.9-238.6 0.8-18.4-2.2-36.3-7.7-52.5-16.8-25.4-14.2-48-31.2-67.5-51.3-16-16.3-25.8-37.7-28.6-60.3-4.8-40.2-4.6-78.7 0.1-115.8z"/></g><path class="b" d="m1080.5 1563.1c113.5-76.5 260.3-62.1 354.7 38 5 5.1 10.6 12.8 15.4 18 0 0 3.8 4.6 3.8 4.6l3.4 4.8 13.5 19.5c13.7 22 22.1 47.5 20.5 74-1.1 31.2-25 56.7-55.5 61.8-56.8 9.3-112.6-18.7-159.2-46.7-0.1 0 10.5 2.4 10.5 2.4-65.8 5.7-132.1 7.5-198.3 2.7-34.4-2.7-70.2-4.7-100.8-22.5-44.7-25.9-94.6-60.6-104.5-114.7-20.1-116.7 13.1-241.5 85.1-334.3 3.4-4.5 9.8-5.4 14.3-1.9 4.3 3.1 5.3 9 2.7 13.4-49.5 82.5-77.4 174.9-74 270.5 0.3 13.4 1.4 27.9 2.6 41.3 2.1 19 10.2 37.3 23.3 51.2 29.1 29 64.2 56.8 105.8 63.4 15.5 2 31.9 3.4 47.5 4.5 64.1 4.1 128.7 0.9 192.8-6.9 3.8-0.5 7.4 0.4 10.5 2.4 24.7 14.5 50.5 27.2 77.1 35.1 29.5 8.2 81.5 17.2 85.1-24.3 1-18.4-5.4-37.3-15.3-53-2.6-3.6-12.5-18.6-14.7-21.8-24.5-31.5-55.3-59.2-91.7-76.2-77.8-37.5-169.5-27.7-245.6 10.1-9.9 4.9-18.2-9.2-9-15.4z"/><g style="opacity:.4"><path class="b" d="m1227.8 1520.2c-42.4-3.3-85.4 11.2-121.5 40.9-24.2-129.2-14.6-269.2 26.7-390.3-17.1 128.2 17.9 266.7 89.8 355"/></g><path class="b" d="m2688.6 640.5h-114.3c-5.1 0-9.8-3.2-11.7-8-1.9-4.8-0.7-10.3 3.1-13.8l90.9-85.2h-82.3c-6.9 0-12.6-5.6-12.6-12.6 0-6.9 5.7-12.6 12.6-12.6h114.3c5.1 0 9.8 3.2 11.7 8 1.9 4.8 0.7 10.3-3.1 13.8l-90.9 85.2h82.3c6.9 0 12.6 5.6 12.6 12.6 0 6.9-5.7 12.6-12.6 12.6z"/><path class="b" d="m2833.5 400.9q-0.6 0-1.2 0l-145.7-11.2c-6.6-0.5-12.2-5-14.2-11.3-1.9-6.4 0.2-13.3 5.4-17.4l124.2-99.7-104.9-8.1c-8.9-0.6-15.6-8.4-14.9-17.3 0.7-8.9 8.4-15.5 17.4-14.8l145.6 11.1c6.6 0.5 12.3 5 14.2 11.4 2 6.3-0.1 13.2-5.3 17.3l-124.3 99.7 105 8.1c8.9 0.7 15.5 8.4 14.8 17.3-0.6 8.5-7.7 14.9-16.1 14.9z"/><path class="b" d="m2457.5 190.4c-5.7 0-11.1-3-14-8-3.3-5.8-2.8-13 1.3-18.2l98.8-124.9-104.1 15.6c-8.8 1.3-17-4.7-18.3-13.6-1.4-8.8 4.7-17 13.5-18.3l144.5-21.7c6.6-1 13 2.1 16.4 7.8 3.3 5.8 2.8 12.9-1.3 18.1l-98.9 125 104.1-15.6c8.9-1.3 17.1 4.7 18.4 13.5 1.3 8.9-4.7 17.1-13.6 18.4l-144.4 21.7q-1.2 0.2-2.4 0.2z"/></svg>