<svg version="1.2" xmlns="http://www.w3.org/2000/svg" viewBox="0 0 2128 3038" width="2128" height="3038"><style>.a{fill:#ffc869}.b{fill:#fe094e}.c{fill:#bda7ad}.d{fill:#fff}.e{fill:#ffc4a4}.f{fill:#c7043b}.g{fill:#c8063d}.h{fill:#ff0068}</style><path class="a" d="m1137.9 2874.1c-31.4 48.9-113.9 42.7-113.9 42.7-329 170.9-294.8 59.9-294.8 59.9-175.2 55.5-120.4-64.1-120.4-64.1l-15.4-6.6c-18.5-7.8-24.2-31.2-11.3-46.6 11-13 22.4-24.6 34-35.1 97.4-86.9 211.4-86.9 211.4-86.9-24.9-26.4-48.1-58.6-67.2-88.1-30.5-46.9-50.7-87.1-50.7-87.1l429.7 38.5c-24.2 136.7 37.1 213.6-1.4 273.4z"/><path class="a" d="m1712.8 2563.6c0 0-54.7 106.4-119.4 174.1 0 0 142.7 1.3 244.2 124.3 12.7 15.4 6.8 38.9-11.7 46.5l-15.5 6.4c0 0 53.7 120.1-120.9 63 0 0 33.1 111.4-294.3-62.5 0 0-82.5 5.4-113.5-43.8-37.9-60.2 24-136.5 1-273.4z"/><path fill-rule="evenodd" class="b" d="m767.5 3035.9c-23.8 0-37.1-6.6-46-14-5.4-4.5-9.3-9.7-11.9-15-57.6 14.4-96.2 9.7-117.4-14.4-18.2-20.5-16.9-47.6-12.6-66.7-13.4-7.2-23.1-19.7-26.7-34.8-4-16.7 0-33.7 11.1-46.9 72.3-86 162.5-115.3 216.5-125.3-51.5-65.8-90.2-142.1-92.1-145.9-3.9-7.7-3.3-16.9 1.5-24 4.9-7.2 13.2-11.1 21.8-10.3l429.8 38.4c6.6 0.6 12.7 4 16.7 9.3 4 5.2 5.7 12 4.5 18.5-11.3 63.9-2.9 113.2 4.5 156.7 8.1 47 15 87.6-9.3 125.4-32.9 51.3-105.4 54.3-128.5 53.9-143.7 74.2-219.5 95.1-261.9 95.1zm-15.5-52.6c-0.1 0.8-0.1 1.9 0.1 2.4 0.1 0 32.5 28.8 261-89.9 3.9-2.1 8.3-3 12.7-2.6 19 1.3 72.8-1.8 92.2-31.9 13.7-21.3 10-47.5 2.5-91.8-6.8-39.5-15-87.5-8.2-147.4l-360.5-32.3c20.9 36.4 55.4 91.2 93 131.4 6.5 6.9 8.2 17 4.4 25.6-3.7 8.7-12.3 14.3-21.7 14.3-1.3 0-133.4 2-227.2 113.6-1.6 1.9-1.6 3.9-1.2 5.3 0.2 1.1 1.1 3.1 3.5 4.2l15.4 6.5c5.9 2.5 10.6 7.3 12.9 13.3 2.3 5.9 2.1 12.6-0.5 18.4-4.3 9.6-9.6 31-2.6 38.7 7.3 8.2 36.4 11.3 94.2-7.1 8.7-2.7 18.5-1 24.7 5.6 6.2 6.6 8.4 15.3 5.3 23.7zm-0.1 0.3q0 0 0 0 0 0 0 0z"/><path fill-rule="evenodd" class="b" d="m1651.8 3037.7c-42.2 0-117.9-21.3-262.2-97.4-23.1 0.3-95.6-3.5-128-55-24-38.1-16.7-78.6-8.2-125.6 7.8-43.4 16.7-92.6 5.9-156.6-1.1-6.6 0.6-13.3 4.7-18.5 4.1-5.3 10.2-8.6 16.8-9.1l430.1-34.5c8.6-0.7 16.9 3.3 21.7 10.5 4.8 7.1 5.3 16.3 1.3 24-1.9 3.8-41.3 79.7-93.4 145.1 53.9 10.4 143.9 40.6 215.4 127.3 10.9 13.2 14.8 30.3 10.6 47-3.8 15-13.5 27.4-27 34.4 4.1 19.2 5.2 46.3-13.2 66.7-21.4 23.8-60 28.2-117.5 13.3-2.7 5.3-6.6 10.4-12.1 14.9-8.8 7.2-21.9 13.5-44.9 13.5zm-256.6-145.1c3.8 0 7.7 1 11.1 2.8 227.4 120.8 260.1 92.3 260.4 92 0-0.2 0-1.3-0.1-2.1-3-8.4-0.8-17.1 5.5-23.6 6.3-6.6 16.1-8.2 24.7-5.4 57.7 18.9 86.8 16.1 94.2 7.9 7-7.6 2-29-2.3-38.7-2.5-5.9-2.6-12.6-0.2-18.5 2.3-5.9 7-10.6 12.9-13.1l15.5-6.3c2.4-1.1 3.3-3.1 3.6-4.2 0.3-1.4 0.4-3.4-1.2-5.3-92.8-112.4-224.9-115.6-226.2-115.6-9.4-0.2-17.9-5.9-21.6-14.6-3.6-8.7-1.8-18.7 4.7-25.6 38-39.8 72.9-94.3 94.2-130.4l-360.8 28.9c6.2 60-2.4 107.9-9.5 147.3-8 44.3-11.8 70.4 1.7 91.9 19 30.2 72.8 33.8 91.9 32.7q0.7-0.1 1.5-0.1z"/><path class="b" d="m589.1 2899.3c16.5-19.1 38.4-32.5 59.9-44.6 19.7-10.9 42-20.3 63-28.1 11.3-4.3 19.1 11.5 9.1 18-7.1 4.4-20.8 13.4-27.6 18.2-23.9 17.8-49.6 37.9-65 63-18.4 25.5-56.1 0.1-39.4-26.5z"/><path class="b" d="m707.2 2967.8c20.2-38.5 49.5-72 85.2-96.9 11.6-8.3 24.4-14.8 37.2-20.7 5.4-2.5 11.9-0.1 14.4 5.3 2.4 5.2 0.3 11.2-4.4 14-41.5 26.9-72.3 69.5-88.4 116-11.1 33.2-58.9 14.2-44-17.7z"/><path class="b" d="m842.8 2719.3c23.4 24 50.3 45 78.1 64 5.8 3.8 7.4 11.7 3.4 17.5-3.3 5-9.7 6.8-15.1 4.7q-24.9-10-49.1-22.3c-16.8-8.7-32.9-17.4-48.7-28.2-27.8-21.6 6.5-60.6 31.4-35.7z"/><path class="b" d="m1790.6 2928c-9.5-16.7-24.5-30.6-39.2-43.6-15.6-13.7-34.7-27.1-52.3-38.4-10.4-6.4-2.5-22.5 8.9-18 21 8 43.1 17.6 62.7 28.6 21.5 12.3 43.2 25.9 59.5 45.2 16.5 26.7-21.4 51.8-39.6 26.2z"/><path class="b" d="m1667.3 2986.5c-15.6-46.6-46-89.5-87.3-116.8-11.6-7.3-2.3-24.8 10.2-19.2 49.2 22 88.9 62.1 115.8 108.3 2 3.4 3.9 6.9 5.9 11.2 13.4 31.8-34.1 49.4-44.6 16.5z"/><path class="b" d="m1608.6 2755.9c-30.7 20.1-63.7 35.7-97.6 49.1-6.5 2.6-13.8-0.6-16.3-7.1-2.2-5.7-0.1-12 4.8-15.2 14.3-9.5 28.2-19.5 41.5-30.1 12.7-10.3 25.8-21.4 37.2-33.1 25.6-24.9 59.5 15.6 30.4 36.4z"/><g style="opacity:.2"><path class="b" d="m1137.9 2874.1c-31.4 48.9-113.9 42.7-113.9 42.7-329 170.9-294.8 59.9-294.8 59.9-175.2 55.5-120.4-64.1-120.4-64.1l-15.4-6.6c-18.5-7.8-24.2-31.2-11.3-46.6 11-13 22.4-24.6 34-35.1 10.2 34.9 34.6 49.8 34.6 49.8-11 64 131.2 38.5 131.2 38.5 17.7 54 232.9-75.6 232.9-75.6 17-4.1 24.4-17.4 26.7-33.8 6-43.8-28-83.6-72.2-86.5-82.6-5.5-156.2-37.2-209-67.4-30.5-46.9-50.7-87.1-50.7-87.1l429.7 38.5c-24.2 136.7 37.1 213.6-1.4 273.4z"/></g><g style="opacity:.2"><path class="b" d="m1281.9 2874.1c31.4 48.9 113.9 42.7 113.9 42.7 329 170.9 294.8 59.9 294.8 59.9 175.2 55.5 120.4-64.1 120.4-64.1l15.4-6.6c18.5-7.8 24.2-31.2 11.2-46.6-10.9-13-22.3-24.6-33.9-35.1-10.2 34.9-34.6 49.8-34.6 49.8 11 64-131.2 38.5-131.2 38.5-17.7 54-233-75.6-233-75.6-16.9-4.1-24.3-17.4-26.6-33.8-6-43.8 28-83.6 72.2-86.5 82.6-5.5 156.2-37.2 209-67.4 30.4-46.9 50.7-87.1 50.7-87.1l-429.8 38.5c24.2 136.7-37 213.6 1.5 273.4z"/></g><path class="c" d="m2031 2311.9c-54-11.5-129.7-46.2-205.6-142.7 0 0 222.2 491.3-615.2 491.3h-2.7c-834.2-1.1-612.5-491.3-612.5-491.3-75.9 96.5-151.7 131.2-205.6 142.7-39.6 8.4-75.8-23.9-72.3-64.3 2.1-24.7 4.8-48.8 8.2-72.1q3.4-24 7.7-46.9c38.2-207.1 125.1-358 231.5-467.2 218.6-224.8 519.2-273.4 645.7-273.4 126.5 0 427.1 48.6 645.8 273.4 112.3 115.5 203 277.5 237.5 503.3 4.1 26.8 7.4 54.4 9.8 82.9 3.5 40.4-32.7 72.7-72.3 64.3z"/><g style="opacity:.6"><path class="d" d="m2093.5 2164.7c-3.1 2.9-4.8 4.5-4.8 4.5 0 0-170.9-703.5-878.5-703.5-724.1 0-884.9 709.8-884.9 709.8q3.4-24 7.7-46.9c116.9-633.5 689.2-740.6 877.2-740.6 191.5 0 781.8 111.2 883.3 776.7z"/></g><path fill-rule="evenodd" class="b" d="m1210.2 2684.2c-319.8 0-527.7-70.8-617.8-210.4-49.7-77.1-52.9-159-44.5-219.9-58.4 51.3-113.4 72.6-153.5 81.2-26.2 5.6-52.8-1.4-72.8-19.1-20.2-17.8-30.5-43.5-28.2-70.4 15-174.9 62.6-328.6 141.7-456.6 66.6-108 155.7-198.3 264.7-268.4 179.4-115.4 387.1-156.3 510.4-156.3 123.3 0 330.9 40.9 510.4 156.3 109 70.1 198.1 160.4 264.7 268.4 79 128 126.7 281.7 141.7 456.6 2.3 26.9-8 52.6-28.2 70.4-20.1 17.7-46.6 24.7-72.8 19.1-40.2-8.6-95.1-30-153.5-81.2 8.4 60.9 5.2 142.8-44.6 219.9-90.1 139.6-297.9 210.4-617.7 210.4zm-615.2-538.8c4.2 0 8.4 1.1 12.3 3.5 10.2 6.2 14.2 19.1 9.3 30-0.6 1.4-63.9 146.3 16 269.6 35.6 55 94.8 98.7 175.9 129.8 100.8 38.8 235.9 58.5 401.7 58.5 165.7 0 300.9-19.7 401.7-58.5 81.1-31.1 140.3-74.8 175.9-129.8 79.9-123.3 16.6-268.2 16-269.6-4.9-10.9-0.9-23.8 9.4-30 10.2-6.2 23.5-3.8 30.9 5.6 72.7 92.6 144.4 124.1 191.8 134.1 11.3 2.4 22.8-0.6 31.5-8.2 8.8-7.8 13.3-19 12.3-30.7-26.6-310.2-156-542-384.8-689.2-170.8-109.8-367.8-148.7-484.7-148.7-116.9 0-313.9 38.9-484.7 148.7-228.8 147.2-358.3 379-384.8 689.2-1 11.7 3.5 22.9 12.3 30.7 8.7 7.6 20.2 10.7 31.5 8.2 47.3-10 119-41.5 191.8-134.1 4.6-5.9 11.6-9.1 18.7-9.1z"/><path class="d" d="m1210.2 2512.4c-539.8 0-531.2-370.3-451.5-700.7 79.8-330.4 230.7-423.7 451.5-423.7 220.7 0 371.7 93.3 451.4 423.7 79.8 330.4 88.3 700.7-451.4 700.7z"/><path class="b" d="m576.7 2154c41.6-47.4 78.4-99.9 111.9-153.5 11.4-18.1 22.2-36.6 32.8-55.2 6.9-11.6 24.5-2.8 19.2 9.7-17.5 39.8-36.6 78.9-57.6 117.1-21.4 38.7-43.7 76.1-69.7 112.2-20.7 25.9-58.2-5-36.6-30.3z"/><path class="b" d="m1806.5 2184.3c-37.9-54.2-69.4-111.8-98-171.2-9.5-19.6-18.2-39.5-26.8-59.3-1.8-4.1 0.1-8.8 4.1-10.5 3.8-1.7 8.2-0.2 10.1 3.3 37.5 64.5 79.4 126.6 126.9 184.1 6.7 8 13.8 16.3 20.5 23.5 21.6 25.2-16.2 56.4-36.8 30.1z"/><g style="opacity:.2"><path class="b" d="m1856 1661.4c-146.8 106.8-381.5 176-645.8 176-264.4 0-498.9-69.2-645.7-176 218.6-224.8 519.2-273.4 645.7-273.4 126.5 0 427.1 48.6 645.8 273.4z"/></g><path class="c" d="m1210.2 1677.8c-1076.1 0-800.4-717-692.6-1066.6 4.8-15.5 9.3-30.3 13.3-44.2 61.1-213.9 208.8-339.2 383.4-400.8 0 0-43.1-15.8-40.2-47.8 2.8-32 225-21.4 225-21.4 0 0-42.7-34.1-12.8-61.9 29.9-27.8 188.5 1.6 299.3 99.1 224.6 41.9 429.1 171.1 503.9 432.8 2.7 9.3 5.5 19.1 8.6 29.1 104.1 343.7 403.8 1081.7-687.9 1081.7z"/><g style="opacity:.6"><path class="d" d="m1898.1 596.1c-3.9 0.6-6 0.9-6 0.9-84.1-184.9-210-287.8-317.4-344.9-11.2 14.5-46.6 18.1-85 7.5-43.2-12-73.9-37.3-68.6-56.6q1.5-5 5.7-8.8c-19.2-4.9-34.7-7.9-45.1-9.6-9.7-1.6-18.5-6.3-25.4-13.3-62.3-63.3-191.7-114.6-213-98.4-6.5 4.9-5.3 14-0.2 24.6 11.9 25-7.4 53.4-34.9 50.2-64-7.5-143.4-14.8-153.6-6.5-7 5.7-2 12.7 6.6 19.3 11.5 8.7 8.6 26.5-4.9 31.2-318.8 111.7-438.6 419.5-438.6 419.5q0 0-0.1 0c4.8-15.5 9.3-30.3 13.3-44.2 61.1-213.9 208.8-339.2 383.4-400.8 0 0-43.1-15.8-40.2-47.8 2.8-32 225-21.4 225-21.4 0 0-42.7-34.1-12.8-61.9 29.9-27.8 188.5 1.6 299.3 99.1 224.6 41.9 429.1 171.1 503.9 432.8 2.7 9.3 5.5 19.1 8.6 29.1z"/></g><path class="d" d="m1863.9 1410.1c-61.2 84.6-173.8 267.7-653.7 267.7-479.9 0-592.5-183.1-653.7-267.7-91.1-125.9-100.4-319.7 11.4-458.6 115.2-143 103.3-208.1 135.5-333.2 45.4-176.2 250.4-247.8 374.3-105.4 135.8 156 14.3 373.1 14.3 373.1h236.4c0 0-121.5-217.1 14.2-373.1 123.9-142.4 329-70.8 374.3 105.4 32.3 125.1 20.4 190.2 135.6 333.2 111.8 138.9 102.5 332.7 11.4 458.6z"/><g style="opacity:.2"><path class="b" d="m1210.2 1677.8c-1123.7 0-773.3-781.8-679.3-1110.8 15.5-54.2 36.5-102.8 62.2-146q-10.9 27.2-19.3 56.9c-88.1 308.2-416.3 1040.7 636.4 1040.7 1052.7 0 724.5-732.5 636.4-1040.7-5.6-19.6-12-38.5-19.2-56.6 25.7 43.2 46.7 91.6 62.1 145.7 94 329 444.3 1110.8-679.3 1110.8z"/></g><path class="b" d="m984.4 708.3c0 53.7-32.8 97.2-73.3 97.2-40.5 0-73.4-43.5-73.4-97.2 0-53.6 32.9-97.2 73.4-97.2 40.5 0 73.3 43.6 73.3 97.2z"/><path class="d" d="m956.9 692.6c0 20.2-11.9 36.5-26.6 36.5-14.7 0-26.6-16.3-26.6-36.5 0-20.2 11.9-36.5 26.6-36.5 14.7 0 26.6 16.3 26.6 36.5z"/><path class="b" d="m1425.5 708.3c0 53.7 32.9 97.2 73.4 97.2 40.5 0 73.3-43.5 73.3-97.2 0-53.6-32.8-97.2-73.3-97.2-40.5 0-73.4 43.6-73.4 97.2z"/><path class="d" d="m1453.1 692.6c0 20.2 11.9 36.5 26.6 36.5 14.7 0 26.6-16.3 26.6-36.5 0-20.2-11.9-36.5-26.6-36.5-14.7 0-26.6 16.3-26.6 36.5z"/><path class="e" d="m1791.2 1272c-21.3 103.9-124.7 341.8-581 341.8-456.3 0-559.7-237.9-581.1-341.8-9-43.8-12.5-100.3-6-157.5 11.2-97.3 51.3-196.9 142.8-239.9 144.6-68 254.9 54.1 442 55.1q1.1 0.1 2.3 0c188.5 0 299.1-123.4 444.3-55.1 145.3 68.4 161 279.2 136.7 397.4z"/><g style="opacity:.2"><path class="f" d="m1791.8 1114.5c-40.5-59.7-122.7-157.4-235.1-172.9-163.2-22.5-178 197.2-348.8 197.9h-0.9c-170.7-0.7-185.6-220.4-348.8-197.9-112.3 15.5-194.6 113.2-235.1 172.9 11.2-97.3 51.3-196.9 142.8-239.9 144.4-67.9 254.5 53.8 441.1 55.1h0.9c186.6-1.3 296.7-123 441.2-55.1 91.4 43 131.5 142.6 142.7 239.9z"/></g><g style="opacity:.2"><path class="b" d="m1791.2 1272c-21.3 103.9-124.7 341.8-581 341.8-456.3 0-559.7-237.9-581.1-341.8-8.3-40.6-11.9-92-7.2-144.8 1.6 18 4.1 35 7.2 50.4 21.4 104 124.8 341.8 581.1 341.8 456.3 0 559.7-237.8 581-341.8 3.2-15.4 5.7-32.4 7.3-50.4 4.7 52.8 1.1 104.2-7.3 144.8z"/></g><path fill-rule="evenodd" class="b" d="m1210.2 1637.5c-203.4 0-361.2-46.3-469-137.6-94.2-79.8-125.2-174.1-135.3-223.2-14.7-71.5-12.8-156.7 5-227.9 23.7-94.6 73.8-162.2 144.8-195.7 92.4-43.4 171.8-16.7 255.8 11.6 60.3 20.3 122.7 41.3 198.7 41.3 76 0 138.4-21 198.7-41.3 84-28.3 163.4-55 255.7-11.6 71.1 33.5 121.2 101.1 144.9 195.7 17.8 71.2 19.7 156.4 5 227.9-10.1 49.1-41.1 143.4-135.4 223.2-107.7 91.3-265.5 137.6-468.9 137.6zm-353.4-759.8c-26.4 0-52.9 5.2-80.8 18.4-132.8 62.5-146.3 260.8-123.6 371.1 8.8 43.1 36.2 125.9 119.5 196.5 99 83.8 246.4 126.3 438.3 126.3 191.9 0 339.3-42.5 438.3-126.3 83.3-70.6 110.6-153.4 119.5-196.5 22.7-110.3 9.1-308.6-123.6-371.1-75-35.3-139.2-13.7-220.4 13.6-60.9 20.5-130 43.8-213.8 43.8-83.8 0-152.9-23.3-213.9-43.8-50.9-17.1-95.1-32-139.5-32zm934.4 394.3h0.1z"/><path class="b" d="m1143.3 1260.6c8.7-28.9 36-52.2 66.9-53.3 31.3-0.5 59.6 23.8 66.9 53.3-22.3-10.8-43.3-23.7-66.3-23.6-24.8 1.3-43.8 13.4-67.5 23.6z"/><path class="b" d="m809.3 1004.2c0 0 62.7-58.4 145.3-34.2 0 0-14.3-69.8-72.7-62.6-58.4 7.1-72.6 96.8-72.6 96.8z"/><path class="b" d="m1611.1 1004.2c0 0-62.7-58.4-145.3-34.2 0 0 14.3-69.8 72.7-62.6 58.3 7.1 72.6 96.8 72.6 96.8z"/><path class="b" d="m990.2 1165.9c0 63.3-38.8 114.7-86.6 114.7-47.7 0-86.5-51.4-86.5-114.7 0-63.3 38.8-114.7 86.5-114.7 47.8 0 86.6 51.4 86.6 114.7z"/><path class="d" d="m954.6 1140.3c0 20.6-12.2 37.4-27.3 37.4-15 0-27.2-16.8-27.2-37.4 0-20.7 12.2-37.4 27.2-37.4 15.1 0 27.3 16.7 27.3 37.4z"/><g style="opacity:.3"><path class="d" d="m901.3 1203.4c5.6 16.4 0.4 33-11.5 37-12 4.1-26.2-5.9-31.7-22.3-5.6-16.4-0.4-33 11.5-37 12-4.1 26.2 5.9 31.7 22.3z"/></g><path class="b" d="m1433 1165.9c0 63.3 38.8 114.7 86.6 114.7 47.8 0 86.5-51.4 86.5-114.7 0-63.3-38.7-114.7-86.5-114.7-47.8 0-86.6 51.4-86.6 114.7z"/><path class="d" d="m1468.7 1140.3c0 20.6 12.2 37.4 27.2 37.4 15.1 0 27.3-16.8 27.3-37.4 0-20.7-12.2-37.4-27.3-37.4-15 0-27.2 16.7-27.2 37.4z"/><g style="opacity:.3"><path class="d" d="m1521.9 1203.4c-5.6 16.4-0.4 33 11.6 37 11.9 4.1 26.1-5.9 31.7-22.3 5.5-16.4 0.4-33-11.6-37-11.9-4.1-26.1 5.9-31.7 22.3z"/></g><path class="b" d="m1073.5 1341.7c29.7 50 82.9 69 139.3 68.7 25.7 0.2 53.1-1.7 76.9-11.8 25.2-10.3 45.9-31.6 57.2-56.9 8.7 38-16 77.4-49 96.3-18.7 10.4-39.9 16.6-61 18.8-7.4 0.2-17.6 1.5-24.9 1.1-7.3-0.7-17.6-0.5-24.8-1.9-4-0.7-14.7-2.6-18.6-3.4-4.4-1.1-13.9-4.5-18.3-5.8-43.4-15.4-81.4-59.3-76.8-105.1z"/><path fill-rule="evenodd" class="b" d="m1210.2 1701.6c-192.3 0-353.1-23.2-477.8-68.8-113.6-41.6-200.7-103-259-182.5-171.3-233.5-64.3-573.1 6.5-797.8 10.4-33.1 20.3-64.4 28.2-92 53.4-186.9 176.3-324.6 356.7-400.6-9.5-11.5-15.9-26.1-14.3-43.6 2.7-30.4 38.4-42 136.6-44.3 23.8-0.6 47.4-0.5 66.8-0.1-1.1-4.1-1.8-8.3-1.9-12.7-0.4-10.9 2.4-26.9 18.1-41.5 31.9-29.6 109.9-11.9 141.9-2.9 39.5 11.1 115.2 38.4 184.3 97.3 264.9 51.3 448 210.4 516 448.4 7.9 27.6 17.8 58.9 28.2 92 70.8 224.7 177.8 564.3 6.5 797.8-58.3 79.5-145.4 140.9-259 182.5-124.7 45.6-285.5 68.8-477.8 68.8zm-310.3-1573.9c5.1 7.7 17.5 14.4 22.6 16.2 9.4 3.5 15.6 12.5 15.6 22.5-0.1 10-6.4 18.9-15.9 22.2-131.1 46.2-301.5 150.5-368.5 384.9-8.1 28.2-18 59.8-28.6 93.3-67.9 215.6-170.5 541.4-13.5 755.5 112.9 153.8 347.9 231.8 698.6 231.8 350.7 0 585.7-78 698.5-231.8 157.1-214.1 54.4-539.9-13.5-755.5-10.5-33.5-20.5-65.1-28.5-93.3-63.4-221.7-235.8-369.4-485.5-416-4.2-0.8-8.1-2.7-11.3-5.5-61.9-54.5-131.4-80.1-167.2-90.5-61.3-17.8-95.1-12.7-100.5-8.8-2.9 2.7-2.8 4.1-2.8 4.7 0.2 6.4 9.6 17.1 14.5 21.1 8.1 6.4 11 17.3 7.4 26.9-3.6 9.6-13.1 15.8-23.3 15.3-77.2-3.7-168.6-1.6-198.1 7z"/><path class="a" d="m1398.7 919.1c-43.5 65.9-107.3 110.4-148.4 134.2-24.8 14.4-55.4 14.4-80.3 0-41-23.8-104.8-68.3-148.3-134.2-16.8-25.6 0.6-59.6 31.1-61.9 12.8-1 26.3-4.2 39.2-11.1 18.4-9.7 39.8-22.3 59.3-34.2 36.2-22 81.6-22 117.7 0 19.6 11.9 41 24.5 59.4 34.2 12.9 6.9 26.3 10.1 39.2 11.1 30.5 2.3 47.9 36.3 31.1 61.9z"/><g style="opacity:.6"><path class="d" d="m1405 893.4c-27-8-55.7-16.9-82.4-25.4-69.1-22-155.7-22-224.8 0-26.8 8.5-55.4 17.4-82.4 25.4 1.9-18.3 16.6-34.6 37.4-36.2 12.8-1 26.3-4.2 39.2-11.1 18.4-9.7 39.8-22.3 59.3-34.2 36.2-22 81.6-22 117.8 0 19.5 11.9 40.9 24.5 59.3 34.2 12.9 6.9 26.3 10.1 39.2 11.1 20.8 1.6 35.4 17.9 37.4 36.2z"/></g><g style="opacity:.2"><path class="g" d="m1398.7 919.1c-43.5 65.9-107.3 110.4-148.3 134.2-24.9 14.4-55.5 14.4-80.4 0-41-23.8-104.8-68.3-148.3-134.2-13.6-20.6-4.8-46.7 15-57.3 42.3 54.5 96.8 92 133.3 113.2 24.9 14.4 55.5 14.4 80.4 0 36.5-21.2 91-58.7 133.2-113.2 19.9 10.6 28.6 36.7 15.1 57.3z"/></g><path fill-rule="evenodd" class="b" d="m1210.2 1087.8c-18 0-36-4.7-52.1-14-46.3-26.9-111.1-73.3-156.2-141.7-12.5-18.9-13.9-42.3-4-62.6 10.2-20.8 30-34.2 53-36 11.1-0.9 21.2-3.7 30-8.3 15.5-8.3 35.1-19.6 58.1-33.6 43.9-26.7 98.5-26.7 142.4 0 23 14 42.5 25.3 58.1 33.6 8.8 4.6 18.9 7.4 30 8.3 23 1.8 42.8 15.2 52.9 36 10 20.3 8.6 43.8-3.9 62.6q0 0 0 0c-45.1 68.4-109.9 114.8-156.3 141.7-16 9.3-34 14-52 14zm0-268.7c-16.1 0-32.2 4.4-46.5 13.1-23.8 14.5-44.2 26.2-60.6 34.9-14.6 7.7-30.9 12.4-48.5 13.7-6.1 0.5-11.3 4.1-14 9.6-1.5 3-3.4 9.1 0.9 15.6 40 60.7 98.5 102.4 140.4 126.7 17.5 10.1 39.1 10.1 56.5 0 42-24.3 100.4-66 140.5-126.7 4.3-6.5 2.4-12.6 0.9-15.6-2.7-5.5-7.9-9.1-14-9.6-17.6-1.3-33.9-6-48.5-13.7-16.4-8.7-36.8-20.4-60.6-34.9-14.3-8.7-30.4-13.1-46.5-13.1zm188.5 100h0.1z"/><g style="opacity:.2"><path class="b" d="m2031 2311.9c-54-11.5-129.7-46.2-205.6-142.7 0 0 221.7 490.2-612.5 491.3-834.2-1.1-612.5-491.3-612.5-491.3-75.8 96.5-151.6 131.2-205.5 142.7-39.6 8.4-75.8-23.9-72.4-64.3 3.6-41.6 8.9-81.2 15.9-119 77.7 12.9 211.4-37.6 425.8-316.9 0 0-199.6 653.7 448.7 653.7 648.4 0 448.8-653.7 448.8-653.7 214.4 279.3 348 329.8 425.7 316.9 7 37.8 12.4 77.4 15.9 119 3.5 40.4-32.7 72.7-72.3 64.3z"/></g><path class="d" d="m340.5 612.8c19.2-31.5 28.7-69.4 24.7-109-9.9-96-95.8-165.9-191.9-156.1-96 9.9-165.9 95.8-156.1 191.9 9.9 96.1 95.8 165.9 191.9 156.1 26.7-2.8 51.4-11.4 72.9-24.5l80.9 18.2z"/><g style="opacity:.5"><path class="d" d="m176.8 381.2c89.7-9.2 170.6 51.2 188.9 137.5 0-6.2-0.3-12.4-0.9-18.7-9.9-96.1-95.8-166-191.9-156.1-96 9.9-165.9 95.8-156.1 191.8q1 9.5 3 18.6c0.3-88.3 67.2-163.9 157-173.1z"/></g><path fill-rule="evenodd" class="b" d="m190.8 712c-43.5 0-85.4-14.8-119.7-42.7-39.4-32.1-64-77.6-69.2-128.2-5.2-50.5 9.6-100.1 41.7-139.5 32.1-39.4 77.6-64 128.2-69.2 104.3-10.6 198 65.5 208.7 169.9 4 39.4-4 78.2-23.4 112.5l20.6 70.2c1.5 5.3 0.2 10.9-3.5 14.9-3.8 3.9-9.3 5.7-14.6 4.5l-75.1-16.9c-22.7 12.9-47.6 20.8-73.9 23.5q-9.9 1-19.8 1zm0.5-349.8q-8.1 0-16.4 0.8c-42.4 4.4-80.5 25-107.4 58-26.9 33.1-39.3 74.6-35 117 4.4 42.4 25 80.5 58 107.4 33.1 26.9 74.6 39.3 117 35 23.8-2.5 46.2-10 66.5-22.3 3.4-2.1 7.5-2.8 11.4-1.9l55.4 12.4-15.1-51.5c-1.2-4.1-0.6-8.6 1.6-12.3 18.4-30 26.2-64.4 22.6-99.4-8.4-82-77.9-143.2-158.6-143.2z"/><g style="opacity:.3"><path class="b" d="m341.5 611.1c-47.9 40.5-113.9 58.3-179.5 42-72.6-18.1-126.2-73.5-145.5-140.6-0.4 8.9-0.2 17.9 0.7 27.1 9.9 96 95.8 165.9 191.9 156.1 26.7-2.8 51.4-11.4 72.9-24.5l80.9 18.2-22.4-76.6q0.5-0.8 1-1.7z"/></g><path class="h" d="m247.1 472.6c-15.1-15.1-39.7-12.4-54.8 2.7l-2.3 2.4-2.4-2.4c-15.1-15.1-39.7-17.8-54.8-2.7-15.1 15.1-15.1 39.7 0 54.8l2.3 2.4 47.6 47.5c4 4 10.5 4 14.5 0l47.6-47.5 2.3-2.4c15.2-15.1 15.2-39.7 0-54.8z"/></svg>