<svg width="2444" height="2860" viewBox="0 0 2444 2860" fill="none" xmlns="http://www.w3.org/2000/svg">
<g opacity="0.3">
<path d="M1968.3 2711.1C1968.3 2792.7 1623.4 2858.8 1197.9 2858.8C772.5 2858.8 427.6 2792.7 427.6 2711.1C427.6 2629.6 772.5 2563.5 1197.9 2563.5C1623.4 2563.5 1968.3 2629.6 1968.3 2711.1Z" fill="#3A98B9"/>
</g>
<path d="M1223.6 2721.1C475 2721.1 395.6 2300.4 438.5 1990.9C454.6 1874.6 488 1774 509.7 1717.2C521.5 1686.1 529.9 1668.1 529.9 1668.1C529.9 1668.1 633.9 1499.1 1223.6 1499.1C1813.2 1499.1 1917.3 1668.1 1917.3 1668.1C1917.3 1668.1 1925.6 1686.1 1937.5 1717.2C2016.8 1925 2253.4 2721.1 1223.6 2721.1Z" fill="#A7B2BD"/>
<path d="M1223.6 1464.8C1716.1 1464.8 1803.1 1619 1803.1 1619C1803.1 1619 2212.9 2579.7 1223.6 2579.7C234.3 2579.7 644.1 1619 644.1 1619C644.1 1619 731 1464.8 1223.6 1464.8Z" fill="white"/>
<g opacity="0.3">
<path d="M2008.6 1990.9C1961.9 2115.7 1830.8 2373.5 1575.7 2243.6C1577.8 2246.6 1664.1 2362.7 1826.7 2307.1C1826.7 2307.1 1807.9 2616.1 1223.6 2616.1C639.3 2616.1 620.4 2307.1 620.4 2307.1C783 2362.7 869.3 2246.6 871.5 2243.6C616.4 2373.5 485.2 2115.7 438.5 1990.9C395.6 2300.4 475 2721.1 1223.6 2721.1C1972.2 2721.1 2051.6 2300.4 2008.6 1990.9Z" fill="#3A98B9"/>
</g>
<g opacity="0.3">
<path d="M1407.5 2224C1359.3 2212.2 1223.6 2213.3 1223.6 2213.3C1223.6 2213.3 1087.8 2212.2 1039.6 2224L999 2382.6C999 2382.6 1074.2 2370.6 1090.2 2297.8C1094.3 2279.1 1110.5 2265.4 1129.5 2263.8C1149.7 2262 1179.8 2260.4 1223.6 2260.4C1267.4 2260.4 1297.5 2262 1317.6 2263.8C1336.7 2265.4 1352.8 2279.1 1356.9 2297.8C1372.9 2370.6 1448.2 2382.6 1448.2 2382.6L1407.5 2224Z" fill="#3A98B9"/>
</g>
<path fill-rule="evenodd" clip-rule="evenodd" d="M1223.6 2743.6C862.2 2743.6 616.9 2646.3 494.5 2454.2C410 2321.7 386 2141.8 425 1934C454.1 1778.5 507.2 1663.5 509.4 1658.7C509.8 1657.9 510.233 1657.13 510.7 1656.4C515.2 1649 628.2 1476.7 1223.6 1476.7C1818.9 1476.7 1931.9 1649 1936.4 1656.4C1936.87 1657.13 1937.3 1657.9 1937.7 1658.7C1939.9 1663.5 1993 1778.5 2022.2 1934C2061.1 2141.8 2037.1 2321.7 1952.7 2454.2C1830.3 2646.3 1585 2743.6 1223.6 2743.6ZM549.5 1679.4C535.7 1710.1 348.5 2141.7 532.5 2430.1C646.1 2608.3 878.6 2698.6 1223.6 2698.6C1568.6 2698.6 1801.1 2608.3 1914.7 2430C2099 2140.8 1911 1709 1897.6 1679.3C1888.9 1667.8 1767.4 1521.7 1223.6 1521.7C682.1 1521.7 559.2 1666.5 549.5 1679.4Z" fill="#3A98B9"/>
<path d="M1223.6 2147.9H1648.6C1648.6 2147.9 1621.6 2067.9 1528.1 2014.1C1514.7 2006.4 1500.1 2001.1 1484.9 1998.4C1437.9 1989.9 1327.1 1975.3 1278.4 2014H1223.6H1168.7C1120 1975.3 1009.2 1989.9 962.3 1998.4C947 2001.1 932.4 2006.4 919 2014.1C825.5 2067.9 798.6 2147.9 798.6 2147.9H1223.6Z" fill="#E8E8EF"/>
<path fill-rule="evenodd" clip-rule="evenodd" d="M1648.6 2165.4H798.6C792.9 2165.4 787.6 2162.7 784.3 2158.1C781.1 2153.6 780.2 2147.7 782 2142.3C783.2 2138.8 812.2 2055.4 910.3 1998.9C925.2 1990.3 941.7 1984.3 959.2 1981.2C1017.1 1970.8 1120.3 1959.3 1174.5 1996.5H1272.6C1326.8 1959.3 1430.1 1970.7 1488 1981.2C1505.5 1984.3 1521.9 1990.3 1536.9 1998.9C1634.9 2055.4 1664 2138.8 1665.1 2142.3C1666.9 2147.7 1666.1 2153.6 1662.8 2158.1C1659.5 2162.7 1654.2 2165.4 1648.6 2165.4ZM826.2 2130.4H1620.9C1606.3 2104.4 1575.6 2061.6 1519.4 2029.2C1507.9 2022.6 1495.3 2018.1 1481.8 2015.6C1391.2 1999.3 1319.3 2003.8 1289.3 2027.7C1286.2 2030.2 1282.3 2031.5 1278.4 2031.5H1168.7C1164.8 2031.5 1160.9 2030.2 1157.9 2027.7C1127.8 2003.8 1055.9 1999.3 965.4 2015.6C951.8 2018.1 939.2 2022.6 927.7 2029.2C871.5 2061.6 840.8 2104.4 826.2 2130.4Z" fill="#3A98B9"/>
<path d="M1223.6 2213.3C1321.4 2213.3 1407.5 2224 1407.5 2224C1407.5 2224 1379.6 2383.7 1521.1 2382.6C1667.1 2381.4 1648.6 2147.9 1648.6 2147.9C1465.3 2120.1 1223.6 2120.1 1223.6 2120.1C1223.6 2120.1 981.8 2120.1 798.6 2147.9C798.6 2147.9 780 2381.4 926.1 2382.6C1067.5 2383.7 1039.6 2224 1039.6 2224C1039.6 2224 1125.7 2213.3 1223.6 2213.3Z" fill="#E8E8EF"/>
<g opacity="0.3">
<path d="M1405.9 2223.8C1405.9 2223.53 1405.93 2223.27 1406 2223C1407.9 2194.4 1386.7 2169.6 1358.2 2167.6C1320.4 2164.9 1269.7 2162.1 1223.6 2162.1C1177.6 2162.1 1125.1 2164 1085.4 2165.8C1055.7 2167.2 1033.3 2193.2 1036.4 2222.6C1040.9 2264.3 1031 2315 955.9 2314.4C860.5 2313.6 843.1 2202.9 840.8 2142.1C826.5 2143.9 812.3 2145.8 798.6 2147.9C798.6 2147.9 780 2381.4 926.1 2382.6C1067.5 2383.7 1039.6 2224 1039.6 2224C1039.6 2224 1125.7 2213.3 1223.6 2213.3C1313.8 2213.3 1394 2222.4 1405.9 2223.8Z" fill="#3A98B9"/>
</g>
<g opacity="0.3">
<path d="M1648.6 2147.9C1634.8 2145.8 1620.7 2143.9 1606.3 2142.1C1604 2202.9 1586.6 2313.6 1491.3 2314.4C1425.1 2315 1407.5 2276.6 1405.8 2239.5C1403 2279.6 1406.9 2383.5 1521.1 2382.6C1667.1 2381.4 1648.6 2147.9 1648.6 2147.9Z" fill="#3A98B9"/>
</g>
<path d="M810.4 2276.1L939.4 2269.1C953.8 2268.3 967.2 2276.8 972.5 2290.3C980.5 2310.4 986.6 2341.9 969.5 2376.7C969.5 2376.7 846.6 2421.7 810.4 2276.1Z" fill="#3A98B9"/>
<path d="M967.2 2129.9C967.2 2129.9 975.1 2150.3 972.7 2183.2C971.4 2202.1 956 2217.1 937 2218L800.7 2224.8L798.6 2147.9L967.2 2129.9Z" fill="#3A98B9"/>
<path d="M1636.7 2276.1L1507.8 2269.1C1493.3 2268.3 1479.9 2276.8 1474.6 2290.3C1466.7 2310.4 1460.5 2341.9 1477.6 2376.7C1477.6 2376.7 1600.5 2421.7 1636.7 2276.1Z" fill="#3A98B9"/>
<path d="M1479.9 2129.9C1479.9 2129.9 1472 2150.3 1474.4 2183.2C1475.7 2202.1 1491.1 2217.1 1510.1 2218L1646.4 2224.8L1648.6 2147.9L1479.9 2129.9Z" fill="#3A98B9"/>
<path fill-rule="evenodd" clip-rule="evenodd" d="M927.6 2400.1C927.067 2400.1 926.5 2400.1 925.9 2400.1C889 2399.8 858.3 2386.4 834.4 2360.4C770.5 2290.6 780.6 2152.4 781.1 2146.5C781.8 2138.4 787.9 2131.8 795.9 2130.6C978.3 2102.9 1221.1 2102.6 1223.6 2102.6C1226 2102.6 1468.8 2102.9 1651.2 2130.6C1659.2 2131.8 1665.4 2138.4 1666 2146.5C1666.5 2152.4 1676.7 2290.6 1612.7 2360.4C1588.9 2386.4 1558.1 2399.8 1521.2 2400.1C1520.67 2400.1 1520.1 2400.1 1519.5 2400.1C1476.5 2400.1 1443.1 2386.4 1420.2 2359.4C1388 2321.5 1386.4 2267.6 1388.2 2239.5C1358.5 2236.4 1293.8 2230.8 1223.6 2230.8C1153.3 2230.8 1088.6 2236.4 1058.9 2239.5C1060.7 2267.6 1059.1 2321.5 1026.9 2359.4C1004.1 2386.4 970.6 2400.1 927.6 2400.1ZM1223.6 2195.8C1321.4 2195.8 1408.8 2206.5 1409.7 2206.6C1414.4 2207.2 1418.7 2209.7 1421.6 2213.6C1424.4 2217.4 1425.6 2222.3 1424.7 2227C1424.6 2227.7 1413.2 2297.2 1447 2336.9C1463.1 2355.9 1488 2365.4 1520.9 2365.1C1548 2364.9 1569.6 2355.6 1586.8 2336.8C1630 2289.7 1632.4 2198 1631.7 2163.1C1453.8 2137.9 1225.9 2137.6 1223.6 2137.6C1221.2 2137.6 993.4 2137.9 815.4 2163.1C814.7 2197.9 817.1 2289.7 860.3 2336.8C877.5 2355.6 899.1 2364.9 926.2 2365.1C959.1 2365.4 984 2355.9 1000.2 2336.9C1033.9 2297.2 1022.5 2227.7 1022.4 2227C1021.6 2222.3 1022.7 2217.4 1025.6 2213.6C1028.4 2209.7 1032.7 2207.2 1037.5 2206.6C1038.3 2206.5 1125.7 2195.8 1223.6 2195.8Z" fill="#3A98B9"/>
<path d="M1071.5 2054.8C1073 2063.5 1063.5 2072.4 1050.4 2074.7C1037.2 2077 1025.3 2071.8 1023.8 2063.1C1022.3 2054.4 1031.8 2045.5 1044.9 2043.3C1058.1 2041 1070 2046.2 1071.5 2054.8Z" fill="#C6F8FF"/>
<path fill-rule="evenodd" clip-rule="evenodd" d="M1044.2 2081.6C1039.2 2081.6 1034.3 2080.7 1030.2 2078.9C1023.2 2075.8 1018.6 2070.5 1017.5 2064.2C1016.4 2057.9 1019 2051.3 1024.5 2046.1C1029.4 2041.5 1036.2 2038.3 1043.8 2037C1060.7 2034 1075.6 2041.4 1077.8 2053.8C1079.9 2066.1 1068.3 2078.1 1051.4 2081C1049 2081.4 1046.6 2081.6 1044.2 2081.6ZM1051.1 2049.1C1049.43 2049.1 1047.73 2049.27 1046 2049.6C1040.9 2050.4 1036.3 2052.6 1033.2 2055.4C1030.9 2057.6 1029.8 2060 1030.1 2062C1030.4 2064 1032.3 2065.9 1035.3 2067.1C1039.1 2068.8 1044.2 2069.3 1049.3 2068.4C1059.3 2066.6 1065.9 2060.4 1065.2 2055.9C1064.5 2052.3 1058.7 2049.1 1051.1 2049.1Z" fill="#3A98B9"/>
<path d="M1014.4 2083.6C1015.9 2092.3 1006.4 2101.2 993.3 2103.4C980.1 2105.7 968.2 2100.5 966.7 2091.9C965.2 2083.2 974.7 2074.3 987.8 2072C1001 2069.7 1012.9 2074.9 1014.4 2083.6Z" fill="#C6F8FF"/>
<path fill-rule="evenodd" clip-rule="evenodd" d="M987.1 2110.4C982.1 2110.4 977.2 2109.4 973.1 2107.6C966.1 2104.6 961.5 2099.2 960.4 2093C959.3 2086.7 961.9 2080.1 967.4 2074.9C972.3 2070.3 979.2 2067 986.7 2065.7C1003.7 2062.8 1018.6 2070.2 1020.7 2082.5C1022.8 2094.9 1011.3 2106.8 994.4 2109.7C991.933 2110.17 989.5 2110.4 987.1 2110.4ZM994 2077.9C992.333 2077.9 990.633 2078.03 988.9 2078.3C983.9 2079.2 979.2 2081.3 976.2 2084.2C973.8 2086.4 972.7 2088.8 973 2090.8C973.4 2092.8 975.2 2094.6 978.2 2095.9C982 2097.6 987.1 2098 992.2 2097.1C1002.2 2095.4 1008.9 2089.1 1008.1 2084.7C1007.5 2081 1001.6 2077.9 994 2077.9Z" fill="#3A98B9"/>
<path d="M971.7 2051.8C973.2 2060.5 963.7 2069.4 950.6 2071.6C937.4 2073.9 925.5 2068.7 924 2060.1C922.5 2051.4 932 2042.5 945.1 2040.2C958.3 2037.9 970.2 2043.1 971.7 2051.8Z" fill="#C6F8FF"/>
<path fill-rule="evenodd" clip-rule="evenodd" d="M944.3 2078.6C930.6 2078.6 919.5 2071.7 917.7 2061.1C915.6 2048.8 927.1 2036.8 944 2033.9C951.6 2032.6 959.2 2033.4 965.3 2036C972.3 2039.1 976.9 2044.4 978 2050.7C979.1 2057 976.5 2063.6 971 2068.8C966.1 2073.4 959.3 2076.6 951.7 2077.9C949.167 2078.37 946.7 2078.6 944.3 2078.6ZM951.3 2046.1C949.633 2046.1 947.933 2046.23 946.2 2046.5C936.2 2048.3 929.6 2054.5 930.3 2059C931.1 2063.4 939.4 2067.1 949.5 2065.3C954.6 2064.5 959.2 2062.3 962.3 2059.5C964.6 2057.3 965.7 2054.9 965.4 2052.9C965 2050.9 963.2 2049 960.2 2047.8C957.7 2046.6 954.6 2046.1 951.3 2046.1Z" fill="#3A98B9"/>
<path d="M1027.6 2023.7C1029.1 2032.4 1019.6 2041.2 1006.5 2043.5C993.3 2045.8 981.4 2040.6 979.9 2031.9C978.4 2023.3 987.9 2014.4 1001 2012.1C1014.2 2009.8 1026.1 2015 1027.6 2023.7Z" fill="#C6F8FF"/>
<path fill-rule="evenodd" clip-rule="evenodd" d="M1000.2 2050.5C986.5 2050.5 975.4 2043.6 973.6 2033C972.5 2026.8 975.1 2020.2 980.6 2015C985.5 2010.4 992.3 2007.1 999.9 2005.8C1016.8 2002.9 1031.7 2010.3 1033.9 2022.6C1035 2028.9 1032.4 2035.5 1026.9 2040.7C1022 2045.3 1015.1 2048.5 1007.5 2049.8C1005.03 2050.27 1002.6 2050.5 1000.2 2050.5ZM1007.2 2018C1005.53 2018 1003.83 2018.13 1002.1 2018.4C997 2019.3 992.4 2021.4 989.3 2024.3C987 2026.5 985.9 2028.9 986.2 2030.9C987 2035.3 995.3 2039 1005.4 2037.2C1010.4 2036.4 1015.1 2034.2 1018.1 2031.4C1020.5 2029.2 1021.6 2026.8 1021.3 2024.8C1020.6 2021.1 1014.8 2018 1007.2 2018Z" fill="#3A98B9"/>
<path d="M1223.6 2120.1C1294.1 2120.1 1345.1 2122.7 1345.1 2122.7L1315.1 2085.7C1306.1 2074.6 1292.6 2068.2 1278.4 2068.2H1223.6H1168.8C1154.5 2068.2 1141 2074.6 1132 2085.7L1102 2122.7C1102 2122.7 1153 2120.1 1223.6 2120.1Z" fill="#C6F8FF"/>
<path fill-rule="evenodd" clip-rule="evenodd" d="M1102 2135.2C1097.3 2135.2 1093 2132.6 1090.8 2128.3C1088.6 2123.9 1089.2 2118.6 1092.3 2114.8L1122.3 2077.8C1133.7 2063.8 1150.7 2055.7 1168.8 2055.7H1278.4C1296.5 2055.7 1313.4 2063.8 1324.8 2077.8L1354.8 2114.8C1357.9 2118.6 1358.5 2123.9 1356.3 2128.3C1354 2132.7 1349.4 2135.3 1344.5 2135.2C1344 2135.1 1292.9 2132.6 1223.6 2132.6C1154.2 2132.6 1103.1 2135.1 1102.6 2135.2C1102.4 2135.2 1102.2 2135.2 1102 2135.2ZM1223.6 2107.6C1262.7 2107.6 1296.1 2108.4 1318 2109.1L1305.4 2093.6C1298.7 2085.4 1288.9 2080.7 1278.4 2080.7H1168.8C1158.2 2080.7 1148.4 2085.4 1141.7 2093.6L1129.1 2109.1C1151.1 2108.4 1184.4 2107.6 1223.6 2107.6Z" fill="#3A98B9"/>
<path d="M1509.1 2101.3L1496.4 2077.4C1495.9 2076.7 1495.3 2076 1494.5 2075.6L1477.6 2067.7C1476.5 2067.2 1475.1 2067.2 1473.9 2067.8L1463.9 2072.9C1461.8 2074 1461 2076.6 1462.1 2078.7L1476.2 2103.9C1476.9 2105.2 1478.2 2106 1479.7 2106.1L1505.2 2107.4C1508.4 2107.6 1510.6 2104.2 1509.1 2101.3Z" fill="#3A98B9"/>
<path d="M1431.9 2024.1L1444.7 2047.9C1445.1 2048.7 1445.8 2049.4 1446.6 2049.7L1463.4 2057.7C1464.6 2058.2 1465.9 2058.2 1467.1 2057.6L1477.2 2052.5C1479.3 2051.4 1480.1 2048.8 1478.9 2046.7L1464.8 2021.4C1464.1 2020.2 1462.8 2019.4 1461.4 2019.3L1435.9 2017.9C1432.6 2017.8 1430.4 2021.2 1431.9 2024.1Z" fill="#3A98B9"/>
<path d="M1408.5 2049.1L1435.5 2048.4C1436.4 2048.3 1437.3 2048.6 1438 2049.1L1453.2 2059.9C1454.3 2060.6 1454.9 2061.8 1455 2063.1L1455.4 2074.4C1455.5 2076.8 1453.7 2078.8 1451.3 2078.8L1422.4 2079C1420.9 2079 1419.6 2078.2 1418.8 2077L1405 2055.5C1403.3 2052.8 1405.2 2049.1 1408.5 2049.1Z" fill="#3A98B9"/>
<path d="M1530.3 2078.1L1503.3 2077.3C1502.4 2077.3 1501.5 2077 1500.8 2076.4L1486.2 2064.9C1485.2 2064.1 1484.6 2062.9 1484.6 2061.6L1484.7 2050.3C1484.7 2047.9 1486.7 2046 1489.1 2046.1L1518 2047.5C1519.4 2047.6 1520.7 2048.4 1521.4 2049.6L1534 2071.8C1535.6 2074.7 1533.5 2078.2 1530.3 2078.1Z" fill="#3A98B9"/>
<path d="M1162.8 2024.4C1162.8 2035.4 1142.8 2044.3 1118.1 2044.3C1093.4 2044.3 1073.4 2035.4 1073.4 2024.4C1073.4 2013.4 1093.4 2004.5 1118.1 2004.5C1142.8 2004.5 1162.8 2013.4 1162.8 2024.4Z" fill="#3A98B9"/>
<path d="M1172.8 1958.5V1958.4C1172.7 1958.1 1172.6 1957.9 1172.5 1957.6L1168.2 1943.9H1168.1C1165.9 1932.4 1144.4 1923.4 1118.1 1923.4C1091.8 1923.4 1070.3 1932.4 1068.1 1943.9L1063.7 1957.6C1063.6 1957.9 1063.5 1958.1 1063.5 1958.4L1063.4 1958.5H1063.5C1063.3 1959.23 1063.2 1960 1063.2 1960.8C1063.2 1974.3 1087.8 1985.3 1118.1 1985.3C1148.4 1985.3 1173 1974.3 1173 1960.8C1173 1960 1172.93 1959.23 1172.8 1958.5Z" fill="#3A98B9"/>
<path d="M1284.3 2024.4C1284.3 2035.4 1304.3 2044.3 1329 2044.3C1353.7 2044.3 1373.7 2035.4 1373.7 2024.4C1373.7 2013.4 1353.7 2004.5 1329 2004.5C1304.3 2004.5 1284.3 2013.4 1284.3 2024.4Z" fill="#3A98B9"/>
<path d="M1274.4 1958.5H1274.3L1274.4 1958.4C1274.4 1958.1 1274.5 1957.9 1274.6 1957.6L1279 1943.9C1281.2 1932.4 1302.7 1923.4 1329 1923.4C1355.3 1923.4 1376.8 1932.4 1379 1943.9L1383.4 1957.6C1383.5 1957.9 1383.6 1958.1 1383.6 1958.4L1383.7 1958.5C1383.83 1959.23 1383.9 1960 1383.9 1960.8C1383.9 1974.3 1359.3 1985.3 1329 1985.3C1298.7 1985.3 1274.1 1974.3 1274.1 1960.8C1274.1 1960 1274.2 1959.23 1274.4 1958.5Z" fill="#3A98B9"/>
<g opacity="0.3">
<path d="M877.6 2063.7C877.6 2063.7 1048.1 2229 834.4 2326.2C834.4 2326.2 785.2 2191.5 877.6 2063.7Z" fill="#3A98B9"/>
</g>
<g opacity="0.3">
<path d="M1569.5 2063.7C1569.5 2063.7 1399 2229 1612.7 2326.2C1612.7 2326.2 1661.9 2191.5 1569.5 2063.7Z" fill="#3A98B9"/>
</g>
<path d="M906.2 2759.3C978.8 2777.9 1048.1 2719.9 1042.4 2645.2C1032.2 2510.3 1007.1 2327.9 945.7 2305.5C847 2269.5 834.4 2398.8 834.4 2398.8C806.7 2365.7 770.2 2344.5 736.5 2330.9C688.9 2311.7 639.7 2352.9 650.3 2403.2C657.7 2438.7 672.3 2478.4 700 2511.5C700 2511.5 570.5 2501.3 588.7 2604.8C600 2669.1 775.3 2725.7 906.2 2759.3Z" fill="#FFC869"/>
<g opacity="0.7">
<path d="M655.4 2423.9C662.1 2385.9 702.6 2360.2 742.2 2376.2C775.8 2389.7 812.3 2411 840.1 2444.1C840.1 2444.1 852.7 2314.7 951.4 2350.8C995.4 2366.8 1020.8 2465.5 1035.4 2569.8C1022.1 2450.4 996.1 2323.9 945.7 2305.5C847 2269.5 834.4 2398.8 834.4 2398.8C806.7 2365.7 770.2 2344.5 736.5 2330.9C688.9 2311.7 639.7 2352.9 650.3 2403.2C651.7 2409.9 653.5 2416.9 655.4 2423.9Z" fill="white"/>
</g>
<g opacity="0.3">
<path d="M1042.4 2645.2C1032.4 2513 1008 2335.2 949.3 2307.1C992.9 2349 1011.9 2491.5 1020.1 2599.6C1025.1 2666.2 963.4 2717.9 898.8 2701.3C782.1 2671.4 626 2620.9 615.9 2563.6C613.5 2550.2 614 2538.9 616.5 2529.4C596.1 2542.7 581.8 2565.6 588.7 2604.8C600 2669.1 775.3 2725.7 906.2 2759.3C978.8 2777.9 1048.1 2719.9 1042.4 2645.2Z" fill="#3A98B9"/>
</g>
<path fill-rule="evenodd" clip-rule="evenodd" d="M934 2785.3C923 2785.3 911.8 2783.9 900.7 2781.1C816.5 2759.5 746.9 2737 693.7 2714.2C613.6 2679.9 573.2 2646.3 566.6 2608.7C559.1 2566.3 573.2 2540.1 586.4 2525.6C606.2 2503.9 634.8 2494.7 658.7 2491C645 2466.6 634.8 2438.8 628.3 2407.8C621.5 2375.9 632.3 2344.5 657.1 2323.8C681.9 2303 714.7 2297.9 744.9 2310C774.3 2321.9 799.9 2336.8 821.5 2354.5C829.3 2331.7 843.3 2305.1 868.1 2289.4C884.8 2279 913 2269.6 953.4 2284.4C989.4 2297.5 1015.3 2343.1 1035.1 2428C1048.3 2484.3 1058.3 2556.8 1064.9 2643.4C1068.1 2686.4 1051.1 2726.8 1018.1 2754.5C994 2774.7 964.5 2785.3 934 2785.3ZM690.4 2533.6C671.2 2533.6 636.3 2537.5 619.7 2555.9C610.3 2566.3 607.4 2581 610.9 2600.9C616.2 2630.9 698 2682.6 911.8 2737.5C939.3 2744.5 967.5 2738.2 989.2 2720C1010.9 2701.8 1022.1 2675.1 1020 2646.9C1003.3 2426.7 966.7 2337.1 938 2326.6C919.1 2319.7 904.1 2320 892.2 2327.5C867.8 2342.8 858.4 2385.8 856.8 2401C855.9 2410 849.7 2417.6 841 2420.3C832.4 2422.9 823 2420.2 817.2 2413.3C795.7 2387.6 765.7 2366.9 728.1 2351.8C713.6 2345.9 697.8 2348.3 686 2358.3C674.2 2368.2 669.1 2383.2 672.3 2398.5C680.6 2438.2 695.8 2471.4 717.3 2497C723.1 2503.9 724.2 2513.7 720 2521.8C715.9 2529.8 707.3 2534.6 698.3 2533.9C696.1 2533.7 693.4 2533.6 690.4 2533.6Z" fill="#3A98B9"/>
<path d="M712.3 2492.6C720 2497.6 727.2 2503.5 734.2 2509.7C741.2 2515.8 747.8 2522.6 754.5 2529.3C767.7 2542.7 780.7 2556.7 792.8 2571.8C774.1 2566.8 756.1 2560.7 738.4 2554C729.6 2550.6 720.7 2547.3 712.3 2543.4C703.8 2539.5 695.5 2535.4 687.8 2530.3C677.4 2523.5 674.5 2509.5 681.3 2499.2C688.1 2488.8 701.9 2485.9 712.3 2492.6Z" fill="#3A98B9"/>
<path d="M855.1 2390C858.8 2398.5 861.4 2407.4 863.7 2416.4C866.1 2425.5 867.8 2434.7 869.6 2444C873.1 2462.6 876 2481.4 877.6 2500.7C864.8 2486.1 853.4 2470.9 842.4 2455.5C837 2447.8 831.5 2440.1 826.7 2432.1C821.9 2424.2 817.3 2416.1 813.7 2407.6C808.9 2396.1 814.3 2382.9 825.8 2378.1C837.2 2373.4 850.3 2378.7 855.1 2390Z" fill="#3A98B9"/>
<path d="M1540.9 2759.3C1468.3 2777.9 1399 2719.9 1404.7 2645.2C1414.9 2510.3 1440.1 2327.9 1501.4 2305.5C1600.1 2269.5 1612.7 2398.8 1612.7 2398.8C1640.4 2365.7 1677 2344.5 1710.6 2330.9C1758.3 2311.7 1807.4 2352.9 1796.8 2403.2C1789.4 2438.7 1774.8 2478.4 1747.1 2511.5C1747.1 2511.5 1876.6 2501.3 1858.4 2604.8C1847.1 2669.1 1671.9 2725.7 1540.9 2759.3Z" fill="#FFC869"/>
<g opacity="0.7">
<path d="M1791.7 2423.9C1785.1 2385.9 1744.5 2360.2 1705 2376.2C1671.3 2389.7 1634.8 2411 1607 2444.1C1607 2444.1 1594.4 2314.7 1495.7 2350.8C1451.7 2366.8 1426.3 2465.5 1411.7 2569.8C1425 2450.4 1451 2323.9 1501.4 2305.5C1600.1 2269.5 1612.7 2398.8 1612.7 2398.8C1640.4 2365.7 1677 2344.5 1710.6 2330.9C1758.3 2311.7 1807.4 2352.9 1796.8 2403.2C1795.4 2409.9 1793.7 2416.9 1791.7 2423.9Z" fill="white"/>
</g>
<g opacity="0.3">
<path d="M1404.7 2645.2C1414.7 2513 1439.1 2335.2 1497.8 2307.1C1454.2 2349 1435.3 2491.5 1427 2599.6C1422 2666.2 1483.7 2717.9 1548.4 2701.3C1665.1 2671.4 1821.2 2620.9 1831.3 2563.6C1833.6 2550.2 1833.1 2538.9 1830.6 2529.4C1851 2542.7 1865.3 2565.6 1858.4 2604.8C1847.1 2669.1 1671.9 2725.7 1540.9 2759.3C1468.3 2777.9 1399 2719.9 1404.7 2645.2Z" fill="#3A98B9"/>
</g>
<path fill-rule="evenodd" clip-rule="evenodd" d="M1513.1 2785.3C1482.6 2785.3 1453.2 2774.7 1429 2754.5C1396 2726.8 1379 2686.4 1382.3 2643.4C1388.8 2556.8 1398.8 2484.3 1412 2428C1431.8 2343.1 1457.8 2297.5 1493.7 2284.4C1534.1 2269.6 1562.4 2279 1579 2289.4C1603.8 2305.1 1617.8 2331.7 1625.6 2354.5C1647.2 2336.8 1672.8 2321.9 1702.2 2310C1732.4 2297.9 1765.2 2303 1790 2323.8C1814.8 2344.5 1825.6 2375.9 1818.9 2407.8C1812.3 2438.8 1802.1 2466.6 1788.4 2491C1812.3 2494.7 1841 2503.9 1860.7 2525.6C1873.9 2540.1 1888 2566.3 1880.6 2608.7C1873.9 2646.3 1833.5 2679.9 1753.4 2714.2C1700.2 2737 1630.6 2759.5 1546.5 2781.1C1535.3 2783.9 1524.1 2785.3 1513.1 2785.3ZM1533.8 2321.7C1526.4 2321.7 1518.2 2323.3 1509.1 2326.6C1480.4 2337.1 1443.8 2426.7 1427.1 2646.9C1425 2675.1 1436.2 2701.8 1457.9 2720C1479.6 2738.2 1507.8 2744.5 1535.3 2737.5C1749.1 2682.6 1831 2630.9 1836.3 2600.9C1839.8 2581 1836.8 2566.3 1827.4 2555.8C1807.9 2534.4 1763.1 2532.8 1748.9 2533.9C1739.8 2534.6 1731.3 2529.8 1727.1 2521.8C1723 2513.7 1724 2503.9 1729.9 2497C1751.3 2471.4 1766.5 2438.2 1774.8 2398.5C1778.1 2383.2 1772.9 2368.2 1761.1 2358.2C1749.3 2348.3 1733.6 2345.9 1719 2351.8C1681.4 2366.9 1651.4 2387.6 1629.9 2413.3C1624.1 2420.2 1614.7 2423 1606.1 2420.3C1597.4 2417.6 1591.2 2410 1590.3 2401C1588.8 2385.8 1579.3 2342.8 1554.9 2327.5C1548.7 2323.6 1541.7 2321.7 1533.8 2321.7Z" fill="#3A98B9"/>
<path d="M1759.4 2530.3C1751.7 2535.4 1743.3 2539.5 1734.9 2543.4C1726.4 2547.3 1717.6 2550.6 1708.7 2554C1691.1 2560.7 1673.1 2566.8 1654.3 2571.8C1666.5 2556.7 1679.4 2542.7 1692.7 2529.3C1699.3 2522.6 1705.9 2515.8 1713 2509.7C1719.9 2503.5 1727.1 2497.6 1734.8 2492.6C1745.3 2485.9 1759.2 2488.9 1765.9 2499.3C1772.6 2509.7 1769.7 2523.6 1759.4 2530.3Z" fill="#3A98B9"/>
<path d="M1633.4 2407.6C1629.9 2416.1 1625.3 2424.2 1620.4 2432.1C1615.6 2440.1 1610.1 2447.8 1604.7 2455.5C1593.8 2470.9 1582.3 2486.1 1569.5 2500.7C1571.1 2481.4 1574.1 2462.6 1577.5 2444C1579.3 2434.7 1581 2425.5 1583.4 2416.4C1585.8 2407.4 1588.3 2398.5 1592 2390C1596.9 2378.6 1610.1 2373.3 1621.5 2378.2C1632.9 2383.1 1638.2 2396.2 1633.4 2407.6Z" fill="#3A98B9"/>
<path d="M858.2 2059.3C702.1 1916.1 669.9 1723.7 669.9 1723.7L606.6 1702.3L582.6 1781.9C532.3 1830.1 479.3 1913.3 481.5 2049.1C484.4 2225.3 657 2274.9 727.7 2291.8C756.8 2298.7 787.6 2296.1 814.8 2283.6C885.9 2250.9 903.5 2200.4 903.4 2158.3C903.3 2120.4 886.1 2084.9 858.2 2059.3Z" fill="#A7B2BD"/>
<g opacity="0.3">
<path d="M890.7 2215.6C890.7 2215.6 651.1 2293.1 491.7 2025.7C489 2021.1 481.7 2023 481.9 2028.5C483 2077.7 504.3 2210.9 692.4 2281.5C692.4 2281.5 812.4 2334.3 890.7 2215.6Z" fill="#3A98B9"/>
</g>
<path d="M692.1 1720C692.9 1724.6 694.3 1730.3 695.6 1735.6C696.9 1741 698.4 1746.4 699.9 1751.8C701.5 1757.2 703 1762.6 704.7 1767.9L710 1783.9C713.8 1794.5 717.3 1805.2 721.7 1815.7C723.8 1820.9 725.8 1826.2 728.1 1831.3L734.9 1846.8C753.5 1887.9 776.6 1926.8 803.2 1963L823.9 1989.5L846.2 2014.7C854 2022.7 862 2030.4 870 2038.4C873.5 2042 879.1 2046.9 883.4 2051.9C888 2056.9 892.3 2062.1 896.2 2067.6C912 2089.6 922.4 2115.9 925.1 2143.3C926.4 2157.1 925.8 2170.5 923.7 2184C921.5 2197.5 917.4 2210.8 911.3 2223.3C899.2 2248.3 879.7 2268.8 858 2283.3C847.3 2290.9 835.8 2296.7 824.3 2302.2C812 2307.8 798.9 2311.7 785.6 2313.8C772.3 2315.9 758.8 2316.3 745.5 2315C738.833 2314.33 732.233 2313.23 725.7 2311.7C719.3 2310.2 713.7 2308.6 707.7 2306.9C684.2 2299.8 661.3 2290.7 639.5 2279.4C617.7 2267.9 597.1 2254.2 578.1 2238.5L564.1 2226.4L551.1 2213.3C546.6 2209 542.8 2204.2 538.8 2199.5L532.9 2192.4C530.9 2190 528.9 2187.7 527.2 2185.1C497.9 2145.6 479.5 2097.9 478.6 2049.8C478.5 2048.1 479.9 2046.7 481.6 2046.6C482.8 2046.6 483.8 2047.2 484.4 2048.2L484.5 2048.4C487.4 2053.6 490 2058.9 492.6 2064.1C495.2 2069.3 497.2 2074.7 500.1 2079.7C502.9 2084.7 505.5 2089.8 508.1 2094.8L512 2102.4C513.3 2104.8 514.9 2107.2 516.3 2109.6C519.2 2114.4 522 2119.3 524.8 2124.1C527.4 2129 531 2133.4 533.9 2138.1L538.5 2145C539.9 2147.4 541.5 2149.6 543.3 2151.8C546.633 2156.13 549.933 2160.53 553.2 2165C554.8 2167.3 556.7 2169.3 558.5 2171.3L564 2177.5C567.7 2181.6 571.2 2185.8 575.4 2189.5L587.3 2200.9L600.1 2211.3C617.5 2224.8 636.3 2236.5 656.2 2246.2C676.1 2255.7 697 2263.3 718.4 2269C723.7 2270.3 729.3 2271.8 734.3 2272.9C739.167 2273.9 744.1 2274.6 749.1 2275C759.1 2275.8 769 2275.2 778.8 2273.5C788.5 2271.7 797.8 2268.6 806.7 2264.3C816.1 2259.5 825.5 2254.6 833.7 2248.5C850.5 2236.7 863.6 2221.7 871.6 2204.4C875.6 2195.8 878.3 2186.6 879.7 2177C881.1 2167.5 881.4 2157.3 880.3 2148C878.2 2128.9 870.6 2110.4 859 2094.6C856.1 2090.7 853 2086.9 849.6 2083.4C846.1 2079.6 842.9 2076.9 838.2 2072.2C829.6 2063.7 820.8 2055.3 812.3 2046.7L788 2019.5L765.4 1991C736.4 1952.2 712.2 1910 692.5 1866L685.2 1849.4C682.8 1843.9 680.7 1838.2 678.5 1832.6C673.9 1821.5 670.1 1810 666.1 1798.6L660.7 1781.3C659 1775.5 657.5 1769.6 655.8 1763.8C654.3 1757.9 652.8 1752 651.5 1746.1C650.1 1740 648.8 1734.3 647.7 1727.4C645.6 1715.2 653.8 1703.6 666.1 1701.5C678.1 1699.4 689.6 1707.4 691.9 1719.4L692.1 1720Z" fill="#3A98B9"/>
<path d="M1588.9 2059.3C1745 1916.1 1777.3 1723.7 1777.3 1723.7L1840.5 1702.3L1864.6 1781.9C1914.9 1830.1 1967.8 1913.3 1965.6 2049.1C1962.7 2225.3 1790.2 2274.9 1719.5 2291.8C1690.3 2298.7 1659.6 2296.1 1632.3 2283.6C1561.2 2250.9 1543.6 2200.4 1543.7 2158.3C1543.8 2120.4 1561.1 2084.9 1588.9 2059.3Z" fill="#A7B2BD"/>
<g opacity="0.3">
<path d="M1556.4 2215.6C1556.4 2215.6 1796.1 2293.1 1955.4 2025.7C1958.2 2021.1 1965.4 2023 1965.3 2028.5C1964.1 2077.7 1942.8 2210.9 1754.7 2281.5C1754.7 2281.5 1634.8 2334.3 1556.4 2215.6Z" fill="#3A98B9"/>
</g>
<path d="M1799.4 1727.4C1798.3 1734.3 1797 1740 1795.7 1746.1C1794.3 1752.03 1792.83 1757.93 1791.3 1763.8C1789.7 1769.6 1788.1 1775.5 1786.4 1781.3L1781 1798.6C1777 1810 1773.2 1821.5 1768.6 1832.6C1766.4 1838.2 1764.3 1843.9 1761.9 1849.4L1754.6 1866C1734.9 1910 1710.7 1952.2 1681.7 1991L1659.1 2019.5L1634.8 2046.7C1626.3 2055.3 1617.5 2063.7 1608.9 2072.2C1604.2 2076.9 1601 2079.6 1597.6 2083.4C1594.2 2086.9 1591 2090.7 1588.1 2094.6C1576.5 2110.4 1568.9 2128.9 1566.8 2148C1565.7 2157.3 1566 2167.5 1567.4 2177C1568.8 2186.6 1571.5 2195.8 1575.6 2204.4C1583.5 2221.7 1596.6 2236.7 1613.4 2248.5C1621.6 2254.6 1631 2259.5 1640.4 2264.3C1649.3 2268.6 1658.6 2271.7 1668.4 2273.5C1678.1 2275.2 1688.1 2275.8 1698 2275C1703 2274.6 1707.93 2273.9 1712.8 2272.9C1717.8 2271.8 1723.4 2270.3 1728.7 2269C1750.1 2263.3 1771 2255.7 1790.9 2246.2C1810.8 2236.5 1829.6 2224.8 1847 2211.3L1859.8 2200.9L1871.8 2189.5C1875.9 2185.8 1879.4 2181.6 1883.1 2177.5L1888.6 2171.3C1890.5 2169.3 1892.3 2167.3 1893.9 2165C1897.17 2160.53 1900.5 2156.13 1903.9 2151.8C1905.6 2149.6 1907.2 2147.4 1908.7 2145L1913.2 2138.1C1916.1 2133.4 1919.7 2129 1922.4 2124.1C1925.2 2119.3 1927.9 2114.4 1930.8 2109.6C1932.3 2107.2 1933.8 2104.8 1935.2 2102.4L1939 2094.8C1941.6 2089.8 1944.3 2084.7 1947 2079.7C1949.9 2074.7 1951.9 2069.3 1954.5 2064.1C1957.1 2058.9 1959.7 2053.6 1962.6 2048.4L1962.8 2048.2C1963.6 2046.7 1965.5 2046.2 1967 2047C1968 2047.6 1968.6 2048.7 1968.6 2049.8C1967.6 2097.9 1949.2 2145.6 1919.9 2185.1C1918.2 2187.7 1916.2 2190 1914.2 2192.4L1908.3 2199.5C1904.3 2204.2 1900.5 2209 1896 2213.3L1883 2226.4L1869 2238.5C1850 2254.2 1829.4 2267.9 1807.6 2279.4C1785.8 2290.7 1762.9 2299.8 1739.4 2306.9C1733.4 2308.6 1727.8 2310.2 1721.4 2311.7C1714.87 2313.23 1708.27 2314.33 1701.6 2315C1688.3 2316.3 1674.8 2315.9 1661.5 2313.8C1648.2 2311.7 1635.1 2307.8 1622.8 2302.2C1611.4 2296.7 1599.9 2290.9 1589.1 2283.3C1567.4 2268.8 1547.9 2248.3 1535.8 2223.3C1529.8 2210.8 1525.7 2197.5 1523.5 2184C1521.3 2170.5 1520.7 2157.1 1522 2143.3C1524.7 2115.9 1535.1 2089.6 1550.9 2067.6C1554.9 2062.1 1559.1 2056.9 1563.7 2051.9C1568.1 2046.9 1573.6 2042 1577.2 2038.4C1585.1 2030.4 1593.2 2022.7 1601 2014.7L1623.2 1989.5L1643.9 1963C1670.6 1926.8 1693.7 1887.9 1712.2 1846.8L1719.1 1831.3C1721.4 1826.2 1723.3 1820.9 1725.4 1815.7C1729.8 1805.2 1733.4 1794.5 1737.2 1783.9L1742.4 1767.9C1744.1 1762.6 1745.6 1757.2 1747.2 1751.8C1748.8 1746.4 1750.2 1741 1751.6 1735.6C1752.8 1730.3 1754.2 1724.6 1755.1 1720L1755.2 1719.4C1757.5 1707.2 1769.3 1699.2 1781.5 1701.6C1793.6 1703.9 1801.5 1715.4 1799.4 1727.4Z" fill="#3A98B9"/>
<g opacity="0.3">
<path d="M1937.5 1717.2C1802.7 1793.4 1581.7 1849 1223.6 1849C865.4 1849 644.3 1793.4 509.7 1717.2C521.5 1686.1 529.9 1668.1 529.9 1668.1C529.9 1668.1 633.9 1499.1 1223.6 1499.1C1813.2 1499.1 1917.3 1668.1 1917.3 1668.1C1917.3 1668.1 1925.6 1686.1 1937.5 1717.2Z" fill="#3A98B9"/>
</g>
<path d="M1223.6 152.9C1707.1 152.9 1897.4 436.2 1897.4 436.2L1998 356.6C1998 356.6 1794.3 24 1223.6 24C652.8 24 449.1 356.6 449.1 356.6L549.7 436.2C549.7 436.2 740 152.9 1223.6 152.9Z" fill="#026C99"/>
<g opacity="0.7">
<path d="M1223.6 64C1697.5 64 1918.4 293.3 1979.7 371.1L1998 356.6C1998 356.6 1794.3 24 1223.6 24C652.8 24 449.1 356.6 449.1 356.6L467.5 371.1C528.7 293.3 749.6 64 1223.6 64Z" fill="white"/>
</g>
<path fill-rule="evenodd" clip-rule="evenodd" d="M1897.4 458.7C1896.27 458.7 1895.1 458.6 1893.9 458.4C1887.7 457.4 1882.2 453.9 1878.7 448.7C1878.3 448.1 1831.2 379.5 1727.4 312C1631.7 249.7 1466.5 175.4 1223.6 175.4C980.6 175.4 815.5 249.7 719.7 312C615.9 379.5 568.8 448.1 568.4 448.7C564.9 453.9 559.4 457.4 553.2 458.4C547 459.3 540.7 457.7 535.8 453.8L435.1 374.2C426.2 367.2 423.9 354.5 429.9 344.8C432.1 341.3 484.8 256.6 609.6 171.7C723.8 94 923 1.5 1223.6 1.5C1524.1 1.5 1723.3 94 1837.5 171.7C1962.3 256.6 2015 341.3 2017.2 344.8C2023.2 354.5 2020.9 367.2 2012 374.2L1911.3 453.8C1907.3 457 1902.4 458.7 1897.4 458.7ZM479.7 352.1L545.8 404.3C567.8 377.5 615.3 326.7 693 275.7C794.1 209.4 968.2 130.4 1223.6 130.4C1478.9 130.4 1653 209.4 1754.2 275.7C1831.8 326.7 1879.3 377.5 1901.4 404.3L1967.4 352.1C1946.5 324.5 1896.3 265.7 1810 207.4C1701.3 134 1511.3 46.5 1223.6 46.5C744.4 46.5 529.3 286.8 479.7 352.1Z" fill="#3A98B9"/>
<path d="M309.4 535.6C309.4 535.6 324.4 470.8 370 410.9C406.1 363.4 467 340.2 524.5 356C545.4 361.8 567.4 372.8 588.7 392L522.1 544L309.4 535.6Z" fill="#C6F8FF"/>
<g opacity="0.7">
<path d="M365 455.9C401.1 408.4 462 385.2 519.5 401C536.9 405.8 555 414.3 572.9 428.1L588.7 392C567.4 372.8 545.4 361.8 524.5 356C467 340.2 406.1 363.4 370 410.9C324.4 470.8 309.4 535.6 309.4 535.6L319.5 536C329 513 343.7 483.9 365 455.9Z" fill="white"/>
</g>
<path fill-rule="evenodd" clip-rule="evenodd" d="M522.1 566.5C521.833 566.5 521.567 566.5 521.3 566.5L308.5 558.1C301.8 557.9 295.6 554.6 291.5 549.3C287.5 544 286 537.1 287.5 530.6C288.1 527.7 304.1 460.3 352.1 397.2C394.9 341 464.9 316.3 530.5 334.3C557 341.6 581.7 355.4 603.8 375.3C611 381.8 613.3 392.2 609.4 401.1L542.7 553C539.1 561.2 531 566.5 522.1 566.5ZM339.6 514.3L507.7 520.9L561.3 398.7C547.9 388.9 533.5 381.8 518.6 377.7C470.8 364.6 419.5 383 387.9 424.5C363.2 457 348 491.4 339.6 514.3Z" fill="#3A98B9"/>
<path d="M254.3 1011.1C254.3 1011.1 -25.3999 999.9 30.9001 715.4C82.8001 452.7 375.1 545.1 375.1 545.1C375.1 545.1 290.7 629.7 254.3 1011.1Z" fill="#C6F8FF"/>
<g opacity="0.3">
<path d="M259.3 866.1C259.3 866.1 71.3001 858.5 34.6001 699C33.3001 704.3 32.0001 709.8 30.9001 715.4C-25.3999 999.9 254.3 1011.1 254.3 1011.1C290.7 629.7 375.1 545.1 375.1 545.1C375.1 545.1 352.5 537.9 318.8 533.3C297 604.5 274.1 710.7 259.3 866.1Z" fill="#3A98B9"/>
</g>
<g opacity="0.7">
<path d="M35.9001 765.4C77.3001 555.8 271.8 572.2 348.7 587.4C364.3 555.9 375.1 545.1 375.1 545.1C375.1 545.1 82.8001 452.7 30.9001 715.4C21.3001 764.1 21.5001 804.7 28.4001 838.7C28.3001 816.5 30.6001 792.2 35.9001 765.4Z" fill="white"/>
</g>
<path fill-rule="evenodd" clip-rule="evenodd" d="M254.3 1033.6C253.967 1033.6 253.667 1033.6 253.4 1033.6C248 1033.4 120.8 1027.3 48.5001 935.5C3.90008 879 -9.49992 803.4 8.80008 711.1C24.2001 633.1 61.1001 576.3 118.5 542.3C229.4 476.6 375.7 521.7 381.9 523.6C389.4 526 395.1 532.1 397 539.7C398.9 547.3 396.6 555.4 391.1 561C390.5 561.6 311.4 649.8 276.7 1013.3C275.6 1024.9 265.8 1033.6 254.3 1033.6ZM262.9 551.9C223.5 551.9 179.2 558.6 141.2 581.2C95.5001 608.3 65.8001 655 53.0001 719.8C37.4001 798.7 47.8001 861.9 83.9001 907.7C127.7 963.2 198.9 980.8 234.1 986.3C260.9 728.5 310.2 608.8 338.3 559.4C319.2 555.7 292.4 551.9 262.9 551.9Z" fill="#3A98B9"/>
<path d="M367.8 1126.9C367.8 1126.9 121.4 1126.9 209.3 741.1C280.9 426.8 482.5 463.5 559.9 490.5C559.9 490.5 421.4 659.7 367.8 1126.9Z" fill="white"/>
<g opacity="0.3">
<path d="M220.6 698C216.5 711.6 212.7 725.9 209.3 741.1C121.4 1126.9 367.8 1126.9 367.8 1126.9C375.4 1061 384.6 1001.1 394.9 946.8C371.5 945.5 214.4 928.3 220.6 698Z" fill="#3A98B9"/>
</g>
<path fill-rule="evenodd" clip-rule="evenodd" d="M367.8 1149.4C364.3 1149.4 280.5 1148.5 221.9 1075C164.2 1002.7 152.6 888.7 187.3 736.1C216.4 608.4 269.9 522.2 346.3 479.9C431 433.1 521.1 453.1 567.3 469.2C574.3 471.6 579.6 477.3 581.6 484.4C583.6 491.4 582 499 577.3 504.7C576 506.3 442.2 676.4 390.2 1129.4C388.9 1140.8 379.3 1149.4 367.8 1149.4ZM463 495.8C432.8 495.8 399.7 501.8 368.1 519.3C303.4 555.1 257.3 631.4 231.2 746.1C200.1 882.7 209 986.8 257.1 1047C286.9 1084.4 325.3 1097.4 348.1 1101.9C391.9 745.8 484 566.6 523.8 503.3C506.1 499.1 485.3 495.8 463 495.8Z" fill="#3A98B9"/>
<path d="M2134.6 535.6C2134.6 535.6 2119.6 470.8 2074 410.9C2037.9 363.4 1977 340.2 1919.5 356C1898.6 361.8 1876.6 372.8 1855.3 392L1921.9 544L2134.6 535.6Z" fill="#C6F8FF"/>
<g opacity="0.7">
<path d="M2079 455.9C2042.9 408.4 1982 385.2 1924.5 401C1907.1 405.8 1889 414.3 1871.1 428.1L1855.3 392C1876.6 372.8 1898.6 361.8 1919.5 356C1977 340.2 2037.9 363.4 2074 410.9C2119.6 470.8 2134.6 535.6 2134.6 535.6L2124.5 536C2115 513 2100.3 483.9 2079 455.9Z" fill="white"/>
</g>
<path fill-rule="evenodd" clip-rule="evenodd" d="M1921.9 566.5C1913 566.5 1904.9 561.2 1901.3 553L1834.6 401.1C1830.7 392.2 1833 381.8 1840.2 375.3C1862.3 355.4 1887 341.6 1913.5 334.3C1979.1 316.4 2049.1 341 2091.9 397.2C2139.9 460.3 2155.9 527.7 2156.5 530.6C2158 537.1 2156.5 544 2152.5 549.3C2148.4 554.6 2142.2 557.9 2135.5 558.1L1922.8 566.5C1922.47 566.5 1922.17 566.5 1921.9 566.5ZM1882.7 398.7L1936.3 520.9L2104.4 514.3C2096 491.4 2080.8 457 2056.1 424.5C2024.5 383 1973.2 364.6 1925.4 377.7C1910.5 381.8 1896.1 388.9 1882.7 398.7Z" fill="#3A98B9"/>
<path d="M2189.7 1011.1C2189.7 1011.1 2469.4 999.9 2413.1 715.4C2361.2 452.7 2068.9 545.1 2068.9 545.1C2068.9 545.1 2153.3 629.7 2189.7 1011.1Z" fill="#C6F8FF"/>
<g opacity="0.3">
<path d="M2184.7 866.1C2184.7 866.1 2372.7 858.5 2409.4 699C2410.7 704.3 2412 709.8 2413.1 715.4C2469.4 999.9 2189.7 1011.1 2189.7 1011.1C2153.3 629.7 2068.9 545.1 2068.9 545.1C2068.9 545.1 2091.5 537.9 2125.2 533.3C2147 604.5 2169.9 710.7 2184.7 866.1Z" fill="#3A98B9"/>
</g>
<g opacity="0.7">
<path d="M2408.1 765.4C2366.7 555.8 2172.2 572.2 2095.3 587.4C2079.7 555.9 2068.9 545.1 2068.9 545.1C2068.9 545.1 2361.2 452.7 2413.1 715.4C2422.7 764.1 2422.5 804.7 2415.6 838.7C2415.7 816.5 2413.4 792.2 2408.1 765.4Z" fill="white"/>
</g>
<path fill-rule="evenodd" clip-rule="evenodd" d="M2189.7 1033.6C2178.2 1033.6 2168.4 1024.9 2167.3 1013.3C2132.6 649.8 2053.5 561.6 2052.7 560.7C2047.1 555.1 2045 547.2 2046.9 539.6C2048.8 532 2054.6 526 2062.1 523.6C2068.3 521.7 2214.5 476.6 2325.5 542.3C2382.9 576.3 2419.8 633.1 2435.2 711.1C2453.5 803.4 2440.1 879 2395.5 935.5C2323.2 1027.3 2196 1033.4 2190.6 1033.6C2190.33 1033.6 2190.03 1033.6 2189.7 1033.6ZM2105.7 559.4C2133.8 608.8 2183.1 728.5 2209.9 986.2C2245.2 980.7 2316.8 962.9 2360.3 907.4C2396.3 861.7 2406.6 798.5 2391.1 719.8C2378.2 655 2348.5 608.3 2302.8 581.2C2236.4 541.7 2150.4 550.7 2105.7 559.4Z" fill="#3A98B9"/>
<path d="M2076.2 1126.9C2076.2 1126.9 2322.6 1126.9 2234.7 741.1C2163.1 426.8 1961.5 463.5 1884.1 490.5C1884.1 490.5 2022.6 659.7 2076.2 1126.9Z" fill="white"/>
<g opacity="0.3">
<path d="M2223.4 698C2227.5 711.6 2231.3 725.9 2234.7 741.1C2322.6 1126.9 2076.2 1126.9 2076.2 1126.9C2068.6 1061 2059.4 1001.1 2049.1 946.8C2072.5 945.5 2229.6 928.3 2223.4 698Z" fill="#3A98B9"/>
</g>
<path fill-rule="evenodd" clip-rule="evenodd" d="M2076.2 1149.4C2064.7 1149.4 2055.1 1140.8 2053.8 1129.4C2001.8 676.4 1868 506.3 1866.6 504.7C1862 499 1860.4 491.4 1862.5 484.3C1864.5 477.3 1869.7 471.6 1876.7 469.2C1922.9 453.1 2013 433.1 2097.7 479.9C2174.1 522.2 2227.6 608.4 2256.7 736.1C2291.4 888.7 2279.8 1002.7 2222.1 1075C2163.5 1148.5 2079.7 1149.4 2076.2 1149.4ZM1920.2 503.3C1960 566.6 2052.1 745.9 2095.9 1102C2118.9 1097.4 2157.4 1084.3 2187.4 1046.4C2235 986.1 2243.8 882.3 2212.8 746.1C2186.7 631.4 2140.6 555.1 2075.9 519.3C2020.9 488.9 1961.9 493.3 1920.2 503.3Z" fill="#3A98B9"/>
<path d="M1223.6 1789C311 1789 288.9 1428.1 315.5 1286.1C317 1277.9 318.7 1270.3 320.4 1263.7C326.8 1238.9 330 1213.5 329.3 1187.8C323.9 989.4 352.6 152.9 1223.6 152.9C2094.6 152.9 2123.3 989.4 2117.8 1187.8C2117.1 1213.5 2120.3 1238.9 2126.7 1263.7C2157.8 1384.9 2189.2 1789 1223.6 1789Z" fill="white"/>
<path d="M746.4 1206.6C751 1194.4 757.4 1184.6 765 1175C772.7 1165.7 781.6 1157.3 791.7 1149.9C811.8 1135.5 837 1125.1 864.5 1123.6C878.2 1122.9 892.1 1124.4 905.4 1128C908.7 1129 912 1130 915.2 1131.1C918.4 1132.37 921.533 1133.7 924.6 1135.1C930.7 1137.9 936.5 1141.3 941.9 1145C963.6 1160 979.6 1180 987.5 1203.2C990.4 1211.7 985.8 1220.9 977.3 1223.8C973.5 1225.1 969.6 1224.9 966.1 1223.5L965.4 1223.2C944.8 1215 927.9 1207.4 912 1202.6C896.1 1197.8 882 1195.7 867 1195.4C852 1195.3 835.8 1197.7 818.1 1202.3C800.4 1206.6 781.4 1213.4 760.7 1219.9L759.4 1220.3C753.8 1222 748 1218.9 746.2 1213.4C745.5 1211.1 745.6 1208.7 746.4 1206.6Z" fill="#000072"/>
<path d="M746.4 1206.6C751 1194.4 757.4 1184.6 765 1175C772.7 1165.7 781.6 1157.3 791.7 1149.9C811.8 1135.5 837 1125.1 864.5 1123.6C878.2 1122.9 892.1 1124.4 905.4 1128C908.7 1129 912 1130 915.2 1131.1C918.4 1132.37 921.533 1133.7 924.6 1135.1C930.7 1137.9 936.5 1141.3 941.9 1145C963.6 1160 979.6 1180 987.5 1203.2C990.4 1211.7 985.8 1220.9 977.3 1223.8C973.5 1225.1 969.6 1224.9 966.1 1223.5L965.4 1223.2C944.8 1215 927.9 1207.4 912 1202.6C896.1 1197.8 882 1195.7 867 1195.4C852 1195.3 835.8 1197.7 818.1 1202.3C800.4 1206.6 781.4 1213.4 760.7 1219.9L759.4 1220.3C753.8 1222 748 1218.9 746.2 1213.4C745.5 1211.1 745.6 1208.7 746.4 1206.6Z" fill="#3A98B9"/>
<path d="M1686.4 1219.9C1665.8 1213.4 1646.8 1206.6 1629.1 1202.3C1611.4 1197.7 1595.1 1195.3 1580.1 1195.4C1565.1 1195.7 1551 1197.8 1535.1 1202.6C1519.2 1207.4 1502.3 1215 1481.8 1223.2L1481 1223.5C1472.7 1226.9 1463.3 1222.8 1459.9 1214.5C1458.4 1210.7 1458.4 1206.7 1459.6 1203.2C1467.5 1180 1483.6 1160 1505.2 1145C1510.6 1141.3 1516.4 1137.9 1522.6 1135.1C1525.67 1133.7 1528.77 1132.37 1531.9 1131.1C1535.1 1130 1538.4 1129 1541.7 1128C1555 1124.4 1568.9 1122.9 1582.6 1123.6C1610.1 1125.1 1635.4 1135.5 1655.5 1149.9C1665.5 1157.3 1674.4 1165.7 1682.1 1175C1689.7 1184.6 1696.1 1194.4 1700.7 1206.6C1702.7 1212 1700 1218 1694.6 1220.1C1692.3 1220.9 1689.9 1221 1687.7 1220.3L1686.4 1219.9Z" fill="#3A98B9"/>
<path d="M744.4 1206.6C749 1194.4 755.4 1184.6 763 1175C770.7 1165.7 779.6 1157.3 789.7 1149.9C809.8 1135.5 835 1125.1 862.5 1123.6C876.2 1122.9 890.1 1124.4 903.4 1128C906.7 1129 910 1130 913.2 1131.1C916.4 1132.37 919.533 1133.7 922.6 1135.1C928.7 1137.9 934.5 1141.3 939.9 1145C961.6 1160 977.6 1180 985.5 1203.2C988.4 1211.7 983.8 1220.9 975.3 1223.8C971.5 1225.1 967.6 1224.9 964.1 1223.5L963.4 1223.2C942.8 1215 925.9 1207.4 910 1202.6C894.1 1197.8 880 1195.7 865 1195.4C850 1195.3 833.8 1197.7 816.1 1202.3C798.4 1206.6 779.4 1213.4 758.7 1219.9L757.4 1220.3C751.8 1222 746 1218.9 744.2 1213.4C743.5 1211.1 743.6 1208.7 744.4 1206.6Z" fill="#3A98B9"/>
<path d="M1684.4 1219.9C1663.8 1213.4 1644.8 1206.6 1627.1 1202.3C1609.4 1197.7 1593.1 1195.3 1578.1 1195.4C1563.1 1195.7 1549 1197.8 1533.1 1202.6C1517.2 1207.4 1500.3 1215 1479.8 1223.2L1479 1223.5C1470.7 1226.9 1461.3 1222.8 1457.9 1214.5C1456.4 1210.7 1456.4 1206.7 1457.6 1203.2C1465.5 1180 1481.6 1160 1503.2 1145C1508.6 1141.3 1514.4 1137.9 1520.6 1135.1C1523.67 1133.7 1526.77 1132.37 1529.9 1131.1C1533.1 1130 1536.4 1129 1539.7 1128C1553 1124.4 1566.9 1122.9 1580.6 1123.6C1608.1 1125.1 1633.4 1135.5 1653.5 1149.9C1663.5 1157.3 1672.4 1165.7 1680.1 1175C1687.7 1184.6 1694.1 1194.4 1698.7 1206.6C1700.7 1212 1698 1218 1692.6 1220.1C1690.3 1220.9 1687.9 1221 1685.7 1220.3L1684.4 1219.9Z" fill="#3A98B9"/>
<path d="M2126.7 1263.7C2120.3 1238.9 2117.1 1213.5 2117.8 1187.8C2123.3 989.4 2094.6 152.9 1223.6 152.9C352.6 152.9 323.9 989.4 329.3 1187.8C330 1213.5 326.8 1238.9 320.4 1263.7C318.7 1270.3 317 1277.9 315.5 1286.1C400 1307.7 535.4 1309.6 550 1107.5C570.9 818.1 800.7 818.3 800.7 818.3C800.7 818.3 1137.6 794.4 1081.7 1396.2H1223.6H1365.5C1309.5 794.4 1646.4 818.3 1646.4 818.3C1646.4 818.3 1876.3 818.1 1897.1 1107.5C1911.7 1309.6 2047.2 1307.7 2131.7 1286.1C2130.1 1277.9 2128.4 1270.3 2126.7 1263.7Z" fill="#A7B2BD"/>
<g opacity="0.7">
<path d="M1222 153C361.6 154.5 324.6 970.9 329.5 1182C333.7 951 399.8 404.7 916.7 249.7C920.7 248.5 925.1 249.3 928.1 252.3C948.1 272.1 1006.7 281.2 1073.9 272.9C1143.4 264.2 1199.4 239.7 1211.6 214.6C1213.5 210.6 1217.5 208 1222 208C1222.07 208 1222.1 208 1222.1 208C2020.5 206.5 2112.5 909.1 2118.3 1179.1C2122.4 968.7 2083.1 151.4 1222 153Z" fill="white"/>
</g>
<g opacity="0.3">
<path d="M2126.7 1263.7C2120.3 1238.9 2117.1 1213.5 2117.8 1187.8C2122.8 1006 2099.1 288.3 1424.7 169.6C2052.3 287.7 2074.5 960.1 2069.8 1131.2C2069.1 1155.4 2072.2 1179.5 2078.2 1203C2107.6 1317.7 2137.4 1682.9 1223.6 1682.9C360 1682.9 339.1 1358.6 364.2 1224.2C365.7 1216.4 367.3 1209.3 368.9 1203C375 1179.5 378 1155.4 377.3 1131.2C372.6 960.1 394.8 287.6 1022.4 169.6C348 288.3 324.3 1006 329.3 1187.8C330 1213.5 326.8 1238.9 320.4 1263.7C318.7 1270.3 317 1277.9 315.5 1286.1C288.9 1428.1 311 1789 1223.6 1789C2189.2 1789 2157.8 1384.9 2126.7 1263.7Z" fill="#3A98B9"/>
</g>
<path d="M1423.6 1370C1423.6 1370 1416.8 1535.3 1223.6 1628.3C1124.8 1580.7 1074.7 1514.3 1049.4 1460.7C1025.2 1409.5 1023.6 1370 1023.6 1370H1423.6Z" fill="#FFC869"/>
<g opacity="0.3">
<path d="M1223.6 1370H1023.6C1023.6 1370 1025.2 1409.5 1049.4 1460.7C1094.4 1487.9 1154.6 1515.6 1223.6 1525.4C1292.6 1515.6 1352.7 1487.9 1397.7 1460.7C1422 1409.5 1423.6 1370 1423.6 1370H1223.6Z" fill="#3A98B9"/>
</g>
<path d="M1223.6 1366.9H1365.5C1365.5 1366.9 1360.7 1484.2 1223.6 1550.1C1086.5 1484.2 1081.6 1366.9 1081.6 1366.9H1223.6Z" fill="#3A98B9"/>
<path fill-rule="evenodd" clip-rule="evenodd" d="M1223.6 1650.8C1220.2 1650.8 1216.9 1650 1213.8 1648.6C1010.8 1550.9 1001.4 1378.2 1001.1 1370.9C1000.8 1364.8 1003.1 1358.9 1007.3 1354.4C1011.6 1350 1017.4 1347.5 1023.6 1347.5H1423.6C1429.7 1347.5 1435.6 1350 1439.8 1354.4C1444 1358.9 1446.3 1364.8 1446 1370.9C1445.7 1378.2 1436.4 1550.9 1233.3 1648.6C1230.2 1650 1226.9 1650.8 1223.6 1650.8ZM1049.4 1392.5C1058.9 1437.5 1093.9 1536.9 1223.6 1603.2C1353.1 1536.9 1388.2 1437.6 1397.7 1392.5H1049.4Z" fill="#3A98B9"/>
<path d="M1223.6 1426.9C1347.1 1416.1 1423.6 1370.4 1423.6 1370.4C1375.3 1293.5 1223.6 1250.1 1223.6 1250.1C1223.6 1250.1 1071.8 1293.5 1023.6 1370.4C1023.6 1370.4 1100 1416.1 1223.6 1426.9Z" fill="#FFC869"/>
<g opacity="0.7">
<path d="M1223.6 1295.1C1223.6 1295.1 1334.1 1326.7 1396.5 1383.8C1414.1 1376 1423.6 1370.4 1423.6 1370.4C1375.3 1293.5 1223.6 1250.1 1223.6 1250.1C1223.6 1250.1 1071.8 1293.5 1023.6 1370.4C1023.6 1370.4 1033 1376 1050.6 1383.8C1113 1326.7 1223.6 1295.1 1223.6 1295.1Z" fill="white"/>
</g>
<path fill-rule="evenodd" clip-rule="evenodd" d="M1223.6 1449.4C1222.93 1449.4 1222.27 1449.37 1221.6 1449.3C1094.3 1438.2 1015.3 1391.6 1012 1389.7C1006.8 1386.5 1003.1 1381.5 1001.7 1375.6C1000.3 1369.7 1001.3 1363.5 1004.5 1358.4C1056.7 1275.2 1210.8 1230.3 1217.4 1228.4C1221.4 1227.3 1225.7 1227.3 1229.8 1228.4C1236.3 1230.3 1390.4 1275.2 1442.6 1358.4C1445.8 1363.5 1446.9 1369.7 1445.4 1375.6C1444 1381.5 1440.3 1386.5 1435.1 1389.7C1431.8 1391.6 1352.8 1438.2 1225.5 1449.3C1224.83 1449.37 1224.2 1449.4 1223.6 1449.4ZM1058.3 1362.5C1088.4 1376 1146.4 1397.3 1223.6 1404.3C1300.6 1397.3 1358.6 1376 1388.7 1362.6C1345.7 1318.2 1262.3 1285.5 1223.6 1273.6C1199 1281.4 1105.6 1313.3 1058.3 1362.5Z" fill="#3A98B9"/>
<path fill-rule="evenodd" clip-rule="evenodd" d="M1223.6 1811.5C779 1811.5 488 1726.9 358.5 1560C268.7 1444.1 282.4 1321.1 298.6 1258.1C304.7 1234.5 307.5 1211.1 306.8 1188.5C303.5 1065.5 312.9 643.2 576.7 372.1C732.7 211.7 950.4 130.4 1223.6 130.4C1496.8 130.4 1714.4 211.7 1870.4 372.1C2134.2 643.2 2143.7 1065.5 2140.3 1188.5C2139.7 1211.1 2142.4 1234.5 2148.5 1258.1C2164.7 1321.1 2178.4 1444.2 2088.6 1560C1959.2 1726.9 1668.1 1811.5 1223.6 1811.5ZM1223.6 175.4C963 175.4 756.2 252.2 608.9 403.5C357.5 661.9 348.6 1068.7 351.8 1187.2C352.6 1214 349.3 1241.6 342.2 1269.3C328.1 1324.3 316 1431.7 394.1 1532.4C447 1600.6 532.9 1654.8 649.6 1693.7C794.6 1742 987.8 1766.5 1223.6 1766.5C1459.4 1766.5 1652.5 1742 1797.5 1693.7C1914.2 1654.8 2000.2 1600.6 2053 1532.4C2131.1 1431.7 2119 1324.3 2104.9 1269.3C2097.8 1241.6 2094.6 1214 2095.3 1187.2C2098.6 1068.7 2089.6 661.9 1838.2 403.5C1690.9 252.2 1484.2 175.4 1223.6 175.4Z" fill="#3A98B9"/>
</svg>
